  0
SECTION
  2
HEADER
  9
$ACADVER
  1
AC1009
  9
$INSBASE
 10
0.000000
 20
0.000000
  9
$LIMMIN
 10
-42.799000
 20
-69.850000
  9
$LIMMAX
 10
520.065000
 20
361.950000
  9
$EXTMIN
 10
-42.799000
 20
-69.850000
  9
$EXTMAX
 10
520.065000
 20
361.950000
  9
$ATTMODE
 70
0
  9
$LUNITS
 70
2
  9
$LUPREC
 70
1
  9
$THICKNESS
 40
0.264160
  0
ENDSEC
  0
SECTION
  2
TABLES
  0
TABLE
  2
LTYPE
 70
1
  0
LTYPE
  3
Solid Line
  2
CONTINUOUS
 70
0
 72
65
 73
0
 40
0.000000
  0
ENDTAB
  0
TABLE
  2
LAYER
 70
6
  0
LAYER
  2
BG_OUTLINE
 70
0
 62
6
  6
CONTINUOUS
  0
LAYER
  2
BO_SILKSCREEN_BOTTOM
 70
0
 62
4
  6
CONTINUOUS
  0
LAYER
  2
PG_SILKSCREEN_BOTTOM
 70
0
 62
4
  6
CONTINUOUS
  0
LAYER
  2
RE_SILKSCREEN_BOTTOM
 70
0
 62
4
  6
CONTINUOUS
  0
LAYER
  2
RE_DISPLAY_TOP
 70
0
 62
142
  6
CONTINUOUS
  0
LAYER
  2
PIN_BOTTOM
 70
0
 62
141
  6
CONTINUOUS
  0
ENDTAB
  0
TABLE
  2
STYLE
 70
1
  0
STYLE
  2
STANDARD
 70
0
 40
0.000000
 41
1.000000
 50
0.000000
 71
0
 42
0.200000
  3
txt
  0
ENDTAB
  0
ENDSEC
  0
SECTION
  2
BLOCKS
  0
BLOCK
  8
0
  2
FIGURE_CIRCLE
 70
0
 10
0.000000
 20
0.000000
  0
CIRCLE
  8
0
 10
0.000000
 20
0.000000
 40
0.500000
  0
ENDBLK
  0
BLOCK
  8
0
  2
FIGURE_SQUARE
 70
0
 10
0.000000
 20
0.000000
  0
POLYLINE
  8
0
 66
1
 70
1
 40
0.000000
 41
0.000000
 39
0.000000
  0
VERTEX
  8
0
 10
-0.500000
 20
-0.500000
 40
0.000000
 41
0.000000
 42
0.000000
  0
VERTEX
  8
0
 10
-0.500000
 20
0.500000
 40
0.000000
 41
0.000000
 42
0.000000
  0
VERTEX
  8
0
 10
0.500000
 20
0.500000
 40
0.000000
 41
0.000000
 42
0.000000
  0
VERTEX
  8
0
 10
0.500000
 20
-0.500000
 40
0.000000
 41
0.000000
 42
0.000000
  0
SEQEND
  0
ENDBLK
  0
BLOCK
  8
0
  2
FIGURE_HEX
 70
0
 10
0.000000
 20
0.000000
  0
POLYLINE
  8
0
 66
1
 70
1
 40
0.000000
 41
0.000000
 39
0.000000
  0
VERTEX
  8
0
 10
-0.500000
 20
0.000000
 40
0.000000
 41
0.000000
 42
0.000000
  0
VERTEX
  8
0
 10
-0.250000
 20
0.500000
 40
0.000000
 41
0.000000
 42
0.000000
  0
VERTEX
  8
0
 10
0.250000
 20
0.500000
 40
0.000000
 41
0.000000
 42
0.000000
  0
VERTEX
  8
0
 10
0.500000
 20
0.000000
 40
0.000000
 41
0.000000
 42
0.000000
  0
VERTEX
  8
0
 10
0.250000
 20
-0.500000
 40
0.000000
 41
0.000000
 42
0.000000
  0
VERTEX
  8
0
 10
-0.250000
 20
-0.500000
 40
0.000000
 41
0.000000
 42
0.000000
  0
SEQEND
  0
ENDBLK
  0
BLOCK
  8
0
  2
FIGURE_OCT
 70
0
 10
0.000000
 20
0.000000
  0
POLYLINE
  8
0
 66
1
 70
1
 40
0.000000
 41
0.000000
 39
0.000000
  0
VERTEX
  8
0
 10
-0.500000
 20
-0.207100
 40
0.000000
 41
0.000000
 42
0.000000
  0
VERTEX
  8
0
 10
-0.500000
 20
0.207100
 40
0.000000
 41
0.000000
 42
0.000000
  0
VERTEX
  8
0
 10
-0.207100
 20
0.500000
 40
0.000000
 41
0.000000
 42
0.000000
  0
VERTEX
  8
0
 10
0.207100
 20
0.500000
 40
0.000000
 41
0.000000
 42
0.000000
  0
VERTEX
  8
0
 10
0.500000
 20
0.207100
 40
0.000000
 41
0.000000
 42
0.000000
  0
VERTEX
  8
0
 10
0.500000
 20
-0.207100
 40
0.000000
 41
0.000000
 42
0.000000
  0
VERTEX
  8
0
 10
0.207100
 20
-0.500000
 40
0.000000
 41
0.000000
 42
0.000000
  0
VERTEX
  8
0
 10
-0.207100
 20
-0.500000
 40
0.000000
 41
0.000000
 42
0.000000
  0
SEQEND
  0
ENDBLK
  0
BLOCK
  8
0
  2
FIGURE_OBLONG
 70
0
 10
0.000000
 20
0.000000
  0
POLYLINE
  8
0
 66
1
 70
1
 40
0.000000
 41
0.000000
 39
0.000000
  0
VERTEX
  8
0
 10
-0.500000
 20
-0.125000
 40
0.000000
 41
0.000000
 42
0.000000
  0
VERTEX
  8
0
 10
-0.500000
 20
0.125000
 40
0.000000
 41
0.000000
 42
0.000000
  0
VERTEX
  8
0
 10
-0.416000
 20
0.375000
 40
0.000000
 41
0.000000
 42
0.000000
  0
VERTEX
  8
0
 10
-0.250000
 20
0.500000
 40
0.000000
 41
0.000000
 42
0.000000
  0
VERTEX
  8
0
 10
0.250000
 20
0.500000
 40
0.000000
 41
0.000000
 42
0.000000
  0
VERTEX
  8
0
 10
0.416000
 20
0.375000
 40
0.000000
 41
0.000000
 42
0.000000
  0
VERTEX
  8
0
 10
0.500000
 20
0.125000
 40
0.000000
 41
0.000000
 42
0.000000
  0
VERTEX
  8
0
 10
0.500000
 20
-0.125000
 40
0.000000
 41
0.000000
 42
0.000000
  0
VERTEX
  8
0
 10
0.416000
 20
-0.375000
 40
0.000000
 41
0.000000
 42
0.000000
  0
VERTEX
  8
0
 10
0.250000
 20
-0.500000
 40
0.000000
 41
0.000000
 42
0.000000
  0
VERTEX
  8
0
 10
-0.250000
 20
-0.500000
 40
0.000000
 41
0.000000
 42
0.000000
  0
VERTEX
  8
0
 10
-0.416000
 20
-0.375000
 40
0.000000
 41
0.000000
 42
0.000000
  0
SEQEND
  0
ENDBLK
  0
BLOCK
  8
0
  2
FIGURE_TRI
 70
0
 10
0.000000
 20
0.000000
  0
POLYLINE
  8
0
 66
1
 70
1
 40
0.000000
 41
0.000000
 39
0.000000
  0
VERTEX
  8
0
 10
-0.500000
 20
-0.500000
 40
0.000000
 41
0.000000
 42
0.000000
  0
VERTEX
  8
0
 10
0.000000
 20
0.500000
 40
0.000000
 41
0.000000
 42
0.000000
  0
VERTEX
  8
0
 10
0.500000
 20
-0.500000
 40
0.000000
 41
0.000000
 42
0.000000
  0
SEQEND
  0
ENDBLK
  0
BLOCK
  8
0
  2
FIGURE_CROSS
 70
0
 10
0.000000
 20
0.000000
  0
POLYLINE
  8
0
 66
1
 70
0
 40
0.000000
 41
0.000000
 39
0.000000
  0
VERTEX
  8
0
 10
-0.500000
 20
0.000000
 40
0.000000
 41
0.000000
 42
0.000000
  0
VERTEX
  8
0
 10
0.500000
 20
0.000000
 40
0.000000
 41
0.000000
 42
0.000000
  0
SEQEND
  0
POLYLINE
  8
0
 66
1
 70
0
 40
0.000000
 41
0.000000
 39
0.000000
  0
VERTEX
  8
0
 10
0.000000
 20
0.500000
 40
0.000000
 41
0.000000
 42
0.000000
  0
VERTEX
  8
0
 10
0.000000
 20
-0.500000
 40
0.000000
 41
0.000000
 42
0.000000
  0
SEQEND
  0
ENDBLK
  0
BLOCK
  8
0
  2
FIGURE_DIAMOND
 70
0
 10
0.000000
 20
0.000000
  0
POLYLINE
  8
0
 66
1
 70
1
 40
0.000000
 41
0.000000
 39
0.000000
  0
VERTEX
  8
0
 10
-0.500000
 20
0.000000
 40
0.000000
 41
0.000000
 42
0.000000
  0
VERTEX
  8
0
 10
0.000000
 20
0.500000
 40
0.000000
 41
0.000000
 42
0.000000
  0
VERTEX
  8
0
 10
0.500000
 20
0.000000
 40
0.000000
 41
0.000000
 42
0.000000
  0
VERTEX
  8
0
 10
0.000000
 20
-0.500000
 40
0.000000
 41
0.000000
 42
0.000000
  0
SEQEND
  0
ENDBLK
  0
ENDSEC
  0
SECTION
  2
ENTITIES
  0
POLYLINE
  8
PIN_BOTTOM
 66
1
 70
1
 40
0.000000
 41
0.000000
 39
0.000000
  0
VERTEX
  8
PIN_BOTTOM
 10
5.593080
 20
76.619100
 40
0.000000
 41
0.000000
 42
0.000000
  0
VERTEX
  8
PIN_BOTTOM
 10
5.593080
 20
75.018900
 40
0.000000
 41
0.000000
 42
0.000000
  0
VERTEX
  8
PIN_BOTTOM
 10
3.992880
 20
75.018900
 40
0.000000
 41
0.000000
 42
0.000000
  0
VERTEX
  8
PIN_BOTTOM
 10
3.992880
 20
76.619100
 40
0.000000
 41
0.000000
 42
0.000000
  0
SEQEND
  0
CIRCLE
  8
PIN_BOTTOM
 10
2.252980
 20
75.819000
 40
0.800100
  0
POLYLINE
  8
PIN_BOTTOM
 66
1
 70
1
 40
0.000000
 41
0.000000
 39
0.000000
  0
VERTEX
  8
PIN_BOTTOM
 10
5.593080
 20
70.269100
 40
0.000000
 41
0.000000
 42
0.000000
  0
VERTEX
  8
PIN_BOTTOM
 10
5.593080
 20
68.668900
 40
0.000000
 41
0.000000
 42
0.000000
  0
VERTEX
  8
PIN_BOTTOM
 10
3.992880
 20
68.668900
 40
0.000000
 41
0.000000
 42
0.000000
  0
VERTEX
  8
PIN_BOTTOM
 10
3.992880
 20
70.269100
 40
0.000000
 41
0.000000
 42
0.000000
  0
SEQEND
  0
CIRCLE
  8
PIN_BOTTOM
 10
2.252980
 20
69.469000
 40
0.800100
  0
POLYLINE
  8
PIN_BOTTOM
 66
1
 70
1
 40
0.000000
 41
0.000000
 39
0.000000
  0
VERTEX
  8
PIN_BOTTOM
 10
5.593080
 20
63.919100
 40
0.000000
 41
0.000000
 42
0.000000
  0
VERTEX
  8
PIN_BOTTOM
 10
5.593080
 20
62.318900
 40
0.000000
 41
0.000000
 42
0.000000
  0
VERTEX
  8
PIN_BOTTOM
 10
3.992880
 20
62.318900
 40
0.000000
 41
0.000000
 42
0.000000
  0
VERTEX
  8
PIN_BOTTOM
 10
3.992880
 20
63.919100
 40
0.000000
 41
0.000000
 42
0.000000
  0
SEQEND
  0
CIRCLE
  8
PIN_BOTTOM
 10
2.252980
 20
63.119000
 40
0.800100
  0
POLYLINE
  8
PIN_BOTTOM
 66
1
 70
1
 40
0.000000
 41
0.000000
 39
0.000000
  0
VERTEX
  8
PIN_BOTTOM
 10
5.593080
 20
57.569100
 40
0.000000
 41
0.000000
 42
0.000000
  0
VERTEX
  8
PIN_BOTTOM
 10
5.593080
 20
55.968900
 40
0.000000
 41
0.000000
 42
0.000000
  0
VERTEX
  8
PIN_BOTTOM
 10
3.992880
 20
55.968900
 40
0.000000
 41
0.000000
 42
0.000000
  0
VERTEX
  8
PIN_BOTTOM
 10
3.992880
 20
57.569100
 40
0.000000
 41
0.000000
 42
0.000000
  0
SEQEND
  0
CIRCLE
  8
PIN_BOTTOM
 10
2.252980
 20
56.769000
 40
0.800100
  0
POLYLINE
  8
PIN_BOTTOM
 66
1
 70
1
 40
0.000000
 41
0.000000
 39
0.000000
  0
VERTEX
  8
PIN_BOTTOM
 10
68.790820
 20
79.308960
 40
0.000000
 41
0.000000
 42
0.000000
  0
VERTEX
  8
PIN_BOTTOM
 10
68.790820
 20
80.357980
 40
0.000000
 41
0.000000
 42
0.000000
  0
VERTEX
  8
PIN_BOTTOM
 10
66.591180
 20
80.357980
 40
0.000000
 41
0.000000
 42
0.000000
  0
VERTEX
  8
PIN_BOTTOM
 10
66.591180
 20
79.308960
 40
0.000000
 41
0.000000
 42
0.000000
  0
SEQEND
  0
POLYLINE
  8
PIN_BOTTOM
 66
1
 70
1
 40
0.000000
 41
0.000000
 39
0.000000
  0
VERTEX
  8
PIN_BOTTOM
 10
68.790820
 20
76.357480
 40
0.000000
 41
0.000000
 42
0.000000
  0
VERTEX
  8
PIN_BOTTOM
 10
68.790820
 20
77.406500
 40
0.000000
 41
0.000000
 42
0.000000
  0
VERTEX
  8
PIN_BOTTOM
 10
66.591180
 20
77.406500
 40
0.000000
 41
0.000000
 42
0.000000
  0
VERTEX
  8
PIN_BOTTOM
 10
66.591180
 20
76.357480
 40
0.000000
 41
0.000000
 42
0.000000
  0
SEQEND
  0
POLYLINE
  8
PIN_BOTTOM
 66
1
 70
1
 40
0.000000
 41
0.000000
 39
0.000000
  0
VERTEX
  8
PIN_BOTTOM
 10
66.692780
 20
77.858620
 40
0.000000
 41
0.000000
 42
0.000000
  0
VERTEX
  8
PIN_BOTTOM
 10
66.692780
 20
78.859380
 40
0.000000
 41
0.000000
 42
0.000000
  0
VERTEX
  8
PIN_BOTTOM
 10
65.643760
 20
78.859380
 40
0.000000
 41
0.000000
 42
0.000000
  0
VERTEX
  8
PIN_BOTTOM
 10
65.643760
 20
77.858620
 40
0.000000
 41
0.000000
 42
0.000000
  0
SEQEND
  0
POLYLINE
  8
PG_SILKSCREEN_BOTTOM
 66
1
 70
0
 40
0.000000
 41
0.000000
 39
0.000000
  0
VERTEX
  8
PG_SILKSCREEN_BOTTOM
 10
66.390520
 20
79.659480
 40
0.200660
 41
0.200660
 42
0.000000
  0
VERTEX
  8
PG_SILKSCREEN_BOTTOM
 10
66.390520
 20
79.121000
 40
0.200660
 41
0.200660
 42
0.000000
  0
SEQEND
  0
POLYLINE
  8
PG_SILKSCREEN_BOTTOM
 66
1
 70
0
 40
0.000000
 41
0.000000
 39
0.000000
  0
VERTEX
  8
PG_SILKSCREEN_BOTTOM
 10
68.991480
 20
77.058520
 40
0.200660
 41
0.200660
 42
0.000000
  0
VERTEX
  8
PG_SILKSCREEN_BOTTOM
 10
68.991480
 20
79.659480
 40
0.200660
 41
0.200660
 42
0.000000
  0
SEQEND
  0
POLYLINE
  8
PG_SILKSCREEN_BOTTOM
 66
1
 70
0
 40
0.000000
 41
0.000000
 39
0.000000
  0
VERTEX
  8
PG_SILKSCREEN_BOTTOM
 10
66.390520
 20
77.597000
 40
0.200660
 41
0.200660
 42
0.000000
  0
VERTEX
  8
PG_SILKSCREEN_BOTTOM
 10
66.390520
 20
77.058520
 40
0.200660
 41
0.200660
 42
0.000000
  0
SEQEND
  0
TEXT
  8
RE_SILKSCREEN_BOTTOM
 10
68.948300
 20
82.296000
 11
0.000000
 21
0.000000
 40
1.270000
 41
1.020000
 50
0.000000
  7
STANDARD
 71
2
 72
0
  1
J5
 73
0
  0
CIRCLE
  8
PIN_BOTTOM
 10
16.891000
 20
92.710000
 40
0.800100
  0
CIRCLE
  8
PIN_BOTTOM
 10
19.431000
 20
92.710000
 40
0.800100
  0
CIRCLE
  8
PIN_BOTTOM
 10
21.971000
 20
92.710000
 40
0.800100
  0
CIRCLE
  8
PIN_BOTTOM
 10
24.511000
 20
92.710000
 40
0.800100
  0
CIRCLE
  8
PIN_BOTTOM
 10
27.051000
 20
92.710000
 40
0.800100
  0
CIRCLE
  8
PIN_BOTTOM
 10
29.591000
 20
92.710000
 40
0.800100
  0
CIRCLE
  8
PIN_BOTTOM
 10
32.131000
 20
92.710000
 40
0.800100
  0
CIRCLE
  8
PIN_BOTTOM
 10
34.671000
 20
92.710000
 40
0.800100
  0
CIRCLE
  8
PIN_BOTTOM
 10
37.211000
 20
92.710000
 40
0.800100
  0
CIRCLE
  8
PIN_BOTTOM
 10
39.751000
 20
92.710000
 40
0.800100
  0
CIRCLE
  8
PIN_BOTTOM
 10
42.291000
 20
92.710000
 40
0.800100
  0
CIRCLE
  8
PIN_BOTTOM
 10
44.831000
 20
92.710000
 40
0.800100
  0
CIRCLE
  8
PIN_BOTTOM
 10
47.371000
 20
92.710000
 40
0.800100
  0
CIRCLE
  8
PIN_BOTTOM
 10
49.911000
 20
92.710000
 40
0.800100
  0
CIRCLE
  8
PIN_BOTTOM
 10
52.451000
 20
92.710000
 40
0.800100
  0
CIRCLE
  8
PIN_BOTTOM
 10
54.991000
 20
92.710000
 40
0.800100
  0
CIRCLE
  8
PIN_BOTTOM
 10
57.531000
 20
92.710000
 40
0.800100
  0
CIRCLE
  8
PIN_BOTTOM
 10
16.891000
 20
95.250000
 40
0.800100
  0
CIRCLE
  8
PIN_BOTTOM
 10
19.431000
 20
95.250000
 40
0.800100
  0
CIRCLE
  8
PIN_BOTTOM
 10
21.971000
 20
95.250000
 40
0.800100
  0
CIRCLE
  8
PIN_BOTTOM
 10
24.511000
 20
95.250000
 40
0.800100
  0
CIRCLE
  8
PIN_BOTTOM
 10
27.051000
 20
95.250000
 40
0.800100
  0
CIRCLE
  8
PIN_BOTTOM
 10
29.591000
 20
95.250000
 40
0.800100
  0
CIRCLE
  8
PIN_BOTTOM
 10
32.131000
 20
95.250000
 40
0.800100
  0
CIRCLE
  8
PIN_BOTTOM
 10
34.671000
 20
95.250000
 40
0.800100
  0
CIRCLE
  8
PIN_BOTTOM
 10
37.211000
 20
95.250000
 40
0.800100
  0
CIRCLE
  8
PIN_BOTTOM
 10
39.751000
 20
95.250000
 40
0.800100
  0
CIRCLE
  8
PIN_BOTTOM
 10
42.291000
 20
95.250000
 40
0.800100
  0
CIRCLE
  8
PIN_BOTTOM
 10
44.831000
 20
95.250000
 40
0.800100
  0
CIRCLE
  8
PIN_BOTTOM
 10
47.371000
 20
95.250000
 40
0.800100
  0
CIRCLE
  8
PIN_BOTTOM
 10
49.911000
 20
95.250000
 40
0.800100
  0
CIRCLE
  8
PIN_BOTTOM
 10
52.451000
 20
95.250000
 40
0.800100
  0
CIRCLE
  8
PIN_BOTTOM
 10
54.991000
 20
95.250000
 40
0.800100
  0
CIRCLE
  8
PIN_BOTTOM
 10
57.531000
 20
95.250000
 40
0.800100
  0
POLYLINE
  8
PIN_BOTTOM
 66
1
 70
1
 40
0.000000
 41
0.000000
 39
0.000000
  0
VERTEX
  8
PIN_BOTTOM
 10
61.887100
 20
27.089100
 40
0.000000
 41
0.000000
 42
0.000000
  0
VERTEX
  8
PIN_BOTTOM
 10
61.887100
 20
25.488900
 40
0.000000
 41
0.000000
 42
0.000000
  0
VERTEX
  8
PIN_BOTTOM
 10
60.286900
 20
25.488900
 40
0.000000
 41
0.000000
 42
0.000000
  0
VERTEX
  8
PIN_BOTTOM
 10
60.286900
 20
27.089100
 40
0.000000
 41
0.000000
 42
0.000000
  0
SEQEND
  0
CIRCLE
  8
PIN_BOTTOM
 10
58.547000
 20
26.289000
 40
0.800100
  0
POLYLINE
  8
PIN_BOTTOM
 66
1
 70
1
 40
0.000000
 41
0.000000
 39
0.000000
  0
VERTEX
  8
PIN_BOTTOM
 10
16.929100
 20
3.340100
 40
0.000000
 41
0.000000
 42
0.000000
  0
VERTEX
  8
PIN_BOTTOM
 10
16.929100
 20
1.739900
 40
0.000000
 41
0.000000
 42
0.000000
  0
VERTEX
  8
PIN_BOTTOM
 10
15.328900
 20
1.739900
 40
0.000000
 41
0.000000
 42
0.000000
  0
VERTEX
  8
PIN_BOTTOM
 10
15.328900
 20
3.340100
 40
0.000000
 41
0.000000
 42
0.000000
  0
SEQEND
  0
CIRCLE
  8
PIN_BOTTOM
 10
13.589000
 20
2.540000
 40
0.800100
  0
POLYLINE
  8
PIN_BOTTOM
 66
1
 70
1
 40
0.000000
 41
0.000000
 39
0.000000
  0
VERTEX
  8
PIN_BOTTOM
 10
48.653700
 20
13.474700
 40
0.000000
 41
0.000000
 42
0.000000
  0
VERTEX
  8
PIN_BOTTOM
 10
48.653700
 20
12.687300
 40
0.000000
 41
0.000000
 42
0.000000
  0
VERTEX
  8
PIN_BOTTOM
 10
49.568100
 20
12.687300
 40
0.000000
 41
0.000000
 42
0.000000
  0
VERTEX
  8
PIN_BOTTOM
 10
49.568100
 20
13.474700
 40
0.000000
 41
0.000000
 42
0.000000
  0
SEQEND
  0
POLYLINE
  8
PIN_BOTTOM
 66
1
 70
1
 40
0.000000
 41
0.000000
 39
0.000000
  0
VERTEX
  8
PIN_BOTTOM
 10
50.253900
 20
13.474700
 40
0.000000
 41
0.000000
 42
0.000000
  0
VERTEX
  8
PIN_BOTTOM
 10
50.253900
 20
12.687300
 40
0.000000
 41
0.000000
 42
0.000000
  0
VERTEX
  8
PIN_BOTTOM
 10
51.168300
 20
12.687300
 40
0.000000
 41
0.000000
 42
0.000000
  0
VERTEX
  8
PIN_BOTTOM
 10
51.168300
 20
13.474700
 40
0.000000
 41
0.000000
 42
0.000000
  0
SEQEND
  0
POLYLINE
  8
PG_SILKSCREEN_BOTTOM
 66
1
 70
0
 40
0.000000
 41
0.000000
 39
0.000000
  0
VERTEX
  8
PG_SILKSCREEN_BOTTOM
 10
48.387000
 20
12.446000
 40
0.127000
 41
0.127000
 42
0.000000
  0
VERTEX
  8
PG_SILKSCREEN_BOTTOM
 10
51.435000
 20
12.446000
 40
0.127000
 41
0.127000
 42
0.000000
  0
VERTEX
  8
PG_SILKSCREEN_BOTTOM
 10
51.435000
 20
13.716000
 40
0.127000
 41
0.127000
 42
0.000000
  0
VERTEX
  8
PG_SILKSCREEN_BOTTOM
 10
48.387000
 20
13.716000
 40
0.127000
 41
0.127000
 42
0.000000
  0
VERTEX
  8
PG_SILKSCREEN_BOTTOM
 10
48.387000
 20
12.446000
 40
0.127000
 41
0.127000
 42
0.000000
  0
SEQEND
  0
TEXT
  8
RE_SILKSCREEN_BOTTOM
 10
51.562000
 20
14.224000
 11
0.000000
 21
0.000000
 40
1.270000
 41
1.020000
 50
0.000000
  7
STANDARD
 71
2
 72
0
  1
R11
 73
0
  0
POLYLINE
  8
PIN_BOTTOM
 66
1
 70
1
 40
0.000000
 41
0.000000
 39
0.000000
  0
VERTEX
  8
PIN_BOTTOM
 10
61.568330
 20
78.759050
 40
0.000000
 41
0.000000
 42
0.000000
  0
VERTEX
  8
PIN_BOTTOM
 10
61.568330
 20
77.958950
 40
0.000000
 41
0.000000
 42
0.000000
  0
VERTEX
  8
PIN_BOTTOM
 10
62.368430
 20
77.958950
 40
0.000000
 41
0.000000
 42
0.000000
  0
VERTEX
  8
PIN_BOTTOM
 10
62.368430
 20
78.759050
 40
0.000000
 41
0.000000
 42
0.000000
  0
SEQEND
  0
POLYLINE
  8
PIN_BOTTOM
 66
1
 70
1
 40
0.000000
 41
0.000000
 39
0.000000
  0
VERTEX
  8
PIN_BOTTOM
 10
63.107570
 20
78.759050
 40
0.000000
 41
0.000000
 42
0.000000
  0
VERTEX
  8
PIN_BOTTOM
 10
63.107570
 20
77.958950
 40
0.000000
 41
0.000000
 42
0.000000
  0
VERTEX
  8
PIN_BOTTOM
 10
63.907670
 20
77.958950
 40
0.000000
 41
0.000000
 42
0.000000
  0
VERTEX
  8
PIN_BOTTOM
 10
63.907670
 20
78.759050
 40
0.000000
 41
0.000000
 42
0.000000
  0
SEQEND
  0
POLYLINE
  8
PG_SILKSCREEN_BOTTOM
 66
1
 70
0
 40
0.000000
 41
0.000000
 39
0.000000
  0
VERTEX
  8
PG_SILKSCREEN_BOTTOM
 10
61.341000
 20
78.994000
 40
0.127000
 41
0.127000
 42
0.000000
  0
VERTEX
  8
PG_SILKSCREEN_BOTTOM
 10
64.135000
 20
78.994000
 40
0.127000
 41
0.127000
 42
0.000000
  0
VERTEX
  8
PG_SILKSCREEN_BOTTOM
 10
64.135000
 20
77.724000
 40
0.127000
 41
0.127000
 42
0.000000
  0
VERTEX
  8
PG_SILKSCREEN_BOTTOM
 10
61.341000
 20
77.724000
 40
0.127000
 41
0.127000
 42
0.000000
  0
VERTEX
  8
PG_SILKSCREEN_BOTTOM
 10
61.341000
 20
78.994000
 40
0.127000
 41
0.127000
 42
0.000000
  0
SEQEND
  0
TEXT
  8
RE_SILKSCREEN_BOTTOM
 10
62.060667
 20
75.438000
 11
62.484000
 21
75.438000
 40
1.270000
 41
1.020000
 50
0.000000
  7
STANDARD
 71
2
 72
1
  1
L1
 73
0
  0
POLYLINE
  8
PIN_BOTTOM
 66
1
 70
1
 40
0.000000
 41
0.000000
 39
0.000000
  0
VERTEX
  8
PIN_BOTTOM
 10
60.538360
 20
85.990430
 40
0.000000
 41
0.000000
 42
0.000000
  0
VERTEX
  8
PIN_BOTTOM
 10
60.538360
 20
84.189570
 40
0.000000
 41
0.000000
 42
0.000000
  0
VERTEX
  8
PIN_BOTTOM
 10
61.838840
 20
84.189570
 40
0.000000
 41
0.000000
 42
0.000000
  0
VERTEX
  8
PIN_BOTTOM
 10
61.838840
 20
85.990430
 40
0.000000
 41
0.000000
 42
0.000000
  0
SEQEND
  0
POLYLINE
  8
PIN_BOTTOM
 66
1
 70
1
 40
0.000000
 41
0.000000
 39
0.000000
  0
VERTEX
  8
PIN_BOTTOM
 10
63.637160
 20
85.990430
 40
0.000000
 41
0.000000
 42
0.000000
  0
VERTEX
  8
PIN_BOTTOM
 10
63.637160
 20
84.189570
 40
0.000000
 41
0.000000
 42
0.000000
  0
VERTEX
  8
PIN_BOTTOM
 10
64.937640
 20
84.189570
 40
0.000000
 41
0.000000
 42
0.000000
  0
VERTEX
  8
PIN_BOTTOM
 10
64.937640
 20
85.990430
 40
0.000000
 41
0.000000
 42
0.000000
  0
SEQEND
  0
POLYLINE
  8
PG_SILKSCREEN_BOTTOM
 66
1
 70
0
 40
0.000000
 41
0.000000
 39
0.000000
  0
VERTEX
  8
PG_SILKSCREEN_BOTTOM
 10
62.537340
 20
84.289900
 40
0.127000
 41
0.127000
 42
0.000000
  0
VERTEX
  8
PG_SILKSCREEN_BOTTOM
 10
62.537340
 20
85.791040
 40
0.127000
 41
0.127000
 42
0.000000
  0
SEQEND
  0
POLYLINE
  8
PG_SILKSCREEN_BOTTOM
 66
1
 70
0
 40
0.000000
 41
0.000000
 39
0.000000
  0
VERTEX
  8
PG_SILKSCREEN_BOTTOM
 10
62.938660
 20
84.289900
 40
0.127000
 41
0.127000
 42
0.000000
  0
VERTEX
  8
PG_SILKSCREEN_BOTTOM
 10
62.938660
 20
85.791040
 40
0.127000
 41
0.127000
 42
0.000000
  0
SEQEND
  0
POLYLINE
  8
PG_SILKSCREEN_BOTTOM
 66
1
 70
0
 40
0.000000
 41
0.000000
 39
0.000000
  0
VERTEX
  8
PG_SILKSCREEN_BOTTOM
 10
60.071000
 20
83.820000
 40
0.127000
 41
0.127000
 42
0.000000
  0
VERTEX
  8
PG_SILKSCREEN_BOTTOM
 10
65.405000
 20
83.820000
 40
0.127000
 41
0.127000
 42
0.000000
  0
VERTEX
  8
PG_SILKSCREEN_BOTTOM
 10
65.405000
 20
86.360000
 40
0.127000
 41
0.127000
 42
0.000000
  0
VERTEX
  8
PG_SILKSCREEN_BOTTOM
 10
60.071000
 20
86.360000
 40
0.127000
 41
0.127000
 42
0.000000
  0
VERTEX
  8
PG_SILKSCREEN_BOTTOM
 10
60.071000
 20
83.820000
 40
0.127000
 41
0.127000
 42
0.000000
  0
SEQEND
  0
POLYLINE
  8
PG_SILKSCREEN_BOTTOM
 66
1
 70
0
 40
0.000000
 41
0.000000
 39
0.000000
  0
VERTEX
  8
PG_SILKSCREEN_BOTTOM
 10
59.436000
 20
84.963000
 40
0.127000
 41
0.127000
 42
0.000000
  0
VERTEX
  8
PG_SILKSCREEN_BOTTOM
 10
59.944000
 20
84.963000
 40
0.127000
 41
0.127000
 42
0.000000
  0
SEQEND
  0
POLYLINE
  8
PG_SILKSCREEN_BOTTOM
 66
1
 70
0
 40
0.000000
 41
0.000000
 39
0.000000
  0
VERTEX
  8
PG_SILKSCREEN_BOTTOM
 10
59.690000
 20
84.582000
 40
0.127000
 41
0.127000
 42
0.000000
  0
VERTEX
  8
PG_SILKSCREEN_BOTTOM
 10
59.690000
 20
85.344000
 40
0.127000
 41
0.127000
 42
0.000000
  0
SEQEND
  0
TEXT
  8
RE_SILKSCREEN_BOTTOM
 10
62.187667
 20
86.868000
 11
62.611000
 21
86.868000
 40
1.270000
 41
1.020000
 50
0.000000
  7
STANDARD
 71
2
 72
1
  1
C27
 73
0
  0
POLYLINE
  8
PIN_BOTTOM
 66
1
 70
1
 40
0.000000
 41
0.000000
 39
0.000000
  0
VERTEX
  8
PIN_BOTTOM
 10
31.778829
 20
47.338771
 40
0.000000
 41
0.000000
 42
0.000000
  0
VERTEX
  8
PIN_BOTTOM
 10
33.052229
 20
48.612171
 40
0.000000
 41
0.000000
 42
0.000000
  0
VERTEX
  8
PIN_BOTTOM
 10
32.132651
 20
49.531749
 40
0.000000
 41
0.000000
 42
0.000000
  0
VERTEX
  8
PIN_BOTTOM
 10
30.859251
 20
48.258349
 40
0.000000
 41
0.000000
 42
0.000000
  0
SEQEND
  0
POLYLINE
  8
PIN_BOTTOM
 66
1
 70
1
 40
0.000000
 41
0.000000
 39
0.000000
  0
VERTEX
  8
PIN_BOTTOM
 10
29.589349
 20
49.528251
 40
0.000000
 41
0.000000
 42
0.000000
  0
VERTEX
  8
PIN_BOTTOM
 10
30.862749
 20
50.801651
 40
0.000000
 41
0.000000
 42
0.000000
  0
VERTEX
  8
PIN_BOTTOM
 10
29.943171
 20
51.721229
 40
0.000000
 41
0.000000
 42
0.000000
  0
VERTEX
  8
PIN_BOTTOM
 10
28.669771
 20
50.447829
 40
0.000000
 41
0.000000
 42
0.000000
  0
SEQEND
  0
POLYLINE
  8
PG_SILKSCREEN_BOTTOM
 66
1
 70
0
 40
0.000000
 41
0.000000
 39
0.000000
  0
VERTEX
  8
PG_SILKSCREEN_BOTTOM
 10
31.569660
 20
49.954180
 40
0.127000
 41
0.127000
 42
0.000000
  0
VERTEX
  8
PG_SILKSCREEN_BOTTOM
 10
30.507940
 20
48.892460
 40
0.127000
 41
0.127000
 42
0.000000
  0
SEQEND
  0
POLYLINE
  8
PG_SILKSCREEN_BOTTOM
 66
1
 70
0
 40
0.000000
 41
0.000000
 39
0.000000
  0
VERTEX
  8
PG_SILKSCREEN_BOTTOM
 10
31.285180
 20
50.238660
 40
0.127000
 41
0.127000
 42
0.000000
  0
VERTEX
  8
PG_SILKSCREEN_BOTTOM
 10
30.223460
 20
49.176940
 40
0.127000
 41
0.127000
 42
0.000000
  0
SEQEND
  0
POLYLINE
  8
PG_SILKSCREEN_BOTTOM
 66
1
 70
0
 40
0.000000
 41
0.000000
 39
0.000000
  0
VERTEX
  8
PG_SILKSCREEN_BOTTOM
 10
33.644840
 20
48.541940
 40
0.127000
 41
0.127000
 42
0.000000
  0
VERTEX
  8
PG_SILKSCREEN_BOTTOM
 10
29.872940
 20
52.313840
 40
0.127000
 41
0.127000
 42
0.000000
  0
VERTEX
  8
PG_SILKSCREEN_BOTTOM
 10
28.077160
 20
50.518060
 40
0.127000
 41
0.127000
 42
0.000000
  0
VERTEX
  8
PG_SILKSCREEN_BOTTOM
 10
31.849060
 20
46.746160
 40
0.127000
 41
0.127000
 42
0.000000
  0
VERTEX
  8
PG_SILKSCREEN_BOTTOM
 10
33.644840
 20
48.541940
 40
0.127000
 41
0.127000
 42
0.000000
  0
SEQEND
  0
POLYLINE
  8
PG_SILKSCREEN_BOTTOM
 66
1
 70
0
 40
0.000000
 41
0.000000
 39
0.000000
  0
VERTEX
  8
PG_SILKSCREEN_BOTTOM
 10
32.651700
 20
46.268640
 40
0.127000
 41
0.127000
 42
0.000000
  0
VERTEX
  8
PG_SILKSCREEN_BOTTOM
 10
32.291020
 20
46.629320
 40
0.127000
 41
0.127000
 42
0.000000
  0
SEQEND
  0
POLYLINE
  8
PG_SILKSCREEN_BOTTOM
 66
1
 70
0
 40
0.000000
 41
0.000000
 39
0.000000
  0
VERTEX
  8
PG_SILKSCREEN_BOTTOM
 10
32.740600
 20
46.718220
 40
0.127000
 41
0.127000
 42
0.000000
  0
VERTEX
  8
PG_SILKSCREEN_BOTTOM
 10
32.202120
 20
46.179740
 40
0.127000
 41
0.127000
 42
0.000000
  0
SEQEND
  0
TEXT
  8
RE_SILKSCREEN_BOTTOM
 10
26.813087
 20
52.509420
 11
27.236420
 21
52.509420
 40
1.270000
 41
1.020000
 50
315.000000
  7
STANDARD
 71
2
 72
1
  1
C11
 73
0
  0
POLYLINE
  8
PIN_BOTTOM
 66
1
 70
1
 40
0.000000
 41
0.000000
 39
0.000000
  0
VERTEX
  8
PIN_BOTTOM
 10
33.785539
 20
50.228197
 40
0.000000
 41
0.000000
 42
0.000000
  0
VERTEX
  8
PIN_BOTTOM
 10
33.210803
 20
49.653461
 40
0.000000
 41
0.000000
 42
0.000000
  0
VERTEX
  8
PIN_BOTTOM
 10
33.839421
 20
49.024843
 40
0.000000
 41
0.000000
 42
0.000000
  0
VERTEX
  8
PIN_BOTTOM
 10
34.414157
 20
49.599579
 40
0.000000
 41
0.000000
 42
0.000000
  0
SEQEND
  0
POLYLINE
  8
PIN_BOTTOM
 66
1
 70
1
 40
0.000000
 41
0.000000
 39
0.000000
  0
VERTEX
  8
PIN_BOTTOM
 10
32.708579
 20
51.305157
 40
0.000000
 41
0.000000
 42
0.000000
  0
VERTEX
  8
PIN_BOTTOM
 10
32.133843
 20
50.730421
 40
0.000000
 41
0.000000
 42
0.000000
  0
VERTEX
  8
PIN_BOTTOM
 10
32.762461
 20
50.101803
 40
0.000000
 41
0.000000
 42
0.000000
  0
VERTEX
  8
PIN_BOTTOM
 10
33.337197
 20
50.676539
 40
0.000000
 41
0.000000
 42
0.000000
  0
SEQEND
  0
POLYLINE
  8
PG_SILKSCREEN_BOTTOM
 66
1
 70
0
 40
0.000000
 41
0.000000
 39
0.000000
  0
VERTEX
  8
PG_SILKSCREEN_BOTTOM
 10
33.004760
 20
49.537620
 40
0.127000
 41
0.127000
 42
0.000000
  0
VERTEX
  8
PG_SILKSCREEN_BOTTOM
 10
33.812480
 20
48.727360
 40
0.127000
 41
0.127000
 42
0.000000
  0
VERTEX
  8
PG_SILKSCREEN_BOTTOM
 10
34.711640
 20
49.626520
 40
0.127000
 41
0.127000
 42
0.000000
  0
VERTEX
  8
PG_SILKSCREEN_BOTTOM
 10
33.901380
 20
50.434240
 40
0.127000
 41
0.127000
 42
0.000000
  0
SEQEND
  0
POLYLINE
  8
PG_SILKSCREEN_BOTTOM
 66
1
 70
0
 40
0.000000
 41
0.000000
 39
0.000000
  0
VERTEX
  8
PG_SILKSCREEN_BOTTOM
 10
33.543240
 20
50.792380
 40
0.127000
 41
0.127000
 42
0.000000
  0
VERTEX
  8
PG_SILKSCREEN_BOTTOM
 10
32.735520
 20
51.602640
 40
0.127000
 41
0.127000
 42
0.000000
  0
VERTEX
  8
PG_SILKSCREEN_BOTTOM
 10
31.836360
 20
50.703480
 40
0.127000
 41
0.127000
 42
0.000000
  0
SEQEND
  0
POLYLINE
  8
PG_SILKSCREEN_BOTTOM
 66
1
 70
0
 40
0.000000
 41
0.000000
 39
0.000000
  0
VERTEX
  8
PG_SILKSCREEN_BOTTOM
 10
33.129220
 20
49.913540
 40
0.127000
 41
0.127000
 42
0.000000
  0
VERTEX
  8
PG_SILKSCREEN_BOTTOM
 10
33.543240
 20
50.327560
 40
0.127000
 41
0.127000
 42
0.000000
  0
SEQEND
  0
POLYLINE
  8
PG_SILKSCREEN_BOTTOM
 66
1
 70
0
 40
0.000000
 41
0.000000
 39
0.000000
  0
VERTEX
  8
PG_SILKSCREEN_BOTTOM
 10
33.004760
 20
50.040540
 40
0.127000
 41
0.127000
 42
0.000000
  0
VERTEX
  8
PG_SILKSCREEN_BOTTOM
 10
33.418780
 20
50.452020
 40
0.127000
 41
0.127000
 42
0.000000
  0
SEQEND
  0
POLYLINE
  8
PG_SILKSCREEN_BOTTOM
 66
1
 70
0
 40
0.000000
 41
0.000000
 39
0.000000
  0
VERTEX
  8
PG_SILKSCREEN_BOTTOM
 10
31.836360
 20
50.703480
 40
0.127000
 41
0.127000
 42
0.000000
  0
VERTEX
  8
PG_SILKSCREEN_BOTTOM
 10
32.646620
 20
49.895760
 40
0.127000
 41
0.127000
 42
0.000000
  0
SEQEND
  0
TEXT
  8
RE_SILKSCREEN_BOTTOM
 10
31.719520
 20
51.074320
 11
0.000000
 21
0.000000
 40
1.270000
 41
1.020000
 50
315.000000
  7
STANDARD
 71
2
 72
0
  1
C6
 73
0
  0
POLYLINE
  8
PIN_BOTTOM
 66
1
 70
1
 40
0.000000
 41
0.000000
 39
0.000000
  0
VERTEX
  8
PIN_BOTTOM
 10
39.179803
 20
53.724539
 40
0.000000
 41
0.000000
 42
0.000000
  0
VERTEX
  8
PIN_BOTTOM
 10
39.754539
 20
53.149803
 40
0.000000
 41
0.000000
 42
0.000000
  0
VERTEX
  8
PIN_BOTTOM
 10
40.383157
 20
53.778421
 40
0.000000
 41
0.000000
 42
0.000000
  0
VERTEX
  8
PIN_BOTTOM
 10
39.808421
 20
54.353157
 40
0.000000
 41
0.000000
 42
0.000000
  0
SEQEND
  0
POLYLINE
  8
PIN_BOTTOM
 66
1
 70
1
 40
0.000000
 41
0.000000
 39
0.000000
  0
VERTEX
  8
PIN_BOTTOM
 10
38.102843
 20
52.647579
 40
0.000000
 41
0.000000
 42
0.000000
  0
VERTEX
  8
PIN_BOTTOM
 10
38.677579
 20
52.072843
 40
0.000000
 41
0.000000
 42
0.000000
  0
VERTEX
  8
PIN_BOTTOM
 10
39.306197
 20
52.701461
 40
0.000000
 41
0.000000
 42
0.000000
  0
VERTEX
  8
PIN_BOTTOM
 10
38.731461
 20
53.276197
 40
0.000000
 41
0.000000
 42
0.000000
  0
SEQEND
  0
POLYLINE
  8
PG_SILKSCREEN_BOTTOM
 66
1
 70
0
 40
0.000000
 41
0.000000
 39
0.000000
  0
VERTEX
  8
PG_SILKSCREEN_BOTTOM
 10
39.870380
 20
52.943760
 40
0.127000
 41
0.127000
 42
0.000000
  0
VERTEX
  8
PG_SILKSCREEN_BOTTOM
 10
40.680640
 20
53.751480
 40
0.127000
 41
0.127000
 42
0.000000
  0
VERTEX
  8
PG_SILKSCREEN_BOTTOM
 10
39.781480
 20
54.650640
 40
0.127000
 41
0.127000
 42
0.000000
  0
VERTEX
  8
PG_SILKSCREEN_BOTTOM
 10
38.973760
 20
53.840380
 40
0.127000
 41
0.127000
 42
0.000000
  0
SEQEND
  0
POLYLINE
  8
PG_SILKSCREEN_BOTTOM
 66
1
 70
0
 40
0.000000
 41
0.000000
 39
0.000000
  0
VERTEX
  8
PG_SILKSCREEN_BOTTOM
 10
38.615620
 20
53.482240
 40
0.127000
 41
0.127000
 42
0.000000
  0
VERTEX
  8
PG_SILKSCREEN_BOTTOM
 10
37.805360
 20
52.674520
 40
0.127000
 41
0.127000
 42
0.000000
  0
VERTEX
  8
PG_SILKSCREEN_BOTTOM
 10
38.704520
 20
51.775360
 40
0.127000
 41
0.127000
 42
0.000000
  0
SEQEND
  0
POLYLINE
  8
PG_SILKSCREEN_BOTTOM
 66
1
 70
0
 40
0.000000
 41
0.000000
 39
0.000000
  0
VERTEX
  8
PG_SILKSCREEN_BOTTOM
 10
39.494460
 20
53.068220
 40
0.127000
 41
0.127000
 42
0.000000
  0
VERTEX
  8
PG_SILKSCREEN_BOTTOM
 10
39.080440
 20
53.482240
 40
0.127000
 41
0.127000
 42
0.000000
  0
SEQEND
  0
POLYLINE
  8
PG_SILKSCREEN_BOTTOM
 66
1
 70
0
 40
0.000000
 41
0.000000
 39
0.000000
  0
VERTEX
  8
PG_SILKSCREEN_BOTTOM
 10
39.367460
 20
52.943760
 40
0.127000
 41
0.127000
 42
0.000000
  0
VERTEX
  8
PG_SILKSCREEN_BOTTOM
 10
38.955980
 20
53.357780
 40
0.127000
 41
0.127000
 42
0.000000
  0
SEQEND
  0
POLYLINE
  8
PG_SILKSCREEN_BOTTOM
 66
1
 70
0
 40
0.000000
 41
0.000000
 39
0.000000
  0
VERTEX
  8
PG_SILKSCREEN_BOTTOM
 10
38.704520
 20
51.775360
 40
0.127000
 41
0.127000
 42
0.000000
  0
VERTEX
  8
PG_SILKSCREEN_BOTTOM
 10
39.512240
 20
52.585620
 40
0.127000
 41
0.127000
 42
0.000000
  0
SEQEND
  0
TEXT
  8
RE_SILKSCREEN_BOTTOM
 10
40.990520
 20
50.568860
 11
0.000000
 21
0.000000
 40
1.270000
 41
1.020000
 50
315.000000
  7
STANDARD
 71
2
 72
0
  1
C7
 73
0
  0
POLYLINE
  8
PIN_BOTTOM
 66
1
 70
1
 40
0.000000
 41
0.000000
 39
0.000000
  0
VERTEX
  8
PIN_BOTTOM
 10
42.481197
 20
56.003461
 40
0.000000
 41
0.000000
 42
0.000000
  0
VERTEX
  8
PIN_BOTTOM
 10
41.906461
 20
56.578197
 40
0.000000
 41
0.000000
 42
0.000000
  0
VERTEX
  8
PIN_BOTTOM
 10
41.277843
 20
55.949579
 40
0.000000
 41
0.000000
 42
0.000000
  0
VERTEX
  8
PIN_BOTTOM
 10
41.852579
 20
55.374843
 40
0.000000
 41
0.000000
 42
0.000000
  0
SEQEND
  0
POLYLINE
  8
PIN_BOTTOM
 66
1
 70
1
 40
0.000000
 41
0.000000
 39
0.000000
  0
VERTEX
  8
PIN_BOTTOM
 10
43.558157
 20
57.080421
 40
0.000000
 41
0.000000
 42
0.000000
  0
VERTEX
  8
PIN_BOTTOM
 10
42.983421
 20
57.655157
 40
0.000000
 41
0.000000
 42
0.000000
  0
VERTEX
  8
PIN_BOTTOM
 10
42.354803
 20
57.026539
 40
0.000000
 41
0.000000
 42
0.000000
  0
VERTEX
  8
PIN_BOTTOM
 10
42.929539
 20
56.451803
 40
0.000000
 41
0.000000
 42
0.000000
  0
SEQEND
  0
POLYLINE
  8
PG_SILKSCREEN_BOTTOM
 66
1
 70
0
 40
0.000000
 41
0.000000
 39
0.000000
  0
VERTEX
  8
PG_SILKSCREEN_BOTTOM
 10
41.790620
 20
56.784240
 40
0.127000
 41
0.127000
 42
0.000000
  0
VERTEX
  8
PG_SILKSCREEN_BOTTOM
 10
40.980360
 20
55.976520
 40
0.127000
 41
0.127000
 42
0.000000
  0
VERTEX
  8
PG_SILKSCREEN_BOTTOM
 10
41.879520
 20
55.077360
 40
0.127000
 41
0.127000
 42
0.000000
  0
VERTEX
  8
PG_SILKSCREEN_BOTTOM
 10
42.687240
 20
55.887620
 40
0.127000
 41
0.127000
 42
0.000000
  0
SEQEND
  0
POLYLINE
  8
PG_SILKSCREEN_BOTTOM
 66
1
 70
0
 40
0.000000
 41
0.000000
 39
0.000000
  0
VERTEX
  8
PG_SILKSCREEN_BOTTOM
 10
43.045380
 20
56.245760
 40
0.127000
 41
0.127000
 42
0.000000
  0
VERTEX
  8
PG_SILKSCREEN_BOTTOM
 10
43.855640
 20
57.053480
 40
0.127000
 41
0.127000
 42
0.000000
  0
VERTEX
  8
PG_SILKSCREEN_BOTTOM
 10
42.956480
 20
57.952640
 40
0.127000
 41
0.127000
 42
0.000000
  0
SEQEND
  0
POLYLINE
  8
PG_SILKSCREEN_BOTTOM
 66
1
 70
0
 40
0.000000
 41
0.000000
 39
0.000000
  0
VERTEX
  8
PG_SILKSCREEN_BOTTOM
 10
42.166540
 20
56.659780
 40
0.127000
 41
0.127000
 42
0.000000
  0
VERTEX
  8
PG_SILKSCREEN_BOTTOM
 10
42.580560
 20
56.245760
 40
0.127000
 41
0.127000
 42
0.000000
  0
SEQEND
  0
POLYLINE
  8
PG_SILKSCREEN_BOTTOM
 66
1
 70
0
 40
0.000000
 41
0.000000
 39
0.000000
  0
VERTEX
  8
PG_SILKSCREEN_BOTTOM
 10
42.293540
 20
56.784240
 40
0.127000
 41
0.127000
 42
0.000000
  0
VERTEX
  8
PG_SILKSCREEN_BOTTOM
 10
42.705020
 20
56.370220
 40
0.127000
 41
0.127000
 42
0.000000
  0
SEQEND
  0
POLYLINE
  8
PG_SILKSCREEN_BOTTOM
 66
1
 70
0
 40
0.000000
 41
0.000000
 39
0.000000
  0
VERTEX
  8
PG_SILKSCREEN_BOTTOM
 10
42.956480
 20
57.952640
 40
0.127000
 41
0.127000
 42
0.000000
  0
VERTEX
  8
PG_SILKSCREEN_BOTTOM
 10
42.148760
 20
57.142380
 40
0.127000
 41
0.127000
 42
0.000000
  0
SEQEND
  0
TEXT
  8
RE_SILKSCREEN_BOTTOM
 10
44.292520
 20
53.743860
 11
0.000000
 21
0.000000
 40
1.270000
 41
1.020000
 50
315.000000
  7
STANDARD
 71
2
 72
0
  1
C8
 73
0
  0
POLYLINE
  8
PIN_BOTTOM
 66
1
 70
1
 40
0.000000
 41
0.000000
 39
0.000000
  0
VERTEX
  8
PIN_BOTTOM
 10
61.150500
 20
82.524600
 40
0.000000
 41
0.000000
 42
0.000000
  0
VERTEX
  8
PIN_BOTTOM
 10
61.150500
 20
83.337400
 40
0.000000
 41
0.000000
 42
0.000000
  0
VERTEX
  8
PIN_BOTTOM
 10
60.261500
 20
83.337400
 40
0.000000
 41
0.000000
 42
0.000000
  0
VERTEX
  8
PIN_BOTTOM
 10
60.261500
 20
82.524600
 40
0.000000
 41
0.000000
 42
0.000000
  0
SEQEND
  0
POLYLINE
  8
PIN_BOTTOM
 66
1
 70
1
 40
0.000000
 41
0.000000
 39
0.000000
  0
VERTEX
  8
PIN_BOTTOM
 10
62.674500
 20
82.524600
 40
0.000000
 41
0.000000
 42
0.000000
  0
VERTEX
  8
PIN_BOTTOM
 10
62.674500
 20
83.337400
 40
0.000000
 41
0.000000
 42
0.000000
  0
VERTEX
  8
PIN_BOTTOM
 10
61.785500
 20
83.337400
 40
0.000000
 41
0.000000
 42
0.000000
  0
VERTEX
  8
PIN_BOTTOM
 10
61.785500
 20
82.524600
 40
0.000000
 41
0.000000
 42
0.000000
  0
SEQEND
  0
POLYLINE
  8
PG_SILKSCREEN_BOTTOM
 66
1
 70
0
 40
0.000000
 41
0.000000
 39
0.000000
  0
VERTEX
  8
PG_SILKSCREEN_BOTTOM
 10
61.214000
 20
83.566000
 40
0.127000
 41
0.127000
 42
0.000000
  0
VERTEX
  8
PG_SILKSCREEN_BOTTOM
 10
60.071000
 20
83.566000
 40
0.127000
 41
0.127000
 42
0.000000
  0
VERTEX
  8
PG_SILKSCREEN_BOTTOM
 10
60.071000
 20
82.296000
 40
0.127000
 41
0.127000
 42
0.000000
  0
VERTEX
  8
PG_SILKSCREEN_BOTTOM
 10
61.214000
 20
82.296000
 40
0.127000
 41
0.127000
 42
0.000000
  0
SEQEND
  0
POLYLINE
  8
PG_SILKSCREEN_BOTTOM
 66
1
 70
0
 40
0.000000
 41
0.000000
 39
0.000000
  0
VERTEX
  8
PG_SILKSCREEN_BOTTOM
 10
61.722000
 20
82.296000
 40
0.127000
 41
0.127000
 42
0.000000
  0
VERTEX
  8
PG_SILKSCREEN_BOTTOM
 10
62.865000
 20
82.296000
 40
0.127000
 41
0.127000
 42
0.000000
  0
VERTEX
  8
PG_SILKSCREEN_BOTTOM
 10
62.865000
 20
83.566000
 40
0.127000
 41
0.127000
 42
0.000000
  0
SEQEND
  0
POLYLINE
  8
PG_SILKSCREEN_BOTTOM
 66
1
 70
0
 40
0.000000
 41
0.000000
 39
0.000000
  0
VERTEX
  8
PG_SILKSCREEN_BOTTOM
 10
61.391800
 20
83.210400
 40
0.127000
 41
0.127000
 42
0.000000
  0
VERTEX
  8
PG_SILKSCREEN_BOTTOM
 10
61.391800
 20
82.626200
 40
0.127000
 41
0.127000
 42
0.000000
  0
SEQEND
  0
POLYLINE
  8
PG_SILKSCREEN_BOTTOM
 66
1
 70
0
 40
0.000000
 41
0.000000
 39
0.000000
  0
VERTEX
  8
PG_SILKSCREEN_BOTTOM
 10
61.569600
 20
83.210400
 40
0.127000
 41
0.127000
 42
0.000000
  0
VERTEX
  8
PG_SILKSCREEN_BOTTOM
 10
61.569600
 20
82.626200
 40
0.127000
 41
0.127000
 42
0.000000
  0
SEQEND
  0
POLYLINE
  8
PG_SILKSCREEN_BOTTOM
 66
1
 70
0
 40
0.000000
 41
0.000000
 39
0.000000
  0
VERTEX
  8
PG_SILKSCREEN_BOTTOM
 10
62.865000
 20
83.566000
 40
0.127000
 41
0.127000
 42
0.000000
  0
VERTEX
  8
PG_SILKSCREEN_BOTTOM
 10
61.722000
 20
83.566000
 40
0.127000
 41
0.127000
 42
0.000000
  0
SEQEND
  0
TEXT
  8
RE_SILKSCREEN_BOTTOM
 10
63.373000
 20
80.772000
 11
0.000000
 21
0.000000
 40
1.270000
 41
1.020000
 50
0.000000
  7
STANDARD
 71
2
 72
0
  1
C26
 73
0
  0
POLYLINE
  8
PIN_BOTTOM
 66
1
 70
1
 40
0.000000
 41
0.000000
 39
0.000000
  0
VERTEX
  8
PIN_BOTTOM
 10
64.363600
 20
79.438500
 40
0.000000
 41
0.000000
 42
0.000000
  0
VERTEX
  8
PIN_BOTTOM
 10
65.176400
 20
79.438500
 40
0.000000
 41
0.000000
 42
0.000000
  0
VERTEX
  8
PIN_BOTTOM
 10
65.176400
 20
80.327500
 40
0.000000
 41
0.000000
 42
0.000000
  0
VERTEX
  8
PIN_BOTTOM
 10
64.363600
 20
80.327500
 40
0.000000
 41
0.000000
 42
0.000000
  0
SEQEND
  0
POLYLINE
  8
PIN_BOTTOM
 66
1
 70
1
 40
0.000000
 41
0.000000
 39
0.000000
  0
VERTEX
  8
PIN_BOTTOM
 10
64.363600
 20
77.914500
 40
0.000000
 41
0.000000
 42
0.000000
  0
VERTEX
  8
PIN_BOTTOM
 10
65.176400
 20
77.914500
 40
0.000000
 41
0.000000
 42
0.000000
  0
VERTEX
  8
PIN_BOTTOM
 10
65.176400
 20
78.803500
 40
0.000000
 41
0.000000
 42
0.000000
  0
VERTEX
  8
PIN_BOTTOM
 10
64.363600
 20
78.803500
 40
0.000000
 41
0.000000
 42
0.000000
  0
SEQEND
  0
POLYLINE
  8
PG_SILKSCREEN_BOTTOM
 66
1
 70
0
 40
0.000000
 41
0.000000
 39
0.000000
  0
VERTEX
  8
PG_SILKSCREEN_BOTTOM
 10
65.405000
 20
79.375000
 40
0.127000
 41
0.127000
 42
0.000000
  0
VERTEX
  8
PG_SILKSCREEN_BOTTOM
 10
65.405000
 20
80.518000
 40
0.127000
 41
0.127000
 42
0.000000
  0
VERTEX
  8
PG_SILKSCREEN_BOTTOM
 10
64.135000
 20
80.518000
 40
0.127000
 41
0.127000
 42
0.000000
  0
VERTEX
  8
PG_SILKSCREEN_BOTTOM
 10
64.135000
 20
79.375000
 40
0.127000
 41
0.127000
 42
0.000000
  0
SEQEND
  0
POLYLINE
  8
PG_SILKSCREEN_BOTTOM
 66
1
 70
0
 40
0.000000
 41
0.000000
 39
0.000000
  0
VERTEX
  8
PG_SILKSCREEN_BOTTOM
 10
64.135000
 20
78.867000
 40
0.127000
 41
0.127000
 42
0.000000
  0
VERTEX
  8
PG_SILKSCREEN_BOTTOM
 10
64.135000
 20
77.724000
 40
0.127000
 41
0.127000
 42
0.000000
  0
VERTEX
  8
PG_SILKSCREEN_BOTTOM
 10
65.405000
 20
77.724000
 40
0.127000
 41
0.127000
 42
0.000000
  0
SEQEND
  0
POLYLINE
  8
PG_SILKSCREEN_BOTTOM
 66
1
 70
0
 40
0.000000
 41
0.000000
 39
0.000000
  0
VERTEX
  8
PG_SILKSCREEN_BOTTOM
 10
65.049400
 20
79.197200
 40
0.127000
 41
0.127000
 42
0.000000
  0
VERTEX
  8
PG_SILKSCREEN_BOTTOM
 10
64.465200
 20
79.197200
 40
0.127000
 41
0.127000
 42
0.000000
  0
SEQEND
  0
POLYLINE
  8
PG_SILKSCREEN_BOTTOM
 66
1
 70
0
 40
0.000000
 41
0.000000
 39
0.000000
  0
VERTEX
  8
PG_SILKSCREEN_BOTTOM
 10
65.049400
 20
79.019400
 40
0.127000
 41
0.127000
 42
0.000000
  0
VERTEX
  8
PG_SILKSCREEN_BOTTOM
 10
64.465200
 20
79.019400
 40
0.127000
 41
0.127000
 42
0.000000
  0
SEQEND
  0
POLYLINE
  8
PG_SILKSCREEN_BOTTOM
 66
1
 70
0
 40
0.000000
 41
0.000000
 39
0.000000
  0
VERTEX
  8
PG_SILKSCREEN_BOTTOM
 10
65.405000
 20
77.724000
 40
0.127000
 41
0.127000
 42
0.000000
  0
VERTEX
  8
PG_SILKSCREEN_BOTTOM
 10
65.405000
 20
78.867000
 40
0.127000
 41
0.127000
 42
0.000000
  0
SEQEND
  0
TEXT
  8
RE_SILKSCREEN_BOTTOM
 10
64.135000
 20
74.041000
 11
0.000000
 21
0.000000
 40
1.270000
 41
1.020000
 50
270.000000
  7
STANDARD
 71
2
 72
0
  1
C25
 73
0
  0
POLYLINE
  8
PIN_BOTTOM
 66
1
 70
1
 40
0.000000
 41
0.000000
 39
0.000000
  0
VERTEX
  8
PIN_BOTTOM
 10
60.299600
 20
79.438500
 40
0.000000
 41
0.000000
 42
0.000000
  0
VERTEX
  8
PIN_BOTTOM
 10
61.112400
 20
79.438500
 40
0.000000
 41
0.000000
 42
0.000000
  0
VERTEX
  8
PIN_BOTTOM
 10
61.112400
 20
80.327500
 40
0.000000
 41
0.000000
 42
0.000000
  0
VERTEX
  8
PIN_BOTTOM
 10
60.299600
 20
80.327500
 40
0.000000
 41
0.000000
 42
0.000000
  0
SEQEND
  0
POLYLINE
  8
PIN_BOTTOM
 66
1
 70
1
 40
0.000000
 41
0.000000
 39
0.000000
  0
VERTEX
  8
PIN_BOTTOM
 10
60.299600
 20
77.914500
 40
0.000000
 41
0.000000
 42
0.000000
  0
VERTEX
  8
PIN_BOTTOM
 10
61.112400
 20
77.914500
 40
0.000000
 41
0.000000
 42
0.000000
  0
VERTEX
  8
PIN_BOTTOM
 10
61.112400
 20
78.803500
 40
0.000000
 41
0.000000
 42
0.000000
  0
VERTEX
  8
PIN_BOTTOM
 10
60.299600
 20
78.803500
 40
0.000000
 41
0.000000
 42
0.000000
  0
SEQEND
  0
POLYLINE
  8
PG_SILKSCREEN_BOTTOM
 66
1
 70
0
 40
0.000000
 41
0.000000
 39
0.000000
  0
VERTEX
  8
PG_SILKSCREEN_BOTTOM
 10
61.341000
 20
79.375000
 40
0.127000
 41
0.127000
 42
0.000000
  0
VERTEX
  8
PG_SILKSCREEN_BOTTOM
 10
61.341000
 20
80.518000
 40
0.127000
 41
0.127000
 42
0.000000
  0
VERTEX
  8
PG_SILKSCREEN_BOTTOM
 10
60.071000
 20
80.518000
 40
0.127000
 41
0.127000
 42
0.000000
  0
VERTEX
  8
PG_SILKSCREEN_BOTTOM
 10
60.071000
 20
79.375000
 40
0.127000
 41
0.127000
 42
0.000000
  0
SEQEND
  0
POLYLINE
  8
PG_SILKSCREEN_BOTTOM
 66
1
 70
0
 40
0.000000
 41
0.000000
 39
0.000000
  0
VERTEX
  8
PG_SILKSCREEN_BOTTOM
 10
60.071000
 20
78.867000
 40
0.127000
 41
0.127000
 42
0.000000
  0
VERTEX
  8
PG_SILKSCREEN_BOTTOM
 10
60.071000
 20
77.724000
 40
0.127000
 41
0.127000
 42
0.000000
  0
VERTEX
  8
PG_SILKSCREEN_BOTTOM
 10
61.341000
 20
77.724000
 40
0.127000
 41
0.127000
 42
0.000000
  0
SEQEND
  0
POLYLINE
  8
PG_SILKSCREEN_BOTTOM
 66
1
 70
0
 40
0.000000
 41
0.000000
 39
0.000000
  0
VERTEX
  8
PG_SILKSCREEN_BOTTOM
 10
60.985400
 20
79.197200
 40
0.127000
 41
0.127000
 42
0.000000
  0
VERTEX
  8
PG_SILKSCREEN_BOTTOM
 10
60.401200
 20
79.197200
 40
0.127000
 41
0.127000
 42
0.000000
  0
SEQEND
  0
POLYLINE
  8
PG_SILKSCREEN_BOTTOM
 66
1
 70
0
 40
0.000000
 41
0.000000
 39
0.000000
  0
VERTEX
  8
PG_SILKSCREEN_BOTTOM
 10
60.985400
 20
79.019400
 40
0.127000
 41
0.127000
 42
0.000000
  0
VERTEX
  8
PG_SILKSCREEN_BOTTOM
 10
60.401200
 20
79.019400
 40
0.127000
 41
0.127000
 42
0.000000
  0
SEQEND
  0
POLYLINE
  8
PG_SILKSCREEN_BOTTOM
 66
1
 70
0
 40
0.000000
 41
0.000000
 39
0.000000
  0
VERTEX
  8
PG_SILKSCREEN_BOTTOM
 10
61.341000
 20
77.724000
 40
0.127000
 41
0.127000
 42
0.000000
  0
VERTEX
  8
PG_SILKSCREEN_BOTTOM
 10
61.341000
 20
78.867000
 40
0.127000
 41
0.127000
 42
0.000000
  0
SEQEND
  0
TEXT
  8
RE_SILKSCREEN_BOTTOM
 10
59.944000
 20
73.914000
 11
0.000000
 21
0.000000
 40
1.270000
 41
1.020000
 50
270.000000
  7
STANDARD
 71
2
 72
0
  1
C24
 73
0
  0
POLYLINE
  8
PIN_BOTTOM
 66
1
 70
1
 40
0.000000
 41
0.000000
 39
0.000000
  0
VERTEX
  8
PIN_BOTTOM
 10
58.737500
 20
17.170400
 40
0.000000
 41
0.000000
 42
0.000000
  0
VERTEX
  8
PIN_BOTTOM
 10
58.737500
 20
16.357600
 40
0.000000
 41
0.000000
 42
0.000000
  0
VERTEX
  8
PIN_BOTTOM
 10
59.626500
 20
16.357600
 40
0.000000
 41
0.000000
 42
0.000000
  0
VERTEX
  8
PIN_BOTTOM
 10
59.626500
 20
17.170400
 40
0.000000
 41
0.000000
 42
0.000000
  0
SEQEND
  0
POLYLINE
  8
PIN_BOTTOM
 66
1
 70
1
 40
0.000000
 41
0.000000
 39
0.000000
  0
VERTEX
  8
PIN_BOTTOM
 10
57.213500
 20
17.170400
 40
0.000000
 41
0.000000
 42
0.000000
  0
VERTEX
  8
PIN_BOTTOM
 10
57.213500
 20
16.357600
 40
0.000000
 41
0.000000
 42
0.000000
  0
VERTEX
  8
PIN_BOTTOM
 10
58.102500
 20
16.357600
 40
0.000000
 41
0.000000
 42
0.000000
  0
VERTEX
  8
PIN_BOTTOM
 10
58.102500
 20
17.170400
 40
0.000000
 41
0.000000
 42
0.000000
  0
SEQEND
  0
POLYLINE
  8
PG_SILKSCREEN_BOTTOM
 66
1
 70
0
 40
0.000000
 41
0.000000
 39
0.000000
  0
VERTEX
  8
PG_SILKSCREEN_BOTTOM
 10
58.674000
 20
16.129000
 40
0.127000
 41
0.127000
 42
0.000000
  0
VERTEX
  8
PG_SILKSCREEN_BOTTOM
 10
59.817000
 20
16.129000
 40
0.127000
 41
0.127000
 42
0.000000
  0
VERTEX
  8
PG_SILKSCREEN_BOTTOM
 10
59.817000
 20
17.399000
 40
0.127000
 41
0.127000
 42
0.000000
  0
VERTEX
  8
PG_SILKSCREEN_BOTTOM
 10
58.674000
 20
17.399000
 40
0.127000
 41
0.127000
 42
0.000000
  0
SEQEND
  0
POLYLINE
  8
PG_SILKSCREEN_BOTTOM
 66
1
 70
0
 40
0.000000
 41
0.000000
 39
0.000000
  0
VERTEX
  8
PG_SILKSCREEN_BOTTOM
 10
58.166000
 20
17.399000
 40
0.127000
 41
0.127000
 42
0.000000
  0
VERTEX
  8
PG_SILKSCREEN_BOTTOM
 10
57.023000
 20
17.399000
 40
0.127000
 41
0.127000
 42
0.000000
  0
VERTEX
  8
PG_SILKSCREEN_BOTTOM
 10
57.023000
 20
16.129000
 40
0.127000
 41
0.127000
 42
0.000000
  0
SEQEND
  0
POLYLINE
  8
PG_SILKSCREEN_BOTTOM
 66
1
 70
0
 40
0.000000
 41
0.000000
 39
0.000000
  0
VERTEX
  8
PG_SILKSCREEN_BOTTOM
 10
58.496200
 20
16.484600
 40
0.127000
 41
0.127000
 42
0.000000
  0
VERTEX
  8
PG_SILKSCREEN_BOTTOM
 10
58.496200
 20
17.068800
 40
0.127000
 41
0.127000
 42
0.000000
  0
SEQEND
  0
POLYLINE
  8
PG_SILKSCREEN_BOTTOM
 66
1
 70
0
 40
0.000000
 41
0.000000
 39
0.000000
  0
VERTEX
  8
PG_SILKSCREEN_BOTTOM
 10
58.318400
 20
16.484600
 40
0.127000
 41
0.127000
 42
0.000000
  0
VERTEX
  8
PG_SILKSCREEN_BOTTOM
 10
58.318400
 20
17.068800
 40
0.127000
 41
0.127000
 42
0.000000
  0
SEQEND
  0
POLYLINE
  8
PG_SILKSCREEN_BOTTOM
 66
1
 70
0
 40
0.000000
 41
0.000000
 39
0.000000
  0
VERTEX
  8
PG_SILKSCREEN_BOTTOM
 10
57.023000
 20
16.129000
 40
0.127000
 41
0.127000
 42
0.000000
  0
VERTEX
  8
PG_SILKSCREEN_BOTTOM
 10
58.166000
 20
16.129000
 40
0.127000
 41
0.127000
 42
0.000000
  0
SEQEND
  0
TEXT
  8
RE_SILKSCREEN_BOTTOM
 10
60.198000
 20
17.907000
 11
0.000000
 21
0.000000
 40
1.270000
 41
1.020000
 50
0.000000
  7
STANDARD
 71
2
 72
0
  1
C16
 73
0
  0
POLYLINE
  8
PIN_BOTTOM
 66
1
 70
1
 40
0.000000
 41
0.000000
 39
0.000000
  0
VERTEX
  8
PIN_BOTTOM
 10
43.430461
 20
61.404803
 40
0.000000
 41
0.000000
 42
0.000000
  0
VERTEX
  8
PIN_BOTTOM
 10
44.005197
 20
61.979539
 40
0.000000
 41
0.000000
 42
0.000000
  0
VERTEX
  8
PIN_BOTTOM
 10
43.376579
 20
62.608157
 40
0.000000
 41
0.000000
 42
0.000000
  0
VERTEX
  8
PIN_BOTTOM
 10
42.801843
 20
62.033421
 40
0.000000
 41
0.000000
 42
0.000000
  0
SEQEND
  0
POLYLINE
  8
PIN_BOTTOM
 66
1
 70
1
 40
0.000000
 41
0.000000
 39
0.000000
  0
VERTEX
  8
PIN_BOTTOM
 10
44.507421
 20
60.327843
 40
0.000000
 41
0.000000
 42
0.000000
  0
VERTEX
  8
PIN_BOTTOM
 10
45.082157
 20
60.902579
 40
0.000000
 41
0.000000
 42
0.000000
  0
VERTEX
  8
PIN_BOTTOM
 10
44.453539
 20
61.531197
 40
0.000000
 41
0.000000
 42
0.000000
  0
VERTEX
  8
PIN_BOTTOM
 10
43.878803
 20
60.956461
 40
0.000000
 41
0.000000
 42
0.000000
  0
SEQEND
  0
POLYLINE
  8
PG_SILKSCREEN_BOTTOM
 66
1
 70
0
 40
0.000000
 41
0.000000
 39
0.000000
  0
VERTEX
  8
PG_SILKSCREEN_BOTTOM
 10
44.211240
 20
62.095380
 40
0.127000
 41
0.127000
 42
0.000000
  0
VERTEX
  8
PG_SILKSCREEN_BOTTOM
 10
43.403520
 20
62.905640
 40
0.127000
 41
0.127000
 42
0.000000
  0
VERTEX
  8
PG_SILKSCREEN_BOTTOM
 10
42.504360
 20
62.006480
 40
0.127000
 41
0.127000
 42
0.000000
  0
VERTEX
  8
PG_SILKSCREEN_BOTTOM
 10
43.314620
 20
61.198760
 40
0.127000
 41
0.127000
 42
0.000000
  0
SEQEND
  0
POLYLINE
  8
PG_SILKSCREEN_BOTTOM
 66
1
 70
0
 40
0.000000
 41
0.000000
 39
0.000000
  0
VERTEX
  8
PG_SILKSCREEN_BOTTOM
 10
43.672760
 20
60.840620
 40
0.127000
 41
0.127000
 42
0.000000
  0
VERTEX
  8
PG_SILKSCREEN_BOTTOM
 10
44.480480
 20
60.030360
 40
0.127000
 41
0.127000
 42
0.000000
  0
VERTEX
  8
PG_SILKSCREEN_BOTTOM
 10
45.379640
 20
60.929520
 40
0.127000
 41
0.127000
 42
0.000000
  0
SEQEND
  0
POLYLINE
  8
PG_SILKSCREEN_BOTTOM
 66
1
 70
0
 40
0.000000
 41
0.000000
 39
0.000000
  0
VERTEX
  8
PG_SILKSCREEN_BOTTOM
 10
44.086780
 20
61.719460
 40
0.127000
 41
0.127000
 42
0.000000
  0
VERTEX
  8
PG_SILKSCREEN_BOTTOM
 10
43.672760
 20
61.305440
 40
0.127000
 41
0.127000
 42
0.000000
  0
SEQEND
  0
POLYLINE
  8
PG_SILKSCREEN_BOTTOM
 66
1
 70
0
 40
0.000000
 41
0.000000
 39
0.000000
  0
VERTEX
  8
PG_SILKSCREEN_BOTTOM
 10
44.211240
 20
61.592460
 40
0.127000
 41
0.127000
 42
0.000000
  0
VERTEX
  8
PG_SILKSCREEN_BOTTOM
 10
43.797220
 20
61.180980
 40
0.127000
 41
0.127000
 42
0.000000
  0
SEQEND
  0
POLYLINE
  8
PG_SILKSCREEN_BOTTOM
 66
1
 70
0
 40
0.000000
 41
0.000000
 39
0.000000
  0
VERTEX
  8
PG_SILKSCREEN_BOTTOM
 10
45.379640
 20
60.929520
 40
0.127000
 41
0.127000
 42
0.000000
  0
VERTEX
  8
PG_SILKSCREEN_BOTTOM
 10
44.569380
 20
61.737240
 40
0.127000
 41
0.127000
 42
0.000000
  0
SEQEND
  0
TEXT
  8
RE_SILKSCREEN_BOTTOM
 10
43.276520
 20
59.077860
 11
0.000000
 21
0.000000
 40
1.270000
 41
1.020000
 50
315.000000
  7
STANDARD
 71
2
 72
0
  1
C9
 73
0
  0
CIRCLE
  8
PIN_BOTTOM
 10
6.731000
 20
16.764000
 40
0.750570
  0
CIRCLE
  8
PIN_BOTTOM
 10
6.731000
 20
9.964420
 40
0.750570
  0
CIRCLE
  8
PIN_BOTTOM
 10
2.230120
 20
9.964420
 40
0.750570
  0
CIRCLE
  8
PIN_BOTTOM
 10
2.230120
 20
16.764000
 40
0.750570
  0
CIRCLE
  8
PIN_BOTTOM
 10
63.500000
 20
66.675000
 40
0.750570
  0
CIRCLE
  8
PIN_BOTTOM
 10
63.500000
 20
73.474580
 40
0.750570
  0
CIRCLE
  8
PIN_BOTTOM
 10
68.000880
 20
73.474580
 40
0.750570
  0
CIRCLE
  8
PIN_BOTTOM
 10
68.000880
 20
66.675000
 40
0.750570
  0
CIRCLE
  8
PIN_BOTTOM
 10
6.731000
 20
90.932000
 40
0.750570
  0
CIRCLE
  8
PIN_BOTTOM
 10
6.731000
 20
84.132420
 40
0.750570
  0
CIRCLE
  8
PIN_BOTTOM
 10
2.230120
 20
84.132420
 40
0.750570
  0
CIRCLE
  8
PIN_BOTTOM
 10
2.230120
 20
90.932000
 40
0.750570
  0
POLYLINE
  8
PIN_BOTTOM
 66
1
 70
1
 40
0.000000
 41
0.000000
 39
0.000000
  0
VERTEX
  8
PIN_BOTTOM
 10
59.378850
 20
74.133710
 40
0.000000
 41
0.000000
 42
0.000000
  0
VERTEX
  8
PIN_BOTTOM
 10
57.379870
 20
74.133710
 40
0.000000
 41
0.000000
 42
0.000000
  0
VERTEX
  8
PIN_BOTTOM
 10
57.379870
 20
73.633330
 40
0.000000
 41
0.000000
 42
0.000000
  0
VERTEX
  8
PIN_BOTTOM
 10
59.378850
 20
73.633330
 40
0.000000
 41
0.000000
 42
0.000000
  0
SEQEND
  0
POLYLINE
  8
PIN_BOTTOM
 66
1
 70
1
 40
0.000000
 41
0.000000
 39
0.000000
  0
VERTEX
  8
PIN_BOTTOM
 10
59.378850
 20
75.634850
 40
0.000000
 41
0.000000
 42
0.000000
  0
VERTEX
  8
PIN_BOTTOM
 10
57.379870
 20
75.634850
 40
0.000000
 41
0.000000
 42
0.000000
  0
VERTEX
  8
PIN_BOTTOM
 10
57.379870
 20
75.134470
 40
0.000000
 41
0.000000
 42
0.000000
  0
VERTEX
  8
PIN_BOTTOM
 10
59.378850
 20
75.134470
 40
0.000000
 41
0.000000
 42
0.000000
  0
SEQEND
  0
POLYLINE
  8
PIN_BOTTOM
 66
1
 70
1
 40
0.000000
 41
0.000000
 39
0.000000
  0
VERTEX
  8
PIN_BOTTOM
 10
59.378850
 20
77.133450
 40
0.000000
 41
0.000000
 42
0.000000
  0
VERTEX
  8
PIN_BOTTOM
 10
57.379870
 20
77.133450
 40
0.000000
 41
0.000000
 42
0.000000
  0
VERTEX
  8
PIN_BOTTOM
 10
57.379870
 20
76.633070
 40
0.000000
 41
0.000000
 42
0.000000
  0
VERTEX
  8
PIN_BOTTOM
 10
59.378850
 20
76.633070
 40
0.000000
 41
0.000000
 42
0.000000
  0
SEQEND
  0
POLYLINE
  8
PIN_BOTTOM
 66
1
 70
1
 40
0.000000
 41
0.000000
 39
0.000000
  0
VERTEX
  8
PIN_BOTTOM
 10
59.378850
 20
78.634590
 40
0.000000
 41
0.000000
 42
0.000000
  0
VERTEX
  8
PIN_BOTTOM
 10
57.379870
 20
78.634590
 40
0.000000
 41
0.000000
 42
0.000000
  0
VERTEX
  8
PIN_BOTTOM
 10
57.379870
 20
78.134210
 40
0.000000
 41
0.000000
 42
0.000000
  0
VERTEX
  8
PIN_BOTTOM
 10
59.378850
 20
78.134210
 40
0.000000
 41
0.000000
 42
0.000000
  0
SEQEND
  0
POLYLINE
  8
PIN_BOTTOM
 66
1
 70
1
 40
0.000000
 41
0.000000
 39
0.000000
  0
VERTEX
  8
PIN_BOTTOM
 10
59.378850
 20
80.133190
 40
0.000000
 41
0.000000
 42
0.000000
  0
VERTEX
  8
PIN_BOTTOM
 10
57.379870
 20
80.133190
 40
0.000000
 41
0.000000
 42
0.000000
  0
VERTEX
  8
PIN_BOTTOM
 10
57.379870
 20
79.632810
 40
0.000000
 41
0.000000
 42
0.000000
  0
VERTEX
  8
PIN_BOTTOM
 10
59.378850
 20
79.632810
 40
0.000000
 41
0.000000
 42
0.000000
  0
SEQEND
  0
POLYLINE
  8
PIN_BOTTOM
 66
1
 70
1
 40
0.000000
 41
0.000000
 39
0.000000
  0
VERTEX
  8
PIN_BOTTOM
 10
59.378850
 20
81.634330
 40
0.000000
 41
0.000000
 42
0.000000
  0
VERTEX
  8
PIN_BOTTOM
 10
57.379870
 20
81.634330
 40
0.000000
 41
0.000000
 42
0.000000
  0
VERTEX
  8
PIN_BOTTOM
 10
57.379870
 20
81.133950
 40
0.000000
 41
0.000000
 42
0.000000
  0
VERTEX
  8
PIN_BOTTOM
 10
59.378850
 20
81.133950
 40
0.000000
 41
0.000000
 42
0.000000
  0
SEQEND
  0
POLYLINE
  8
PIN_BOTTOM
 66
1
 70
1
 40
0.000000
 41
0.000000
 39
0.000000
  0
VERTEX
  8
PIN_BOTTOM
 10
59.378850
 20
83.132930
 40
0.000000
 41
0.000000
 42
0.000000
  0
VERTEX
  8
PIN_BOTTOM
 10
57.379870
 20
83.132930
 40
0.000000
 41
0.000000
 42
0.000000
  0
VERTEX
  8
PIN_BOTTOM
 10
57.379870
 20
82.632550
 40
0.000000
 41
0.000000
 42
0.000000
  0
VERTEX
  8
PIN_BOTTOM
 10
59.378850
 20
82.632550
 40
0.000000
 41
0.000000
 42
0.000000
  0
SEQEND
  0
POLYLINE
  8
PIN_BOTTOM
 66
1
 70
1
 40
0.000000
 41
0.000000
 39
0.000000
  0
VERTEX
  8
PIN_BOTTOM
 10
45.878750
 20
83.132930
 40
0.000000
 41
0.000000
 42
0.000000
  0
VERTEX
  8
PIN_BOTTOM
 10
43.879770
 20
83.132930
 40
0.000000
 41
0.000000
 42
0.000000
  0
VERTEX
  8
PIN_BOTTOM
 10
43.879770
 20
82.632550
 40
0.000000
 41
0.000000
 42
0.000000
  0
VERTEX
  8
PIN_BOTTOM
 10
45.878750
 20
82.632550
 40
0.000000
 41
0.000000
 42
0.000000
  0
SEQEND
  0
POLYLINE
  8
PIN_BOTTOM
 66
1
 70
1
 40
0.000000
 41
0.000000
 39
0.000000
  0
VERTEX
  8
PIN_BOTTOM
 10
45.878750
 20
81.634330
 40
0.000000
 41
0.000000
 42
0.000000
  0
VERTEX
  8
PIN_BOTTOM
 10
43.879770
 20
81.634330
 40
0.000000
 41
0.000000
 42
0.000000
  0
VERTEX
  8
PIN_BOTTOM
 10
43.879770
 20
81.133950
 40
0.000000
 41
0.000000
 42
0.000000
  0
VERTEX
  8
PIN_BOTTOM
 10
45.878750
 20
81.133950
 40
0.000000
 41
0.000000
 42
0.000000
  0
SEQEND
  0
POLYLINE
  8
PIN_BOTTOM
 66
1
 70
1
 40
0.000000
 41
0.000000
 39
0.000000
  0
VERTEX
  8
PIN_BOTTOM
 10
45.878750
 20
80.133190
 40
0.000000
 41
0.000000
 42
0.000000
  0
VERTEX
  8
PIN_BOTTOM
 10
43.879770
 20
80.133190
 40
0.000000
 41
0.000000
 42
0.000000
  0
VERTEX
  8
PIN_BOTTOM
 10
43.879770
 20
79.632810
 40
0.000000
 41
0.000000
 42
0.000000
  0
VERTEX
  8
PIN_BOTTOM
 10
45.878750
 20
79.632810
 40
0.000000
 41
0.000000
 42
0.000000
  0
SEQEND
  0
POLYLINE
  8
PIN_BOTTOM
 66
1
 70
1
 40
0.000000
 41
0.000000
 39
0.000000
  0
VERTEX
  8
PIN_BOTTOM
 10
45.878750
 20
78.634590
 40
0.000000
 41
0.000000
 42
0.000000
  0
VERTEX
  8
PIN_BOTTOM
 10
43.879770
 20
78.634590
 40
0.000000
 41
0.000000
 42
0.000000
  0
VERTEX
  8
PIN_BOTTOM
 10
43.879770
 20
78.134210
 40
0.000000
 41
0.000000
 42
0.000000
  0
VERTEX
  8
PIN_BOTTOM
 10
45.878750
 20
78.134210
 40
0.000000
 41
0.000000
 42
0.000000
  0
SEQEND
  0
POLYLINE
  8
PIN_BOTTOM
 66
1
 70
1
 40
0.000000
 41
0.000000
 39
0.000000
  0
VERTEX
  8
PIN_BOTTOM
 10
45.878750
 20
77.133450
 40
0.000000
 41
0.000000
 42
0.000000
  0
VERTEX
  8
PIN_BOTTOM
 10
43.879770
 20
77.133450
 40
0.000000
 41
0.000000
 42
0.000000
  0
VERTEX
  8
PIN_BOTTOM
 10
43.879770
 20
76.633070
 40
0.000000
 41
0.000000
 42
0.000000
  0
VERTEX
  8
PIN_BOTTOM
 10
45.878750
 20
76.633070
 40
0.000000
 41
0.000000
 42
0.000000
  0
SEQEND
  0
POLYLINE
  8
PIN_BOTTOM
 66
1
 70
1
 40
0.000000
 41
0.000000
 39
0.000000
  0
VERTEX
  8
PIN_BOTTOM
 10
45.878750
 20
75.634850
 40
0.000000
 41
0.000000
 42
0.000000
  0
VERTEX
  8
PIN_BOTTOM
 10
43.879770
 20
75.634850
 40
0.000000
 41
0.000000
 42
0.000000
  0
VERTEX
  8
PIN_BOTTOM
 10
43.879770
 20
75.134470
 40
0.000000
 41
0.000000
 42
0.000000
  0
VERTEX
  8
PIN_BOTTOM
 10
45.878750
 20
75.134470
 40
0.000000
 41
0.000000
 42
0.000000
  0
SEQEND
  0
POLYLINE
  8
PIN_BOTTOM
 66
1
 70
1
 40
0.000000
 41
0.000000
 39
0.000000
  0
VERTEX
  8
PIN_BOTTOM
 10
45.878750
 20
74.133710
 40
0.000000
 41
0.000000
 42
0.000000
  0
VERTEX
  8
PIN_BOTTOM
 10
43.879770
 20
74.133710
 40
0.000000
 41
0.000000
 42
0.000000
  0
VERTEX
  8
PIN_BOTTOM
 10
43.879770
 20
73.633330
 40
0.000000
 41
0.000000
 42
0.000000
  0
VERTEX
  8
PIN_BOTTOM
 10
45.878750
 20
73.633330
 40
0.000000
 41
0.000000
 42
0.000000
  0
SEQEND
  0
POLYLINE
  8
PG_SILKSCREEN_BOTTOM
 66
1
 70
0
 40
0.000000
 41
0.000000
 39
0.000000
  0
VERTEX
  8
PG_SILKSCREEN_BOTTOM
 10
58.338720
 20
71.884540
 40
0.127000
 41
0.127000
 42
0.000000
  0
VERTEX
  8
PG_SILKSCREEN_BOTTOM
 10
44.879260
 20
71.884540
 40
0.127000
 41
0.127000
 42
0.000000
  0
SEQEND
  0
POLYLINE
  8
PG_SILKSCREEN_BOTTOM
 66
1
 70
0
 40
0.000000
 41
0.000000
 39
0.000000
  0
VERTEX
  8
PG_SILKSCREEN_BOTTOM
 10
58.338720
 20
84.884260
 40
0.127000
 41
0.127000
 42
0.000000
  0
VERTEX
  8
PG_SILKSCREEN_BOTTOM
 10
58.338720
 20
83.299300
 40
0.127000
 41
0.127000
 42
0.000000
  0
SEQEND
  0
POLYLINE
  8
PG_SILKSCREEN_BOTTOM
 66
1
 70
0
 40
0.000000
 41
0.000000
 39
0.000000
  0
VERTEX
  8
PG_SILKSCREEN_BOTTOM
 10
44.879260
 20
84.884260
 40
0.127000
 41
0.127000
 42
0.000000
  0
VERTEX
  8
PG_SILKSCREEN_BOTTOM
 10
58.338720
 20
84.884260
 40
0.127000
 41
0.127000
 42
0.000000
  0
SEQEND
  0
POLYLINE
  8
PG_SILKSCREEN_BOTTOM
 66
1
 70
0
 40
0.000000
 41
0.000000
 39
0.000000
  0
VERTEX
  8
PG_SILKSCREEN_BOTTOM
 10
44.879260
 20
71.884540
 40
0.127000
 41
0.127000
 42
0.000000
  0
VERTEX
  8
PG_SILKSCREEN_BOTTOM
 10
44.879260
 20
73.507600
 40
0.127000
 41
0.127000
 42
0.000000
  0
SEQEND
  0
POLYLINE
  8
PG_SILKSCREEN_BOTTOM
 66
1
 70
0
 40
0.000000
 41
0.000000
 39
0.000000
  0
VERTEX
  8
PG_SILKSCREEN_BOTTOM
 10
44.879260
 20
83.299300
 40
0.127000
 41
0.127000
 42
0.000000
  0
VERTEX
  8
PG_SILKSCREEN_BOTTOM
 10
44.879260
 20
84.884260
 40
0.127000
 41
0.127000
 42
0.000000
  0
SEQEND
  0
POLYLINE
  8
PG_SILKSCREEN_BOTTOM
 66
1
 70
0
 40
0.000000
 41
0.000000
 39
0.000000
  0
VERTEX
  8
PG_SILKSCREEN_BOTTOM
 10
44.879260
 20
81.788000
 40
0.127000
 41
0.127000
 42
0.000000
  0
VERTEX
  8
PG_SILKSCREEN_BOTTOM
 10
44.879260
 20
82.524600
 40
0.127000
 41
0.127000
 42
0.000000
  0
SEQEND
  0
POLYLINE
  8
PG_SILKSCREEN_BOTTOM
 66
1
 70
0
 40
0.000000
 41
0.000000
 39
0.000000
  0
VERTEX
  8
PG_SILKSCREEN_BOTTOM
 10
44.879260
 20
80.289400
 40
0.127000
 41
0.127000
 42
0.000000
  0
VERTEX
  8
PG_SILKSCREEN_BOTTOM
 10
44.879260
 20
81.013300
 40
0.127000
 41
0.127000
 42
0.000000
  0
SEQEND
  0
POLYLINE
  8
PG_SILKSCREEN_BOTTOM
 66
1
 70
0
 40
0.000000
 41
0.000000
 39
0.000000
  0
VERTEX
  8
PG_SILKSCREEN_BOTTOM
 10
44.879260
 20
78.828900
 40
0.127000
 41
0.127000
 42
0.000000
  0
VERTEX
  8
PG_SILKSCREEN_BOTTOM
 10
44.879260
 20
79.463900
 40
0.127000
 41
0.127000
 42
0.000000
  0
SEQEND
  0
POLYLINE
  8
PG_SILKSCREEN_BOTTOM
 66
1
 70
0
 40
0.000000
 41
0.000000
 39
0.000000
  0
VERTEX
  8
PG_SILKSCREEN_BOTTOM
 10
44.879260
 20
77.292200
 40
0.127000
 41
0.127000
 42
0.000000
  0
VERTEX
  8
PG_SILKSCREEN_BOTTOM
 10
44.879260
 20
77.927200
 40
0.127000
 41
0.127000
 42
0.000000
  0
SEQEND
  0
POLYLINE
  8
PG_SILKSCREEN_BOTTOM
 66
1
 70
0
 40
0.000000
 41
0.000000
 39
0.000000
  0
VERTEX
  8
PG_SILKSCREEN_BOTTOM
 10
44.879260
 20
75.819000
 40
0.127000
 41
0.127000
 42
0.000000
  0
VERTEX
  8
PG_SILKSCREEN_BOTTOM
 10
44.879260
 20
76.479400
 40
0.127000
 41
0.127000
 42
0.000000
  0
SEQEND
  0
POLYLINE
  8
PG_SILKSCREEN_BOTTOM
 66
1
 70
0
 40
0.000000
 41
0.000000
 39
0.000000
  0
VERTEX
  8
PG_SILKSCREEN_BOTTOM
 10
44.879260
 20
74.295000
 40
0.127000
 41
0.127000
 42
0.000000
  0
VERTEX
  8
PG_SILKSCREEN_BOTTOM
 10
44.879260
 20
74.993500
 40
0.127000
 41
0.127000
 42
0.000000
  0
SEQEND
  0
POLYLINE
  8
PG_SILKSCREEN_BOTTOM
 66
1
 70
0
 40
0.000000
 41
0.000000
 39
0.000000
  0
VERTEX
  8
PG_SILKSCREEN_BOTTOM
 10
58.338720
 20
82.499200
 40
0.127000
 41
0.127000
 42
0.000000
  0
VERTEX
  8
PG_SILKSCREEN_BOTTOM
 10
58.338720
 20
81.788000
 40
0.127000
 41
0.127000
 42
0.000000
  0
SEQEND
  0
POLYLINE
  8
PG_SILKSCREEN_BOTTOM
 66
1
 70
0
 40
0.000000
 41
0.000000
 39
0.000000
  0
VERTEX
  8
PG_SILKSCREEN_BOTTOM
 10
58.338720
 20
80.975200
 40
0.127000
 41
0.127000
 42
0.000000
  0
VERTEX
  8
PG_SILKSCREEN_BOTTOM
 10
58.338720
 20
80.314800
 40
0.127000
 41
0.127000
 42
0.000000
  0
SEQEND
  0
POLYLINE
  8
PG_SILKSCREEN_BOTTOM
 66
1
 70
0
 40
0.000000
 41
0.000000
 39
0.000000
  0
VERTEX
  8
PG_SILKSCREEN_BOTTOM
 10
58.338720
 20
79.463900
 40
0.127000
 41
0.127000
 42
0.000000
  0
VERTEX
  8
PG_SILKSCREEN_BOTTOM
 10
58.338720
 20
78.790800
 40
0.127000
 41
0.127000
 42
0.000000
  0
SEQEND
  0
POLYLINE
  8
PG_SILKSCREEN_BOTTOM
 66
1
 70
0
 40
0.000000
 41
0.000000
 39
0.000000
  0
VERTEX
  8
PG_SILKSCREEN_BOTTOM
 10
58.338720
 20
77.990700
 40
0.127000
 41
0.127000
 42
0.000000
  0
VERTEX
  8
PG_SILKSCREEN_BOTTOM
 10
58.338720
 20
77.304900
 40
0.127000
 41
0.127000
 42
0.000000
  0
SEQEND
  0
POLYLINE
  8
PG_SILKSCREEN_BOTTOM
 66
1
 70
0
 40
0.000000
 41
0.000000
 39
0.000000
  0
VERTEX
  8
PG_SILKSCREEN_BOTTOM
 10
58.338720
 20
76.441300
 40
0.127000
 41
0.127000
 42
0.000000
  0
VERTEX
  8
PG_SILKSCREEN_BOTTOM
 10
58.338720
 20
75.780900
 40
0.127000
 41
0.127000
 42
0.000000
  0
SEQEND
  0
POLYLINE
  8
PG_SILKSCREEN_BOTTOM
 66
1
 70
0
 40
0.000000
 41
0.000000
 39
0.000000
  0
VERTEX
  8
PG_SILKSCREEN_BOTTOM
 10
58.338720
 20
74.955400
 40
0.127000
 41
0.127000
 42
0.000000
  0
VERTEX
  8
PG_SILKSCREEN_BOTTOM
 10
58.338720
 20
74.307700
 40
0.127000
 41
0.127000
 42
0.000000
  0
SEQEND
  0
POLYLINE
  8
PG_SILKSCREEN_BOTTOM
 66
1
 70
0
 40
0.000000
 41
0.000000
 39
0.000000
  0
VERTEX
  8
PG_SILKSCREEN_BOTTOM
 10
58.338720
 20
73.469500
 40
0.127000
 41
0.127000
 42
0.000000
  0
VERTEX
  8
PG_SILKSCREEN_BOTTOM
 10
58.338720
 20
71.884540
 40
0.127000
 41
0.127000
 42
0.000000
  0
SEQEND
  0
POLYLINE
  8
PG_SILKSCREEN_BOTTOM
 66
1
 70
1
 40
0.000000
 41
0.000000
 39
0.000000
  0
VERTEX
  8
PG_SILKSCREEN_BOTTOM
 10
43.748960
 20
73.914000
 40
0.000000
 41
0.000000
 42
1.000000
  0
VERTEX
  8
PG_SILKSCREEN_BOTTOM
 10
42.611040
 20
73.914000
 40
0.000000
 41
0.000000
 42
1.000000
  0
SEQEND
  0
TEXT
  8
RE_SILKSCREEN_BOTTOM
 10
51.265667
 20
85.344000
 11
51.689000
 21
85.344000
 40
1.270000
 41
1.020000
 50
0.000000
  7
STANDARD
 71
2
 72
1
  1
U4
 73
0
  0
CIRCLE
  8
PIN_BOTTOM
 10
67.310000
 20
59.055000
 40
0.750570
  0
CIRCLE
  8
PIN_BOTTOM
 10
67.310000
 20
56.515000
 40
0.750570
  0
CIRCLE
  8
PIN_BOTTOM
 10
67.310000
 20
53.975000
 40
0.750570
  0
CIRCLE
  8
PIN_BOTTOM
 10
67.310000
 20
51.435000
 40
0.750570
  0
CIRCLE
  8
PIN_BOTTOM
 10
67.310000
 20
48.895000
 40
0.750570
  0
CIRCLE
  8
PIN_BOTTOM
 10
67.310000
 20
46.355000
 40
0.750570
  0
CIRCLE
  8
PIN_BOTTOM
 10
67.310000
 20
43.815000
 40
0.750570
  0
CIRCLE
  8
PIN_BOTTOM
 10
67.310000
 20
41.275000
 40
0.750570
  0
CIRCLE
  8
PIN_BOTTOM
 10
67.310000
 20
38.735000
 40
0.750570
  0
CIRCLE
  8
PIN_BOTTOM
 10
64.770000
 20
59.055000
 40
0.750570
  0
CIRCLE
  8
PIN_BOTTOM
 10
64.770000
 20
56.515000
 40
0.750570
  0
CIRCLE
  8
PIN_BOTTOM
 10
64.770000
 20
53.975000
 40
0.750570
  0
CIRCLE
  8
PIN_BOTTOM
 10
64.770000
 20
51.435000
 40
0.750570
  0
CIRCLE
  8
PIN_BOTTOM
 10
64.770000
 20
48.895000
 40
0.750570
  0
CIRCLE
  8
PIN_BOTTOM
 10
64.770000
 20
46.355000
 40
0.750570
  0
CIRCLE
  8
PIN_BOTTOM
 10
64.770000
 20
43.815000
 40
0.750570
  0
CIRCLE
  8
PIN_BOTTOM
 10
64.770000
 20
41.275000
 40
0.750570
  0
CIRCLE
  8
PIN_BOTTOM
 10
64.770000
 20
38.735000
 40
0.750570
  0
POLYLINE
  8
PG_SILKSCREEN_BOTTOM
 66
1
 70
0
 40
0.000000
 41
0.000000
 39
0.000000
  0
VERTEX
  8
PG_SILKSCREEN_BOTTOM
 10
63.500000
 20
60.325000
 40
0.200660
 41
0.200660
 42
0.000000
  0
VERTEX
  8
PG_SILKSCREEN_BOTTOM
 10
63.500000
 20
37.465000
 40
0.200660
 41
0.200660
 42
0.000000
  0
VERTEX
  8
PG_SILKSCREEN_BOTTOM
 10
68.580000
 20
37.465000
 40
0.200660
 41
0.200660
 42
0.000000
  0
VERTEX
  8
PG_SILKSCREEN_BOTTOM
 10
68.580000
 20
60.325000
 40
0.200660
 41
0.200660
 42
0.000000
  0
VERTEX
  8
PG_SILKSCREEN_BOTTOM
 10
63.500000
 20
60.325000
 40
0.200660
 41
0.200660
 42
0.000000
  0
SEQEND
  0
TEXT
  8
RE_SILKSCREEN_BOTTOM
 10
67.297300
 20
62.357000
 11
0.000000
 21
0.000000
 40
1.270000
 41
1.020000
 50
0.000000
  7
STANDARD
 71
2
 72
0
  1
J3
 73
0
  0
TEXT
  8
PG_SILKSCREEN_BOTTOM
 10
65.252600
 20
60.579000
 11
0.000000
 21
0.000000
 40
1.270000
 41
1.020000
 50
0.000000
  7
STANDARD
 71
2
 72
0
  1
2
 73
0
  0
TEXT
  8
PG_SILKSCREEN_BOTTOM
 10
67.792600
 20
60.579000
 11
0.000000
 21
0.000000
 40
1.270000
 41
1.020000
 50
0.000000
  7
STANDARD
 71
2
 72
0
  1
1
 73
0
  0
TEXT
  8
PG_SILKSCREEN_BOTTOM
 10
65.773300
 20
35.433000
 11
0.000000
 21
0.000000
 40
1.270000
 41
1.020000
 50
0.000000
  7
STANDARD
 71
2
 72
0
  1
18
 73
0
  0
TEXT
  8
PG_SILKSCREEN_BOTTOM
 10
68.440300
 20
35.433000
 11
0.000000
 21
0.000000
 40
1.270000
 41
1.020000
 50
0.000000
  7
STANDARD
 71
2
 72
0
  1
17
 73
0
  0
POLYLINE
  8
BO_SILKSCREEN_BOTTOM
 66
1
 70
0
 40
0.000000
 41
0.000000
 39
0.000000
  0
VERTEX
  8
BO_SILKSCREEN_BOTTOM
 10
53.975000
 20
62.230000
 40
0.381000
 41
0.381000
 42
0.000000
  0
VERTEX
  8
BO_SILKSCREEN_BOTTOM
 10
54.610000
 20
61.595000
 40
0.381000
 41
0.381000
 42
0.000000
  0
SEQEND
  0
POLYLINE
  8
BO_SILKSCREEN_BOTTOM
 66
1
 70
0
 40
0.000000
 41
0.000000
 39
0.000000
  0
VERTEX
  8
BO_SILKSCREEN_BOTTOM
 10
60.960000
 20
62.230000
 40
0.381000
 41
0.381000
 42
0.000000
  0
VERTEX
  8
BO_SILKSCREEN_BOTTOM
 10
53.975000
 20
62.230000
 40
0.381000
 41
0.381000
 42
0.000000
  0
VERTEX
  8
BO_SILKSCREEN_BOTTOM
 10
54.610000
 20
62.865000
 40
0.381000
 41
0.381000
 42
0.000000
  0
SEQEND
  0
POLYLINE
  8
BO_SILKSCREEN_BOTTOM
 66
1
 70
0
 40
0.000000
 41
0.000000
 39
0.000000
  0
VERTEX
  8
BO_SILKSCREEN_BOTTOM
 10
63.500000
 20
60.325000
 40
0.381000
 41
0.381000
 42
0.000000
  0
VERTEX
  8
BO_SILKSCREEN_BOTTOM
 10
50.800000
 20
60.325000
 40
0.381000
 41
0.381000
 42
0.000000
  0
VERTEX
  8
BO_SILKSCREEN_BOTTOM
 10
50.800000
 20
37.465000
 40
0.381000
 41
0.381000
 42
0.000000
  0
VERTEX
  8
BO_SILKSCREEN_BOTTOM
 10
63.500000
 20
37.465000
 40
0.381000
 41
0.381000
 42
0.000000
  0
SEQEND
  0
POLYLINE
  8
BG_OUTLINE
 66
1
 70
0
 40
0.000000
 41
0.000000
 39
0.000000
  0
VERTEX
  8
BG_OUTLINE
 10
2.999740
 20
99.999800
 40
0.000000
 41
0.000000
 42
0.414176
  0
VERTEX
  8
BG_OUTLINE
 10
0.000000
 20
97.000060
 40
0.000000
 41
0.000000
 42
0.000000
  0
SEQEND
  0
POLYLINE
  8
BG_OUTLINE
 66
1
 70
0
 40
0.000000
 41
0.000000
 39
0.000000
  0
VERTEX
  8
BG_OUTLINE
 10
69.999860
 20
97.000060
 40
0.000000
 41
0.000000
 42
0.414185
  0
VERTEX
  8
BG_OUTLINE
 10
67.000120
 20
99.999800
 40
0.000000
 41
0.000000
 42
0.000000
  0
SEQEND
  0
POLYLINE
  8
BG_OUTLINE
 66
1
 70
0
 40
0.000000
 41
0.000000
 39
0.000000
  0
VERTEX
  8
BG_OUTLINE
 10
67.000120
 20
0.000000
 40
0.000000
 41
0.000000
 42
0.414172
  0
VERTEX
  8
BG_OUTLINE
 10
69.999860
 20
2.999740
 40
0.000000
 41
0.000000
 42
0.000000
  0
SEQEND
  0
POLYLINE
  8
BG_OUTLINE
 66
1
 70
0
 40
0.000000
 41
0.000000
 39
0.000000
  0
VERTEX
  8
BG_OUTLINE
 10
0.000000
 20
2.999740
 40
0.000000
 41
0.000000
 42
0.414163
  0
VERTEX
  8
BG_OUTLINE
 10
2.999740
 20
0.000000
 40
0.000000
 41
0.000000
 42
0.000000
  0
SEQEND
  0
POLYLINE
  8
BG_OUTLINE
 66
1
 70
0
 40
0.000000
 41
0.000000
 39
0.000000
  0
VERTEX
  8
BG_OUTLINE
 10
66.499740
 20
95.001080
 40
0.000000
 41
0.000000
 42
1.000127
  0
VERTEX
  8
BG_OUTLINE
 10
63.500000
 20
94.998540
 40
0.000000
 41
0.000000
 42
0.999873
  0
VERTEX
  8
BG_OUTLINE
 10
66.499740
 20
95.001080
 40
0.000000
 41
0.000000
 42
0.000000
  0
SEQEND
  0
POLYLINE
  8
BG_OUTLINE
 66
1
 70
0
 40
0.000000
 41
0.000000
 39
0.000000
  0
VERTEX
  8
BG_OUTLINE
 10
6.499860
 20
95.001080
 40
0.000000
 41
0.000000
 42
1.000127
  0
VERTEX
  8
BG_OUTLINE
 10
3.500120
 20
94.998540
 40
0.000000
 41
0.000000
 42
0.999873
  0
VERTEX
  8
BG_OUTLINE
 10
6.499860
 20
95.001080
 40
0.000000
 41
0.000000
 42
0.000000
  0
SEQEND
  0
POLYLINE
  8
BG_OUTLINE
 66
1
 70
0
 40
0.000000
 41
0.000000
 39
0.000000
  0
VERTEX
  8
BG_OUTLINE
 10
66.499740
 20
5.001260
 40
0.000000
 41
0.000000
 42
1.000007
  0
VERTEX
  8
BG_OUTLINE
 10
63.500000
 20
4.998720
 40
0.000000
 41
0.000000
 42
0.999993
  0
VERTEX
  8
BG_OUTLINE
 10
66.499740
 20
5.001260
 40
0.000000
 41
0.000000
 42
0.000000
  0
SEQEND
  0
POLYLINE
  8
BG_OUTLINE
 66
1
 70
0
 40
0.000000
 41
0.000000
 39
0.000000
  0
VERTEX
  8
BG_OUTLINE
 10
6.499860
 20
5.001260
 40
0.000000
 41
0.000000
 42
1.000007
  0
VERTEX
  8
BG_OUTLINE
 10
3.500120
 20
4.998720
 40
0.000000
 41
0.000000
 42
0.999993
  0
VERTEX
  8
BG_OUTLINE
 10
6.499860
 20
5.001260
 40
0.000000
 41
0.000000
 42
0.000000
  0
SEQEND
  0
POLYLINE
  8
BG_OUTLINE
 66
1
 70
0
 40
0.000000
 41
0.000000
 39
0.000000
  0
VERTEX
  8
BG_OUTLINE
 10
0.000000
 20
97.000060
 40
0.000000
 41
0.000000
 42
0.000000
  0
VERTEX
  8
BG_OUTLINE
 10
0.000000
 20
2.999740
 40
0.000000
 41
0.000000
 42
0.000000
  0
SEQEND
  0
POLYLINE
  8
BG_OUTLINE
 66
1
 70
0
 40
0.000000
 41
0.000000
 39
0.000000
  0
VERTEX
  8
BG_OUTLINE
 10
67.000120
 20
99.999800
 40
0.000000
 41
0.000000
 42
0.000000
  0
VERTEX
  8
BG_OUTLINE
 10
2.999740
 20
99.999800
 40
0.000000
 41
0.000000
 42
0.000000
  0
SEQEND
  0
POLYLINE
  8
BG_OUTLINE
 66
1
 70
0
 40
0.000000
 41
0.000000
 39
0.000000
  0
VERTEX
  8
BG_OUTLINE
 10
69.999860
 20
2.999740
 40
0.000000
 41
0.000000
 42
0.000000
  0
VERTEX
  8
BG_OUTLINE
 10
69.999860
 20
97.000060
 40
0.000000
 41
0.000000
 42
0.000000
  0
SEQEND
  0
POLYLINE
  8
BG_OUTLINE
 66
1
 70
0
 40
0.000000
 41
0.000000
 39
0.000000
  0
VERTEX
  8
BG_OUTLINE
 10
2.999740
 20
0.000000
 40
0.000000
 41
0.000000
 42
0.000000
  0
VERTEX
  8
BG_OUTLINE
 10
67.000120
 20
0.000000
 40
0.000000
 41
0.000000
 42
0.000000
  0
SEQEND
  0
POLYLINE
  8
RE_DISPLAY_TOP
 66
1
 70
1
 40
0.000000
 41
0.000000
 39
0.000000
  0
VERTEX
  8
RE_DISPLAY_TOP
 10
68.501260
 20
73.474580
 40
0.000000
 41
0.000000
 42
1.000000
  0
VERTEX
  8
RE_DISPLAY_TOP
 10
67.500500
 20
73.474580
 40
0.000000
 41
0.000000
 42
1.000000
  0
SEQEND
  0
POLYLINE
  8
RE_DISPLAY_TOP
 66
1
 70
1
 40
0.000000
 41
0.000000
 39
0.000000
  0
VERTEX
  8
RE_DISPLAY_TOP
 10
68.501260
 20
66.675000
 40
0.000000
 41
0.000000
 42
1.000000
  0
VERTEX
  8
RE_DISPLAY_TOP
 10
67.500500
 20
66.675000
 40
0.000000
 41
0.000000
 42
1.000000
  0
SEQEND
  0
POLYLINE
  8
RE_DISPLAY_TOP
 66
1
 70
1
 40
0.000000
 41
0.000000
 39
0.000000
  0
VERTEX
  8
RE_DISPLAY_TOP
 10
64.000380
 20
73.474580
 40
0.000000
 41
0.000000
 42
1.000000
  0
VERTEX
  8
RE_DISPLAY_TOP
 10
62.999620
 20
73.474580
 40
0.000000
 41
0.000000
 42
1.000000
  0
SEQEND
  0
POLYLINE
  8
RE_DISPLAY_TOP
 66
1
 70
1
 40
0.000000
 41
0.000000
 39
0.000000
  0
VERTEX
  8
RE_DISPLAY_TOP
 10
64.000380
 20
66.675000
 40
0.000000
 41
0.000000
 42
1.000000
  0
VERTEX
  8
RE_DISPLAY_TOP
 10
62.999620
 20
66.675000
 40
0.000000
 41
0.000000
 42
1.000000
  0
SEQEND
  0
POLYLINE
  8
RE_DISPLAY_TOP
 66
1
 70
1
 40
0.000000
 41
0.000000
 39
0.000000
  0
VERTEX
  8
RE_DISPLAY_TOP
 10
67.810380
 20
59.055000
 40
0.000000
 41
0.000000
 42
1.000000
  0
VERTEX
  8
RE_DISPLAY_TOP
 10
66.809620
 20
59.055000
 40
0.000000
 41
0.000000
 42
1.000000
  0
SEQEND
  0
POLYLINE
  8
RE_DISPLAY_TOP
 66
1
 70
1
 40
0.000000
 41
0.000000
 39
0.000000
  0
VERTEX
  8
RE_DISPLAY_TOP
 10
65.270380
 20
59.055000
 40
0.000000
 41
0.000000
 42
1.000000
  0
VERTEX
  8
RE_DISPLAY_TOP
 10
64.269620
 20
59.055000
 40
0.000000
 41
0.000000
 42
1.000000
  0
SEQEND
  0
POLYLINE
  8
RE_DISPLAY_TOP
 66
1
 70
1
 40
0.000000
 41
0.000000
 39
0.000000
  0
VERTEX
  8
RE_DISPLAY_TOP
 10
67.810380
 20
56.515000
 40
0.000000
 41
0.000000
 42
1.000000
  0
VERTEX
  8
RE_DISPLAY_TOP
 10
66.809620
 20
56.515000
 40
0.000000
 41
0.000000
 42
1.000000
  0
SEQEND
  0
POLYLINE
  8
RE_DISPLAY_TOP
 66
1
 70
1
 40
0.000000
 41
0.000000
 39
0.000000
  0
VERTEX
  8
RE_DISPLAY_TOP
 10
67.810380
 20
53.975000
 40
0.000000
 41
0.000000
 42
1.000000
  0
VERTEX
  8
RE_DISPLAY_TOP
 10
66.809620
 20
53.975000
 40
0.000000
 41
0.000000
 42
1.000000
  0
SEQEND
  0
POLYLINE
  8
RE_DISPLAY_TOP
 66
1
 70
1
 40
0.000000
 41
0.000000
 39
0.000000
  0
VERTEX
  8
RE_DISPLAY_TOP
 10
65.270380
 20
56.515000
 40
0.000000
 41
0.000000
 42
1.000000
  0
VERTEX
  8
RE_DISPLAY_TOP
 10
64.269620
 20
56.515000
 40
0.000000
 41
0.000000
 42
1.000000
  0
SEQEND
  0
POLYLINE
  8
RE_DISPLAY_TOP
 66
1
 70
1
 40
0.000000
 41
0.000000
 39
0.000000
  0
VERTEX
  8
RE_DISPLAY_TOP
 10
65.270380
 20
53.975000
 40
0.000000
 41
0.000000
 42
1.000000
  0
VERTEX
  8
RE_DISPLAY_TOP
 10
64.269620
 20
53.975000
 40
0.000000
 41
0.000000
 42
1.000000
  0
SEQEND
  0
POLYLINE
  8
RE_DISPLAY_TOP
 66
1
 70
1
 40
0.000000
 41
0.000000
 39
0.000000
  0
VERTEX
  8
RE_DISPLAY_TOP
 10
67.810380
 20
51.435000
 40
0.000000
 41
0.000000
 42
1.000000
  0
VERTEX
  8
RE_DISPLAY_TOP
 10
66.809620
 20
51.435000
 40
0.000000
 41
0.000000
 42
1.000000
  0
SEQEND
  0
POLYLINE
  8
RE_DISPLAY_TOP
 66
1
 70
1
 40
0.000000
 41
0.000000
 39
0.000000
  0
VERTEX
  8
RE_DISPLAY_TOP
 10
67.810380
 20
48.895000
 40
0.000000
 41
0.000000
 42
1.000000
  0
VERTEX
  8
RE_DISPLAY_TOP
 10
66.809620
 20
48.895000
 40
0.000000
 41
0.000000
 42
1.000000
  0
SEQEND
  0
POLYLINE
  8
RE_DISPLAY_TOP
 66
1
 70
1
 40
0.000000
 41
0.000000
 39
0.000000
  0
VERTEX
  8
RE_DISPLAY_TOP
 10
67.810380
 20
46.355000
 40
0.000000
 41
0.000000
 42
1.000000
  0
VERTEX
  8
RE_DISPLAY_TOP
 10
66.809620
 20
46.355000
 40
0.000000
 41
0.000000
 42
1.000000
  0
SEQEND
  0
POLYLINE
  8
RE_DISPLAY_TOP
 66
1
 70
1
 40
0.000000
 41
0.000000
 39
0.000000
  0
VERTEX
  8
RE_DISPLAY_TOP
 10
65.270380
 20
51.435000
 40
0.000000
 41
0.000000
 42
1.000000
  0
VERTEX
  8
RE_DISPLAY_TOP
 10
64.269620
 20
51.435000
 40
0.000000
 41
0.000000
 42
1.000000
  0
SEQEND
  0
POLYLINE
  8
RE_DISPLAY_TOP
 66
1
 70
1
 40
0.000000
 41
0.000000
 39
0.000000
  0
VERTEX
  8
RE_DISPLAY_TOP
 10
65.270380
 20
48.895000
 40
0.000000
 41
0.000000
 42
1.000000
  0
VERTEX
  8
RE_DISPLAY_TOP
 10
64.269620
 20
48.895000
 40
0.000000
 41
0.000000
 42
1.000000
  0
SEQEND
  0
POLYLINE
  8
RE_DISPLAY_TOP
 66
1
 70
1
 40
0.000000
 41
0.000000
 39
0.000000
  0
VERTEX
  8
RE_DISPLAY_TOP
 10
65.270380
 20
46.355000
 40
0.000000
 41
0.000000
 42
1.000000
  0
VERTEX
  8
RE_DISPLAY_TOP
 10
64.269620
 20
46.355000
 40
0.000000
 41
0.000000
 42
1.000000
  0
SEQEND
  0
POLYLINE
  8
RE_DISPLAY_TOP
 66
1
 70
1
 40
0.000000
 41
0.000000
 39
0.000000
  0
VERTEX
  8
RE_DISPLAY_TOP
 10
67.810380
 20
43.815000
 40
0.000000
 41
0.000000
 42
1.000000
  0
VERTEX
  8
RE_DISPLAY_TOP
 10
66.809620
 20
43.815000
 40
0.000000
 41
0.000000
 42
1.000000
  0
SEQEND
  0
POLYLINE
  8
RE_DISPLAY_TOP
 66
1
 70
1
 40
0.000000
 41
0.000000
 39
0.000000
  0
VERTEX
  8
RE_DISPLAY_TOP
 10
67.810380
 20
41.275000
 40
0.000000
 41
0.000000
 42
1.000000
  0
VERTEX
  8
RE_DISPLAY_TOP
 10
66.809620
 20
41.275000
 40
0.000000
 41
0.000000
 42
1.000000
  0
SEQEND
  0
POLYLINE
  8
RE_DISPLAY_TOP
 66
1
 70
1
 40
0.000000
 41
0.000000
 39
0.000000
  0
VERTEX
  8
RE_DISPLAY_TOP
 10
65.270380
 20
43.815000
 40
0.000000
 41
0.000000
 42
1.000000
  0
VERTEX
  8
RE_DISPLAY_TOP
 10
64.269620
 20
43.815000
 40
0.000000
 41
0.000000
 42
1.000000
  0
SEQEND
  0
POLYLINE
  8
RE_DISPLAY_TOP
 66
1
 70
1
 40
0.000000
 41
0.000000
 39
0.000000
  0
VERTEX
  8
RE_DISPLAY_TOP
 10
65.270380
 20
41.275000
 40
0.000000
 41
0.000000
 42
1.000000
  0
VERTEX
  8
RE_DISPLAY_TOP
 10
64.269620
 20
41.275000
 40
0.000000
 41
0.000000
 42
1.000000
  0
SEQEND
  0
POLYLINE
  8
RE_DISPLAY_TOP
 66
1
 70
1
 40
0.000000
 41
0.000000
 39
0.000000
  0
VERTEX
  8
RE_DISPLAY_TOP
 10
67.810380
 20
38.735000
 40
0.000000
 41
0.000000
 42
1.000000
  0
VERTEX
  8
RE_DISPLAY_TOP
 10
66.809620
 20
38.735000
 40
0.000000
 41
0.000000
 42
1.000000
  0
SEQEND
  0
POLYLINE
  8
RE_DISPLAY_TOP
 66
1
 70
1
 40
0.000000
 41
0.000000
 39
0.000000
  0
VERTEX
  8
RE_DISPLAY_TOP
 10
65.270380
 20
38.735000
 40
0.000000
 41
0.000000
 42
1.000000
  0
VERTEX
  8
RE_DISPLAY_TOP
 10
64.269620
 20
38.735000
 40
0.000000
 41
0.000000
 42
1.000000
  0
SEQEND
  0
POLYLINE
  8
RE_DISPLAY_TOP
 66
1
 70
1
 40
0.000000
 41
0.000000
 39
0.000000
  0
VERTEX
  8
RE_DISPLAY_TOP
 10
57.980580
 20
92.710000
 40
0.000000
 41
0.000000
 42
1.000000
  0
VERTEX
  8
RE_DISPLAY_TOP
 10
57.081420
 20
92.710000
 40
0.000000
 41
0.000000
 42
1.000000
  0
SEQEND
  0
POLYLINE
  8
RE_DISPLAY_TOP
 66
1
 70
1
 40
0.000000
 41
0.000000
 39
0.000000
  0
VERTEX
  8
RE_DISPLAY_TOP
 10
57.980580
 20
95.250000
 40
0.000000
 41
0.000000
 42
1.000000
  0
VERTEX
  8
RE_DISPLAY_TOP
 10
57.081420
 20
95.250000
 40
0.000000
 41
0.000000
 42
1.000000
  0
SEQEND
  0
POLYLINE
  8
RE_DISPLAY_TOP
 66
1
 70
1
 40
0.000000
 41
0.000000
 39
0.000000
  0
VERTEX
  8
RE_DISPLAY_TOP
 10
61.587380
 20
26.289000
 40
0.000000
 41
0.000000
 42
1.000000
  0
VERTEX
  8
RE_DISPLAY_TOP
 10
60.586620
 20
26.289000
 40
0.000000
 41
0.000000
 42
1.000000
  0
SEQEND
  0
POLYLINE
  8
RE_DISPLAY_TOP
 66
1
 70
1
 40
0.000000
 41
0.000000
 39
0.000000
  0
VERTEX
  8
RE_DISPLAY_TOP
 10
59.047380
 20
26.289000
 40
0.000000
 41
0.000000
 42
1.000000
  0
VERTEX
  8
RE_DISPLAY_TOP
 10
58.046620
 20
26.289000
 40
0.000000
 41
0.000000
 42
1.000000
  0
SEQEND
  0
POLYLINE
  8
RE_DISPLAY_TOP
 66
1
 70
1
 40
0.000000
 41
0.000000
 39
0.000000
  0
VERTEX
  8
RE_DISPLAY_TOP
 10
52.900580
 20
92.710000
 40
0.000000
 41
0.000000
 42
1.000000
  0
VERTEX
  8
RE_DISPLAY_TOP
 10
52.001420
 20
92.710000
 40
0.000000
 41
0.000000
 42
1.000000
  0
SEQEND
  0
POLYLINE
  8
RE_DISPLAY_TOP
 66
1
 70
1
 40
0.000000
 41
0.000000
 39
0.000000
  0
VERTEX
  8
RE_DISPLAY_TOP
 10
55.440580
 20
92.710000
 40
0.000000
 41
0.000000
 42
1.000000
  0
VERTEX
  8
RE_DISPLAY_TOP
 10
54.541420
 20
92.710000
 40
0.000000
 41
0.000000
 42
1.000000
  0
SEQEND
  0
POLYLINE
  8
RE_DISPLAY_TOP
 66
1
 70
1
 40
0.000000
 41
0.000000
 39
0.000000
  0
VERTEX
  8
RE_DISPLAY_TOP
 10
52.900580
 20
95.250000
 40
0.000000
 41
0.000000
 42
1.000000
  0
VERTEX
  8
RE_DISPLAY_TOP
 10
52.001420
 20
95.250000
 40
0.000000
 41
0.000000
 42
1.000000
  0
SEQEND
  0
POLYLINE
  8
RE_DISPLAY_TOP
 66
1
 70
1
 40
0.000000
 41
0.000000
 39
0.000000
  0
VERTEX
  8
RE_DISPLAY_TOP
 10
55.440580
 20
95.250000
 40
0.000000
 41
0.000000
 42
1.000000
  0
VERTEX
  8
RE_DISPLAY_TOP
 10
54.541420
 20
95.250000
 40
0.000000
 41
0.000000
 42
1.000000
  0
SEQEND
  0
POLYLINE
  8
RE_DISPLAY_TOP
 66
1
 70
1
 40
0.000000
 41
0.000000
 39
0.000000
  0
VERTEX
  8
RE_DISPLAY_TOP
 10
45.280580
 20
92.710000
 40
0.000000
 41
0.000000
 42
1.000000
  0
VERTEX
  8
RE_DISPLAY_TOP
 10
44.381420
 20
92.710000
 40
0.000000
 41
0.000000
 42
1.000000
  0
SEQEND
  0
POLYLINE
  8
RE_DISPLAY_TOP
 66
1
 70
1
 40
0.000000
 41
0.000000
 39
0.000000
  0
VERTEX
  8
RE_DISPLAY_TOP
 10
47.820580
 20
92.710000
 40
0.000000
 41
0.000000
 42
1.000000
  0
VERTEX
  8
RE_DISPLAY_TOP
 10
46.921420
 20
92.710000
 40
0.000000
 41
0.000000
 42
1.000000
  0
SEQEND
  0
POLYLINE
  8
RE_DISPLAY_TOP
 66
1
 70
1
 40
0.000000
 41
0.000000
 39
0.000000
  0
VERTEX
  8
RE_DISPLAY_TOP
 10
50.360580
 20
92.710000
 40
0.000000
 41
0.000000
 42
1.000000
  0
VERTEX
  8
RE_DISPLAY_TOP
 10
49.461420
 20
92.710000
 40
0.000000
 41
0.000000
 42
1.000000
  0
SEQEND
  0
POLYLINE
  8
RE_DISPLAY_TOP
 66
1
 70
1
 40
0.000000
 41
0.000000
 39
0.000000
  0
VERTEX
  8
RE_DISPLAY_TOP
 10
45.280580
 20
95.250000
 40
0.000000
 41
0.000000
 42
1.000000
  0
VERTEX
  8
RE_DISPLAY_TOP
 10
44.381420
 20
95.250000
 40
0.000000
 41
0.000000
 42
1.000000
  0
SEQEND
  0
POLYLINE
  8
RE_DISPLAY_TOP
 66
1
 70
1
 40
0.000000
 41
0.000000
 39
0.000000
  0
VERTEX
  8
RE_DISPLAY_TOP
 10
47.820580
 20
95.250000
 40
0.000000
 41
0.000000
 42
1.000000
  0
VERTEX
  8
RE_DISPLAY_TOP
 10
46.921420
 20
95.250000
 40
0.000000
 41
0.000000
 42
1.000000
  0
SEQEND
  0
POLYLINE
  8
RE_DISPLAY_TOP
 66
1
 70
1
 40
0.000000
 41
0.000000
 39
0.000000
  0
VERTEX
  8
RE_DISPLAY_TOP
 10
50.360580
 20
95.250000
 40
0.000000
 41
0.000000
 42
1.000000
  0
VERTEX
  8
RE_DISPLAY_TOP
 10
49.461420
 20
95.250000
 40
0.000000
 41
0.000000
 42
1.000000
  0
SEQEND
  0
POLYLINE
  8
RE_DISPLAY_TOP
 66
1
 70
1
 40
0.000000
 41
0.000000
 39
0.000000
  0
VERTEX
  8
RE_DISPLAY_TOP
 10
40.200580
 20
92.710000
 40
0.000000
 41
0.000000
 42
1.000000
  0
VERTEX
  8
RE_DISPLAY_TOP
 10
39.301420
 20
92.710000
 40
0.000000
 41
0.000000
 42
1.000000
  0
SEQEND
  0
POLYLINE
  8
RE_DISPLAY_TOP
 66
1
 70
1
 40
0.000000
 41
0.000000
 39
0.000000
  0
VERTEX
  8
RE_DISPLAY_TOP
 10
42.740580
 20
92.710000
 40
0.000000
 41
0.000000
 42
1.000000
  0
VERTEX
  8
RE_DISPLAY_TOP
 10
41.841420
 20
92.710000
 40
0.000000
 41
0.000000
 42
1.000000
  0
SEQEND
  0
POLYLINE
  8
RE_DISPLAY_TOP
 66
1
 70
1
 40
0.000000
 41
0.000000
 39
0.000000
  0
VERTEX
  8
RE_DISPLAY_TOP
 10
40.200580
 20
95.250000
 40
0.000000
 41
0.000000
 42
1.000000
  0
VERTEX
  8
RE_DISPLAY_TOP
 10
39.301420
 20
95.250000
 40
0.000000
 41
0.000000
 42
1.000000
  0
SEQEND
  0
POLYLINE
  8
RE_DISPLAY_TOP
 66
1
 70
1
 40
0.000000
 41
0.000000
 39
0.000000
  0
VERTEX
  8
RE_DISPLAY_TOP
 10
42.740580
 20
95.250000
 40
0.000000
 41
0.000000
 42
1.000000
  0
VERTEX
  8
RE_DISPLAY_TOP
 10
41.841420
 20
95.250000
 40
0.000000
 41
0.000000
 42
1.000000
  0
SEQEND
  0
POLYLINE
  8
RE_DISPLAY_TOP
 66
1
 70
1
 40
0.000000
 41
0.000000
 39
0.000000
  0
VERTEX
  8
RE_DISPLAY_TOP
 10
35.120580
 20
92.710000
 40
0.000000
 41
0.000000
 42
1.000000
  0
VERTEX
  8
RE_DISPLAY_TOP
 10
34.221420
 20
92.710000
 40
0.000000
 41
0.000000
 42
1.000000
  0
SEQEND
  0
POLYLINE
  8
RE_DISPLAY_TOP
 66
1
 70
1
 40
0.000000
 41
0.000000
 39
0.000000
  0
VERTEX
  8
RE_DISPLAY_TOP
 10
37.660580
 20
92.710000
 40
0.000000
 41
0.000000
 42
1.000000
  0
VERTEX
  8
RE_DISPLAY_TOP
 10
36.761420
 20
92.710000
 40
0.000000
 41
0.000000
 42
1.000000
  0
SEQEND
  0
POLYLINE
  8
RE_DISPLAY_TOP
 66
1
 70
1
 40
0.000000
 41
0.000000
 39
0.000000
  0
VERTEX
  8
RE_DISPLAY_TOP
 10
35.120580
 20
95.250000
 40
0.000000
 41
0.000000
 42
1.000000
  0
VERTEX
  8
RE_DISPLAY_TOP
 10
34.221420
 20
95.250000
 40
0.000000
 41
0.000000
 42
1.000000
  0
SEQEND
  0
POLYLINE
  8
RE_DISPLAY_TOP
 66
1
 70
1
 40
0.000000
 41
0.000000
 39
0.000000
  0
VERTEX
  8
RE_DISPLAY_TOP
 10
37.660580
 20
95.250000
 40
0.000000
 41
0.000000
 42
1.000000
  0
VERTEX
  8
RE_DISPLAY_TOP
 10
36.761420
 20
95.250000
 40
0.000000
 41
0.000000
 42
1.000000
  0
SEQEND
  0
POLYLINE
  8
RE_DISPLAY_TOP
 66
1
 70
1
 40
0.000000
 41
0.000000
 39
0.000000
  0
VERTEX
  8
RE_DISPLAY_TOP
 10
30.040580
 20
92.710000
 40
0.000000
 41
0.000000
 42
1.000000
  0
VERTEX
  8
RE_DISPLAY_TOP
 10
29.141420
 20
92.710000
 40
0.000000
 41
0.000000
 42
1.000000
  0
SEQEND
  0
POLYLINE
  8
RE_DISPLAY_TOP
 66
1
 70
1
 40
0.000000
 41
0.000000
 39
0.000000
  0
VERTEX
  8
RE_DISPLAY_TOP
 10
32.580580
 20
92.710000
 40
0.000000
 41
0.000000
 42
1.000000
  0
VERTEX
  8
RE_DISPLAY_TOP
 10
31.681420
 20
92.710000
 40
0.000000
 41
0.000000
 42
1.000000
  0
SEQEND
  0
POLYLINE
  8
RE_DISPLAY_TOP
 66
1
 70
1
 40
0.000000
 41
0.000000
 39
0.000000
  0
VERTEX
  8
RE_DISPLAY_TOP
 10
30.040580
 20
95.250000
 40
0.000000
 41
0.000000
 42
1.000000
  0
VERTEX
  8
RE_DISPLAY_TOP
 10
29.141420
 20
95.250000
 40
0.000000
 41
0.000000
 42
1.000000
  0
SEQEND
  0
POLYLINE
  8
RE_DISPLAY_TOP
 66
1
 70
1
 40
0.000000
 41
0.000000
 39
0.000000
  0
VERTEX
  8
RE_DISPLAY_TOP
 10
32.580580
 20
95.250000
 40
0.000000
 41
0.000000
 42
1.000000
  0
VERTEX
  8
RE_DISPLAY_TOP
 10
31.681420
 20
95.250000
 40
0.000000
 41
0.000000
 42
1.000000
  0
SEQEND
  0
POLYLINE
  8
RE_DISPLAY_TOP
 66
1
 70
1
 40
0.000000
 41
0.000000
 39
0.000000
  0
VERTEX
  8
RE_DISPLAY_TOP
 10
22.420580
 20
92.710000
 40
0.000000
 41
0.000000
 42
1.000000
  0
VERTEX
  8
RE_DISPLAY_TOP
 10
21.521420
 20
92.710000
 40
0.000000
 41
0.000000
 42
1.000000
  0
SEQEND
  0
POLYLINE
  8
RE_DISPLAY_TOP
 66
1
 70
1
 40
0.000000
 41
0.000000
 39
0.000000
  0
VERTEX
  8
RE_DISPLAY_TOP
 10
24.960580
 20
92.710000
 40
0.000000
 41
0.000000
 42
1.000000
  0
VERTEX
  8
RE_DISPLAY_TOP
 10
24.061420
 20
92.710000
 40
0.000000
 41
0.000000
 42
1.000000
  0
SEQEND
  0
POLYLINE
  8
RE_DISPLAY_TOP
 66
1
 70
1
 40
0.000000
 41
0.000000
 39
0.000000
  0
VERTEX
  8
RE_DISPLAY_TOP
 10
27.500580
 20
92.710000
 40
0.000000
 41
0.000000
 42
1.000000
  0
VERTEX
  8
RE_DISPLAY_TOP
 10
26.601420
 20
92.710000
 40
0.000000
 41
0.000000
 42
1.000000
  0
SEQEND
  0
POLYLINE
  8
RE_DISPLAY_TOP
 66
1
 70
1
 40
0.000000
 41
0.000000
 39
0.000000
  0
VERTEX
  8
RE_DISPLAY_TOP
 10
22.420580
 20
95.250000
 40
0.000000
 41
0.000000
 42
1.000000
  0
VERTEX
  8
RE_DISPLAY_TOP
 10
21.521420
 20
95.250000
 40
0.000000
 41
0.000000
 42
1.000000
  0
SEQEND
  0
POLYLINE
  8
RE_DISPLAY_TOP
 66
1
 70
1
 40
0.000000
 41
0.000000
 39
0.000000
  0
VERTEX
  8
RE_DISPLAY_TOP
 10
24.960580
 20
95.250000
 40
0.000000
 41
0.000000
 42
1.000000
  0
VERTEX
  8
RE_DISPLAY_TOP
 10
24.061420
 20
95.250000
 40
0.000000
 41
0.000000
 42
1.000000
  0
SEQEND
  0
POLYLINE
  8
RE_DISPLAY_TOP
 66
1
 70
1
 40
0.000000
 41
0.000000
 39
0.000000
  0
VERTEX
  8
RE_DISPLAY_TOP
 10
27.500580
 20
95.250000
 40
0.000000
 41
0.000000
 42
1.000000
  0
VERTEX
  8
RE_DISPLAY_TOP
 10
26.601420
 20
95.250000
 40
0.000000
 41
0.000000
 42
1.000000
  0
SEQEND
  0
POLYLINE
  8
RE_DISPLAY_TOP
 66
1
 70
1
 40
0.000000
 41
0.000000
 39
0.000000
  0
VERTEX
  8
RE_DISPLAY_TOP
 10
17.340580
 20
92.710000
 40
0.000000
 41
0.000000
 42
1.000000
  0
VERTEX
  8
RE_DISPLAY_TOP
 10
16.441420
 20
92.710000
 40
0.000000
 41
0.000000
 42
1.000000
  0
SEQEND
  0
POLYLINE
  8
RE_DISPLAY_TOP
 66
1
 70
1
 40
0.000000
 41
0.000000
 39
0.000000
  0
VERTEX
  8
RE_DISPLAY_TOP
 10
19.880580
 20
92.710000
 40
0.000000
 41
0.000000
 42
1.000000
  0
VERTEX
  8
RE_DISPLAY_TOP
 10
18.981420
 20
92.710000
 40
0.000000
 41
0.000000
 42
1.000000
  0
SEQEND
  0
POLYLINE
  8
RE_DISPLAY_TOP
 66
1
 70
1
 40
0.000000
 41
0.000000
 39
0.000000
  0
VERTEX
  8
RE_DISPLAY_TOP
 10
17.340580
 20
95.250000
 40
0.000000
 41
0.000000
 42
1.000000
  0
VERTEX
  8
RE_DISPLAY_TOP
 10
16.441420
 20
95.250000
 40
0.000000
 41
0.000000
 42
1.000000
  0
SEQEND
  0
POLYLINE
  8
RE_DISPLAY_TOP
 66
1
 70
1
 40
0.000000
 41
0.000000
 39
0.000000
  0
VERTEX
  8
RE_DISPLAY_TOP
 10
19.880580
 20
95.250000
 40
0.000000
 41
0.000000
 42
1.000000
  0
VERTEX
  8
RE_DISPLAY_TOP
 10
18.981420
 20
95.250000
 40
0.000000
 41
0.000000
 42
1.000000
  0
SEQEND
  0
POLYLINE
  8
RE_DISPLAY_TOP
 66
1
 70
1
 40
0.000000
 41
0.000000
 39
0.000000
  0
VERTEX
  8
RE_DISPLAY_TOP
 10
16.629380
 20
2.540000
 40
0.000000
 41
0.000000
 42
1.000000
  0
VERTEX
  8
RE_DISPLAY_TOP
 10
15.628620
 20
2.540000
 40
0.000000
 41
0.000000
 42
1.000000
  0
SEQEND
  0
POLYLINE
  8
RE_DISPLAY_TOP
 66
1
 70
1
 40
0.000000
 41
0.000000
 39
0.000000
  0
VERTEX
  8
RE_DISPLAY_TOP
 10
14.089380
 20
2.540000
 40
0.000000
 41
0.000000
 42
1.000000
  0
VERTEX
  8
RE_DISPLAY_TOP
 10
13.088620
 20
2.540000
 40
0.000000
 41
0.000000
 42
1.000000
  0
SEQEND
  0
POLYLINE
  8
RE_DISPLAY_TOP
 66
1
 70
1
 40
0.000000
 41
0.000000
 39
0.000000
  0
VERTEX
  8
RE_DISPLAY_TOP
 10
7.231380
 20
90.932000
 40
0.000000
 41
0.000000
 42
1.000000
  0
VERTEX
  8
RE_DISPLAY_TOP
 10
6.230620
 20
90.932000
 40
0.000000
 41
0.000000
 42
1.000000
  0
SEQEND
  0
POLYLINE
  8
RE_DISPLAY_TOP
 66
1
 70
1
 40
0.000000
 41
0.000000
 39
0.000000
  0
VERTEX
  8
RE_DISPLAY_TOP
 10
7.231380
 20
84.132420
 40
0.000000
 41
0.000000
 42
1.000000
  0
VERTEX
  8
RE_DISPLAY_TOP
 10
6.230620
 20
84.132420
 40
0.000000
 41
0.000000
 42
1.000000
  0
SEQEND
  0
POLYLINE
  8
RE_DISPLAY_TOP
 66
1
 70
1
 40
0.000000
 41
0.000000
 39
0.000000
  0
VERTEX
  8
RE_DISPLAY_TOP
 10
5.293360
 20
75.819000
 40
0.000000
 41
0.000000
 42
1.000000
  0
VERTEX
  8
RE_DISPLAY_TOP
 10
4.292600
 20
75.819000
 40
0.000000
 41
0.000000
 42
1.000000
  0
SEQEND
  0
POLYLINE
  8
RE_DISPLAY_TOP
 66
1
 70
1
 40
0.000000
 41
0.000000
 39
0.000000
  0
VERTEX
  8
RE_DISPLAY_TOP
 10
5.293360
 20
69.469000
 40
0.000000
 41
0.000000
 42
1.000000
  0
VERTEX
  8
RE_DISPLAY_TOP
 10
4.292600
 20
69.469000
 40
0.000000
 41
0.000000
 42
1.000000
  0
SEQEND
  0
POLYLINE
  8
RE_DISPLAY_TOP
 66
1
 70
1
 40
0.000000
 41
0.000000
 39
0.000000
  0
VERTEX
  8
RE_DISPLAY_TOP
 10
5.293360
 20
63.119000
 40
0.000000
 41
0.000000
 42
1.000000
  0
VERTEX
  8
RE_DISPLAY_TOP
 10
4.292600
 20
63.119000
 40
0.000000
 41
0.000000
 42
1.000000
  0
SEQEND
  0
POLYLINE
  8
RE_DISPLAY_TOP
 66
1
 70
1
 40
0.000000
 41
0.000000
 39
0.000000
  0
VERTEX
  8
RE_DISPLAY_TOP
 10
5.293360
 20
56.769000
 40
0.000000
 41
0.000000
 42
1.000000
  0
VERTEX
  8
RE_DISPLAY_TOP
 10
4.292600
 20
56.769000
 40
0.000000
 41
0.000000
 42
1.000000
  0
SEQEND
  0
POLYLINE
  8
RE_DISPLAY_TOP
 66
1
 70
1
 40
0.000000
 41
0.000000
 39
0.000000
  0
VERTEX
  8
RE_DISPLAY_TOP
 10
7.231380
 20
16.764000
 40
0.000000
 41
0.000000
 42
1.000000
  0
VERTEX
  8
RE_DISPLAY_TOP
 10
6.230620
 20
16.764000
 40
0.000000
 41
0.000000
 42
1.000000
  0
SEQEND
  0
POLYLINE
  8
RE_DISPLAY_TOP
 66
1
 70
1
 40
0.000000
 41
0.000000
 39
0.000000
  0
VERTEX
  8
RE_DISPLAY_TOP
 10
7.231380
 20
9.964420
 40
0.000000
 41
0.000000
 42
1.000000
  0
VERTEX
  8
RE_DISPLAY_TOP
 10
6.230620
 20
9.964420
 40
0.000000
 41
0.000000
 42
1.000000
  0
SEQEND
  0
POLYLINE
  8
RE_DISPLAY_TOP
 66
1
 70
1
 40
0.000000
 41
0.000000
 39
0.000000
  0
VERTEX
  8
RE_DISPLAY_TOP
 10
2.730500
 20
90.932000
 40
0.000000
 41
0.000000
 42
1.000000
  0
VERTEX
  8
RE_DISPLAY_TOP
 10
1.729740
 20
90.932000
 40
0.000000
 41
0.000000
 42
1.000000
  0
SEQEND
  0
POLYLINE
  8
RE_DISPLAY_TOP
 66
1
 70
1
 40
0.000000
 41
0.000000
 39
0.000000
  0
VERTEX
  8
RE_DISPLAY_TOP
 10
2.730500
 20
84.132420
 40
0.000000
 41
0.000000
 42
1.000000
  0
VERTEX
  8
RE_DISPLAY_TOP
 10
1.729740
 20
84.132420
 40
0.000000
 41
0.000000
 42
1.000000
  0
SEQEND
  0
POLYLINE
  8
RE_DISPLAY_TOP
 66
1
 70
1
 40
0.000000
 41
0.000000
 39
0.000000
  0
VERTEX
  8
RE_DISPLAY_TOP
 10
2.702560
 20
75.819000
 40
0.000000
 41
0.000000
 42
1.000000
  0
VERTEX
  8
RE_DISPLAY_TOP
 10
1.803400
 20
75.819000
 40
0.000000
 41
0.000000
 42
1.000000
  0
SEQEND
  0
POLYLINE
  8
RE_DISPLAY_TOP
 66
1
 70
1
 40
0.000000
 41
0.000000
 39
0.000000
  0
VERTEX
  8
RE_DISPLAY_TOP
 10
2.702560
 20
69.469000
 40
0.000000
 41
0.000000
 42
1.000000
  0
VERTEX
  8
RE_DISPLAY_TOP
 10
1.803400
 20
69.469000
 40
0.000000
 41
0.000000
 42
1.000000
  0
SEQEND
  0
POLYLINE
  8
RE_DISPLAY_TOP
 66
1
 70
1
 40
0.000000
 41
0.000000
 39
0.000000
  0
VERTEX
  8
RE_DISPLAY_TOP
 10
2.702560
 20
63.119000
 40
0.000000
 41
0.000000
 42
1.000000
  0
VERTEX
  8
RE_DISPLAY_TOP
 10
1.803400
 20
63.119000
 40
0.000000
 41
0.000000
 42
1.000000
  0
SEQEND
  0
POLYLINE
  8
RE_DISPLAY_TOP
 66
1
 70
1
 40
0.000000
 41
0.000000
 39
0.000000
  0
VERTEX
  8
RE_DISPLAY_TOP
 10
2.702560
 20
56.769000
 40
0.000000
 41
0.000000
 42
1.000000
  0
VERTEX
  8
RE_DISPLAY_TOP
 10
1.803400
 20
56.769000
 40
0.000000
 41
0.000000
 42
1.000000
  0
SEQEND
  0
POLYLINE
  8
RE_DISPLAY_TOP
 66
1
 70
1
 40
0.000000
 41
0.000000
 39
0.000000
  0
VERTEX
  8
RE_DISPLAY_TOP
 10
2.730500
 20
16.764000
 40
0.000000
 41
0.000000
 42
1.000000
  0
VERTEX
  8
RE_DISPLAY_TOP
 10
1.729740
 20
16.764000
 40
0.000000
 41
0.000000
 42
1.000000
  0
SEQEND
  0
POLYLINE
  8
RE_DISPLAY_TOP
 66
1
 70
1
 40
0.000000
 41
0.000000
 39
0.000000
  0
VERTEX
  8
RE_DISPLAY_TOP
 10
2.730500
 20
9.964420
 40
0.000000
 41
0.000000
 42
1.000000
  0
VERTEX
  8
RE_DISPLAY_TOP
 10
1.729740
 20
9.964420
 40
0.000000
 41
0.000000
 42
1.000000
  0
SEQEND
  0
POLYLINE
  8
BG_OUTLINE
 66
1
 70
1
 40
0.000000
 41
0.000000
 39
0.000000
  0
VERTEX
  8
BG_OUTLINE
 10
2.999740
 20
99.999800
 40
0.000000
 41
0.000000
 42
0.000000
  0
VERTEX
  8
BG_OUTLINE
 10
67.000120
 20
99.999800
 40
0.000000
 41
0.000000
 42
-0.414185
  0
VERTEX
  8
BG_OUTLINE
 10
69.999860
 20
97.000060
 40
0.000000
 41
0.000000
 42
0.000000
  0
VERTEX
  8
BG_OUTLINE
 10
69.999860
 20
2.999740
 40
0.000000
 41
0.000000
 42
-0.414172
  0
VERTEX
  8
BG_OUTLINE
 10
67.000120
 20
0.000000
 40
0.000000
 41
0.000000
 42
0.000000
  0
VERTEX
  8
BG_OUTLINE
 10
2.999740
 20
0.000000
 40
0.000000
 41
0.000000
 42
-0.414163
  0
VERTEX
  8
BG_OUTLINE
 10
0.000000
 20
2.999740
 40
0.000000
 41
0.000000
 42
0.000000
  0
VERTEX
  8
BG_OUTLINE
 10
0.000000
 20
97.000060
 40
0.000000
 41
0.000000
 42
-0.414176
  0
SEQEND
  0
TEXT
  8
BO_SILKSCREEN_BOTTOM
 10
60.871100
 20
35.560000
 11
0.000000
 21
0.000000
 40
1.270000
 41
1.020000
 50
0.000000
  7
STANDARD
 71
2
 72
0
  1
OV5640
 73
0
  0
TEXT
  8
BO_SILKSCREEN_BOTTOM
 10
57.556400
 20
38.417500
 11
0.000000
 21
0.000000
 40
0.635000
 41
0.880000
 50
0.000000
  7
STANDARD
 71
2
 72
0
  1
PWDN
 73
0
  0
TEXT
  8
BO_SILKSCREEN_BOTTOM
 10
62.712600
 20
38.417500
 11
0.000000
 21
0.000000
 40
0.635000
 41
0.880000
 50
0.000000
  7
STANDARD
 71
2
 72
0
  1
NC
 73
0
  0
TEXT
  8
BO_SILKSCREEN_BOTTOM
 10
57.607200
 20
41.064180
 11
0.000000
 21
0.000000
 40
0.635000
 41
0.880000
 50
0.000000
  7
STANDARD
 71
2
 72
0
  1
DCMI_PIXCLK
 73
0
  0
TEXT
  8
BO_SILKSCREEN_BOTTOM
 10
62.839600
 20
41.064180
 11
0.000000
 21
0.000000
 40
0.635000
 41
0.880000
 50
0.000000
  7
STANDARD
 71
2
 72
0
  1
DCMI_D7
 73
0
  0
TEXT
  8
BO_SILKSCREEN_BOTTOM
 10
57.759600
 20
43.604180
 11
0.000000
 21
0.000000
 40
0.635000
 41
0.880000
 50
0.000000
  7
STANDARD
 71
2
 72
0
  1
DCMI_D6
 73
0
  0
TEXT
  8
BO_SILKSCREEN_BOTTOM
 10
62.839600
 20
43.604180
 11
0.000000
 21
0.000000
 40
0.635000
 41
0.880000
 50
0.000000
  7
STANDARD
 71
2
 72
0
  1
DCMI_D5
 73
0
  0
TEXT
  8
BO_SILKSCREEN_BOTTOM
 10
57.759600
 20
46.144180
 11
0.000000
 21
0.000000
 40
0.635000
 41
0.880000
 50
0.000000
  7
STANDARD
 71
2
 72
0
  1
DCMI_D4
 73
0
  0
TEXT
  8
BO_SILKSCREEN_BOTTOM
 10
62.839600
 20
46.144180
 11
0.000000
 21
0.000000
 40
0.635000
 41
0.880000
 50
0.000000
  7
STANDARD
 71
2
 72
0
  1
DCMI_D3
 73
0
  0
TEXT
  8
BO_SILKSCREEN_BOTTOM
 10
57.759600
 20
48.684180
 11
0.000000
 21
0.000000
 40
0.635000
 41
0.880000
 50
0.000000
  7
STANDARD
 71
2
 72
0
  1
DCMI_D2
 73
0
  0
TEXT
  8
BO_SILKSCREEN_BOTTOM
 10
62.839600
 20
48.684180
 11
0.000000
 21
0.000000
 40
0.635000
 41
0.880000
 50
0.000000
  7
STANDARD
 71
2
 72
0
  1
DCMI_D1
 73
0
  0
TEXT
  8
BO_SILKSCREEN_BOTTOM
 10
57.759600
 20
51.224180
 11
0.000000
 21
0.000000
 40
0.635000
 41
0.880000
 50
0.000000
  7
STANDARD
 71
2
 72
0
  1
DCMI_D0
 73
0
  0
TEXT
  8
BO_SILKSCREEN_BOTTOM
 10
62.915800
 20
51.117500
 11
0.000000
 21
0.000000
 40
0.635000
 41
0.880000
 50
0.000000
  7
STANDARD
 71
2
 72
0
  1
RESET
 73
0
  0
TEXT
  8
BO_SILKSCREEN_BOTTOM
 10
56.642000
 20
53.657500
 11
0.000000
 21
0.000000
 40
0.635000
 41
0.880000
 50
0.000000
  7
STANDARD
 71
2
 72
0
  1
SDA
 73
0
  0
TEXT
  8
BO_SILKSCREEN_BOTTOM
 10
63.042800
 20
53.764180
 11
0.000000
 21
0.000000
 40
0.635000
 41
0.880000
 50
0.000000
  7
STANDARD
 71
2
 72
0
  1
DCMI_HSYNC
 73
0
  0
TEXT
  8
BO_SILKSCREEN_BOTTOM
 10
56.642000
 20
56.197500
 11
0.000000
 21
0.000000
 40
0.635000
 41
0.880000
 50
0.000000
  7
STANDARD
 71
2
 72
0
  1
SCL
 73
0
  0
TEXT
  8
BO_SILKSCREEN_BOTTOM
 10
63.042800
 20
56.304180
 11
0.000000
 21
0.000000
 40
0.635000
 41
0.880000
 50
0.000000
  7
STANDARD
 71
2
 72
0
  1
DCMI_VSYNC
 73
0
  0
TEXT
  8
BO_SILKSCREEN_BOTTOM
 10
59.817000
 20
58.737500
 11
0.000000
 21
0.000000
 40
0.635000
 41
0.880000
 50
0.000000
  7
STANDARD
 71
2
 72
0
  1
GND
 73
0
  0
TEXT
  8
BO_SILKSCREEN_BOTTOM
 10
62.992000
 20
58.737500
 11
0.000000
 21
0.000000
 40
0.635000
 41
0.880000
 50
0.000000
  7
STANDARD
 71
2
 72
0
  1
3V3
 73
0
  0
ENDSEC
  0
EOF
