G04 ================== begin FILE IDENTIFICATION RECORD ==================*
G04 Layout Name:  D:/STM32F407 LWIP/物体识别  8.12/PCB/LAYOUT/BaseBoard.brd*
G04 Film Name:    03_DRILL*
G04 File Format:  Gerber RS274X*
G04 File Origin:  Cadence Allegro 16.6-2015-S108*
G04 Origin Date:  Sun Sep 08 08:31:49 2019*
G04 *
G04 Layer:  MANUFACTURING/NCLEGEND-1-2*
G04 Layer:  BOARD GEOMETRY/OUTLINE*
G04 Layer:  BOARD GEOMETRY/DIMENSION*
G04 Layer:  MANUFACTURING/NCDRILL_LEGEND*
G04 Layer:  MANUFACTURING/NCDRILL_FIGURE*
G04 *
G04 Offset:    (0.0 0.0)*
G04 Mirror:    No*
G04 Mode:      Positive*
G04 Rotation:  0*
G04 FullContactRelief:  No*
G04 UndefLineWidth:     6.0*
G04 ================== end FILE IDENTIFICATION RECORD ====================*
%FSLAX25Y25*MOIN*%
%IR0*IPPOS*OFA0.00000B0.00000*MIA0B0*SFA1.00000B1.00000*%
%AMMACRO10*
1,1,.006,.006,0.0*
20,1,.006,.006,0.0,-.006,0.0,0.0*
1,1,.006,-.006,0.0*
1,1,.006,0.0,.006*
20,1,.006,0.0,.006,0.0,-.006,0.0*
1,1,.006,0.0,-.006*
%
%ADD10MACRO10*%
%AMMACRO12*
1,1,.006,.0177,.0177*
20,1,.006,.0177,.0177,.0177,-.0177,0.0*
1,1,.006,.0177,-.0177*
20,1,.006,.0177,-.0177,-.0177,-.0177,0.0*
1,1,.006,-.0177,-.0177*
20,1,.006,-.0177,-.0177,-.0177,.0177,0.0*
1,1,.006,-.0177,.0177*
20,1,.006,-.0177,.0177,.0177,.0177,0.0*
1,1,.006,.0177,.0177*
%
%ADD12MACRO12*%
%AMMACRO11*
1,1,.006,.0197,0.0*
20,1,.006,.0197,0.0,.00985,.017061,0.0*
1,1,.006,.00985,.017061*
20,1,.006,.00985,.017061,-.00985,.017061,0.0*
1,1,.006,-.00985,.017061*
20,1,.006,-.00985,.017061,-.0197,0.0,0.0*
1,1,.006,-.0197,0.0*
20,1,.006,-.0197,0.0,-.00985,-.017061,0.0*
1,1,.006,-.00985,-.017061*
20,1,.006,-.00985,-.017061,.00985,-.017061,0.0*
1,1,.006,.00985,-.017061*
20,1,.006,.00985,-.017061,.0197,0.0,0.0*
1,1,.006,.0197,0.0*
%
%ADD11MACRO11*%
%AMMACRO13*
1,1,.006,0.0,.0197*
20,1,.006,0.0,.0197,-.017061,.00985,0.0*
1,1,.006,-.017061,.00985*
20,1,.006,-.017061,.00985,-.017061,-.00985,0.0*
1,1,.006,-.017061,-.00985*
20,1,.006,-.017061,-.00985,0.0,-.0197,0.0*
1,1,.006,0.0,-.0197*
20,1,.006,0.0,-.0197,.017061,-.00985,0.0*
1,1,.006,.017061,-.00985*
20,1,.006,.017061,-.00985,.017061,.00985,0.0*
1,1,.006,.017061,.00985*
20,1,.006,.017061,.00985,0.0,.0197,0.0*
1,1,.006,0.0,.0197*
%
%ADD13MACRO13*%
%ADD14C,.006*%
G75*
%LPD*%
G75*
G54D10*
X3000Y17000D03*
Y12000D03*
X4500Y7500D03*
X8500Y4000D03*
X3000Y32000D03*
Y27000D03*
Y22000D03*
X13000Y51500D03*
Y46500D03*
Y56500D03*
X3000Y56000D03*
Y51000D03*
Y46000D03*
Y85000D03*
Y80000D03*
Y75000D03*
Y70000D03*
X9000Y83950D03*
X3000Y110000D03*
Y105000D03*
Y100000D03*
Y95000D03*
Y90000D03*
Y130000D03*
Y125000D03*
Y120000D03*
Y115000D03*
Y155000D03*
Y150000D03*
Y145000D03*
Y140000D03*
Y135000D03*
Y180000D03*
Y175000D03*
Y170000D03*
Y165000D03*
Y160000D03*
Y200000D03*
Y195000D03*
Y190000D03*
Y185000D03*
Y215000D03*
Y210000D03*
Y205000D03*
Y240000D03*
Y235000D03*
Y230000D03*
Y265000D03*
Y260000D03*
Y255000D03*
Y290000D03*
Y285000D03*
Y280000D03*
Y315000D03*
Y310000D03*
Y305000D03*
X12500Y338500D03*
X3000Y338000D03*
Y325000D03*
Y320000D03*
X12500Y343500D03*
Y348500D03*
X3000Y348000D03*
Y343000D03*
Y379500D03*
Y374500D03*
Y369500D03*
Y364500D03*
X8000Y389500D03*
X4500Y386500D03*
X16000Y3000D03*
X21000D03*
X26000D03*
X31000D03*
X36000D03*
X18000Y51500D03*
Y46500D03*
X23000D03*
Y51500D03*
Y56500D03*
X18000D03*
X36500Y80500D03*
X23000Y104000D03*
X28000D03*
X33000D03*
Y109000D03*
X34000Y120500D03*
X26000Y127000D03*
X31000D03*
Y130000D03*
X26000D03*
Y139000D03*
X31000D03*
Y144000D03*
Y149000D03*
Y154000D03*
X26000Y144000D03*
Y149000D03*
Y154000D03*
X34000Y173000D03*
X30880Y161380D03*
X30500Y176140D03*
X36000Y312000D03*
Y322000D03*
Y317000D03*
Y327000D03*
X31000Y338500D03*
X36000D03*
Y333500D03*
X17500Y338500D03*
X22500D03*
X31000Y343500D03*
X36000D03*
Y348500D03*
X31000D03*
X17500Y343500D03*
X22500D03*
Y348500D03*
X17500D03*
X35500Y365000D03*
Y375000D03*
Y370000D03*
Y380000D03*
Y390500D03*
X30500D03*
X25500D03*
X20500D03*
X15500D03*
X41000Y3000D03*
X46000D03*
X51000D03*
X56000D03*
X41000Y60500D03*
Y65500D03*
Y70500D03*
X46000D03*
X51000D03*
X56000D03*
X54000Y80500D03*
X59500Y93500D03*
Y103500D03*
Y98500D03*
Y108500D03*
X38500Y120500D03*
X55000Y134000D03*
Y139000D03*
X50800Y138700D03*
X38500Y173000D03*
X37500Y165000D03*
X41500Y169000D03*
X41000Y179500D03*
X59000Y170500D03*
Y194000D03*
X55000Y190500D03*
X50500Y186500D03*
X46000Y181500D03*
X38500Y223500D03*
X57000Y288500D03*
Y293500D03*
X52000Y288500D03*
Y293500D03*
X41000Y312000D03*
X46000D03*
X51000D03*
X57000Y298500D03*
Y303500D03*
X52000Y298500D03*
Y303500D03*
X41000Y317000D03*
Y322000D03*
X46000D03*
Y317000D03*
X51000D03*
Y322000D03*
Y327000D03*
X46000D03*
X41000D03*
Y333500D03*
Y338500D03*
X46000D03*
Y333500D03*
X51000D03*
Y338500D03*
X41000Y343500D03*
X46000D03*
X51000D03*
Y348500D03*
X46000D03*
X41000D03*
X40500Y365000D03*
X45500D03*
X50500D03*
X40500Y370000D03*
Y375000D03*
X45500D03*
Y370000D03*
X50500D03*
Y375000D03*
Y380000D03*
X45500D03*
X40500D03*
X55500Y390500D03*
X50500D03*
X45500D03*
X40500D03*
X71500Y3000D03*
X76500D03*
X81500D03*
X75500Y55000D03*
Y58000D03*
X61000Y70500D03*
X66000D03*
X71000D03*
X76000D03*
X81000D03*
X64500Y93500D03*
X69500D03*
X74500D03*
X64500Y98500D03*
Y103500D03*
X69500D03*
Y98500D03*
X74500D03*
Y103500D03*
Y108500D03*
X69500D03*
X64500D03*
X65000Y134000D03*
X60000D03*
Y144000D03*
X65000Y139000D03*
X60000D03*
X63000Y154500D03*
X79500Y164000D03*
X63000Y170500D03*
X65750Y173250D03*
X66000Y167000D03*
Y200500D03*
X62500Y197000D03*
X70000Y208000D03*
X69500Y204000D03*
X62000Y288500D03*
X67000D03*
X62000Y293500D03*
X67000D03*
X62000Y298500D03*
X67000D03*
Y303500D03*
X62000D03*
X80500Y390500D03*
X75500D03*
X70500D03*
X65500D03*
X60500D03*
X86500Y3000D03*
X91500D03*
X96500D03*
X101500D03*
X86000Y70500D03*
X91000D03*
X96000D03*
X101000D03*
X104500Y93500D03*
Y98500D03*
Y103500D03*
Y108500D03*
X89500Y93500D03*
X94500D03*
X99500D03*
X89500Y103500D03*
Y98500D03*
X94500D03*
Y103500D03*
X99500D03*
Y98500D03*
Y108500D03*
X94500D03*
X89500D03*
X90500Y148500D03*
Y144560D03*
X86500Y157000D03*
X104500Y163500D03*
X96500Y164000D03*
Y171500D03*
X88500D03*
Y164000D03*
X95500Y187500D03*
X104000Y217500D03*
X96500Y214000D03*
X102000Y206000D03*
X101750Y209250D03*
X102000Y203000D03*
X96500Y217500D03*
X102950Y238050D03*
X94000Y242500D03*
X88500Y254500D03*
X86000Y252000D03*
X103000Y264000D03*
X98500Y269500D03*
X95000Y267500D03*
Y287500D03*
Y282500D03*
X100500Y337500D03*
Y332500D03*
Y328000D03*
Y323000D03*
Y318000D03*
X89500Y342500D03*
X105000Y357000D03*
Y347000D03*
Y352000D03*
X100000Y357000D03*
Y352000D03*
Y347000D03*
X100500Y342500D03*
Y390500D03*
X95500D03*
X90500D03*
X85500D03*
X106500Y3000D03*
X111500D03*
X116500D03*
X121500D03*
X126500D03*
X106000Y70500D03*
X111000D03*
X116000D03*
X121000D03*
X126000D03*
X125500Y94000D03*
Y104000D03*
Y99000D03*
Y109000D03*
X115500Y94000D03*
X120500D03*
X115500Y104000D03*
Y99000D03*
X120500D03*
Y104000D03*
Y109000D03*
X115500D03*
X112500Y128940D03*
X116440D03*
Y125000D03*
X112500D03*
X120380Y128940D03*
Y125000D03*
X106500Y155000D03*
Y150000D03*
Y145000D03*
Y140000D03*
Y135000D03*
X110500Y197000D03*
X108100Y194500D03*
X110000Y191500D03*
X128000Y187500D03*
X114000Y225500D03*
X122500Y217000D03*
X126500Y222000D03*
X122500D03*
X126500Y217000D03*
Y212500D03*
X108500Y236500D03*
Y240000D03*
X108250Y233250D03*
X107000Y264000D03*
X123500Y284500D03*
Y289500D03*
X113000Y311000D03*
X117000D03*
X120000Y308500D03*
X123500Y299500D03*
Y294500D03*
X118500Y299500D03*
X126500Y336000D03*
X124000Y333000D03*
Y326500D03*
Y321500D03*
Y316500D03*
X110000Y333000D03*
X115000D03*
Y323000D03*
Y328000D03*
X110000D03*
Y323000D03*
X105500Y337500D03*
Y332500D03*
Y328000D03*
Y318000D03*
Y323000D03*
Y342500D03*
X125500Y390500D03*
X120500D03*
X115500D03*
X110500D03*
X105500D03*
X131500Y3000D03*
X136500D03*
X141500D03*
X146500D03*
X131000Y65500D03*
Y60500D03*
X136000Y65500D03*
Y60500D03*
X142500Y48000D03*
X140000Y45500D03*
X145000D03*
Y50500D03*
X140000D03*
X131000Y70500D03*
X136000Y74440D03*
Y70500D03*
X130500Y94000D03*
Y99000D03*
Y104000D03*
Y109000D03*
X147500Y96000D03*
Y103000D03*
Y99500D03*
X147000Y148000D03*
X133500Y157000D03*
X140500Y142500D03*
X132500Y143000D03*
X140500Y139000D03*
X147000Y162500D03*
X131940Y191440D03*
X135880D03*
Y187500D03*
X131940D03*
X136210Y198930D03*
X150500Y212650D03*
X133000Y203000D03*
X146400Y208400D03*
X144000Y253500D03*
X148500Y249000D03*
X144000D03*
X139500D03*
Y253500D03*
X131090Y255000D03*
X128500Y279500D03*
Y284500D03*
X133500Y289500D03*
Y284500D03*
Y279500D03*
X128500Y289500D03*
X133500Y299500D03*
Y294500D03*
X128500Y299500D03*
Y294500D03*
X136500Y330000D03*
X137000Y326000D03*
X141000Y322000D03*
X137000D03*
X129000Y326500D03*
Y316500D03*
Y321500D03*
X150500Y390500D03*
X145500D03*
X140500D03*
X135500D03*
X130500D03*
X151500Y3000D03*
X156500D03*
X161500D03*
X166500D03*
X171500D03*
X169500Y63500D03*
X172000Y55980D03*
X161000Y44500D03*
X156000D03*
X169500Y68500D03*
Y73500D03*
X163500Y102500D03*
X168500D03*
X163500Y107500D03*
X168500D03*
X155500Y96000D03*
Y103000D03*
Y99500D03*
X151500Y96000D03*
Y103000D03*
Y99500D03*
X160000Y127000D03*
X156500Y124000D03*
X168500Y117500D03*
X163500D03*
Y112500D03*
X168500D03*
X154000Y134500D03*
Y130500D03*
X151500Y157000D03*
X154000Y138500D03*
Y142500D03*
X163000Y187000D03*
X155500Y219000D03*
X161500Y224000D03*
X153080Y215230D03*
X159500Y238000D03*
X153000Y253500D03*
X152750Y248750D03*
X156000Y285500D03*
X169000Y346500D03*
Y339600D03*
Y343000D03*
X170500Y390500D03*
X165500D03*
X160500D03*
X155500D03*
X176500Y3000D03*
X181500D03*
X186500D03*
X191500D03*
X189500Y63500D03*
X184500D03*
X179500D03*
X174500D03*
X193350Y48350D03*
X189250Y56250D03*
X175400Y55980D03*
X182000Y89500D03*
X187000D03*
X192000D03*
Y84500D03*
X187000D03*
X182000D03*
X177000D03*
X184500Y68500D03*
X179500D03*
X174500D03*
Y73500D03*
X179500D03*
X184500D03*
X189500D03*
Y68500D03*
X178500Y102500D03*
Y107500D03*
X173500Y102500D03*
Y107500D03*
X192000Y99500D03*
X187000Y94500D03*
X192000D03*
X178500Y117500D03*
X173500D03*
X178500Y112500D03*
X173500D03*
X185000Y207000D03*
X179500D03*
X178000Y243500D03*
X191760Y237240D03*
X190000Y229500D03*
X183000Y229000D03*
X175420Y246080D03*
X196000Y233000D03*
X173500Y257000D03*
X185500Y266000D03*
X180500D03*
X175500D03*
Y261000D03*
X180500D03*
X185500D03*
X190500D03*
Y266000D03*
X182910Y290880D03*
X180500Y281000D03*
Y286000D03*
X185500D03*
Y281000D03*
Y276000D03*
X180500D03*
Y271000D03*
X185500D03*
X190500D03*
Y276000D03*
Y281000D03*
Y286000D03*
X191500Y311500D03*
X182910Y302690D03*
Y296790D03*
X182900Y308600D03*
X196000Y302500D03*
X182910Y320410D03*
X182810Y326310D03*
X196000Y326500D03*
X191000Y343500D03*
X190900Y339600D03*
X184000Y346500D03*
X195500Y390500D03*
X190500D03*
X185500D03*
X180500D03*
X175500D03*
X196500Y3000D03*
X201500D03*
X206500D03*
X211500D03*
X216500D03*
X205500Y56000D03*
X215500D03*
X205500Y91000D03*
X215500D03*
X217500Y105500D03*
X215000Y137000D03*
X206000Y183000D03*
X212500Y264500D03*
X217500D03*
Y259500D03*
Y269500D03*
X212500D03*
X217500Y289500D03*
Y284500D03*
Y279500D03*
Y274500D03*
X212500D03*
Y279500D03*
Y284500D03*
Y289500D03*
X217500Y294500D03*
X212500D03*
Y299500D03*
Y304500D03*
Y309500D03*
Y314500D03*
X217500D03*
Y309500D03*
Y304500D03*
Y299500D03*
X214500Y327000D03*
X217500Y324000D03*
X212500D03*
X207000Y326000D03*
X208000Y341000D03*
X213000D03*
X218000D03*
X208000Y351000D03*
Y346000D03*
X213000D03*
Y351000D03*
X218000D03*
Y346000D03*
Y356000D03*
X213000D03*
X208000D03*
X215500Y390500D03*
X210500D03*
X205500D03*
X200500D03*
X221500Y3000D03*
X226500D03*
X231500D03*
X236500D03*
X235500Y43500D03*
X225500D03*
X237000Y66000D03*
X223500D03*
X227000Y83500D03*
Y87500D03*
X225500Y80000D03*
X224500Y97500D03*
Y102000D03*
Y107000D03*
X227000Y109500D03*
X234000D03*
X239000D03*
X227000Y92000D03*
X222500Y259500D03*
Y264500D03*
X227500D03*
Y259500D03*
X232500D03*
Y264500D03*
X237500D03*
Y259500D03*
X232500Y269500D03*
X237500D03*
X227500D03*
X222500D03*
X220270Y251000D03*
X237500Y289500D03*
X232500Y279500D03*
Y274500D03*
X237500D03*
Y279500D03*
Y284500D03*
X232500D03*
X227500D03*
Y279500D03*
Y274500D03*
X222500D03*
Y279500D03*
Y284500D03*
Y289500D03*
X237500Y294500D03*
X222500D03*
Y299500D03*
Y304500D03*
Y309500D03*
Y314500D03*
X239000Y299500D03*
X237000Y302690D03*
X236500Y314500D03*
X223590Y320410D03*
X220000Y327000D03*
X222500Y324000D03*
X223000Y341000D03*
Y346000D03*
Y351000D03*
Y356000D03*
X240500Y390500D03*
X235500D03*
X230500D03*
X225500D03*
X220500D03*
X241500Y3000D03*
X246500D03*
X251500D03*
X256500D03*
X261500D03*
X244600Y74500D03*
Y79500D03*
Y84500D03*
Y89500D03*
X244000Y109500D03*
X246500Y107000D03*
Y103000D03*
Y98000D03*
X249500Y240500D03*
X252500Y238960D03*
X256440Y243000D03*
X252500Y242900D03*
X262500Y257500D03*
X257500D03*
Y262500D03*
Y267500D03*
X262500D03*
X242500Y259500D03*
Y264500D03*
Y269500D03*
X259500Y254500D03*
X262500Y277500D03*
Y272500D03*
X257500D03*
Y277500D03*
Y282500D03*
X262500D03*
X242500Y274500D03*
Y279500D03*
Y284500D03*
Y289500D03*
Y294500D03*
X264000D03*
X259000D03*
X244000Y299500D03*
X249000D03*
X254000D03*
X259000D03*
X264000D03*
X242000Y302690D03*
X247000D03*
X252000D03*
X257000D03*
X261500Y314500D03*
X251500D03*
X246500D03*
X241500D03*
X247500Y327500D03*
X252500D03*
Y322500D03*
X257500D03*
Y327500D03*
X262500D03*
X242500Y321000D03*
Y317500D03*
X247500D03*
X252500D03*
X257500D03*
X262500D03*
Y322500D03*
X259500Y361500D03*
X254500D03*
X249500D03*
X244500D03*
X249500Y346500D03*
X254500D03*
X259500D03*
X249500Y351500D03*
Y356500D03*
X254500D03*
Y351500D03*
X259500D03*
Y356500D03*
X244500Y346500D03*
Y356500D03*
Y351500D03*
X254500Y340500D03*
X251500D03*
X260500Y390500D03*
X255500D03*
X250500D03*
X245500D03*
X268500Y4500D03*
X271500Y8000D03*
Y13000D03*
Y18000D03*
Y23000D03*
Y28000D03*
Y33000D03*
Y38000D03*
Y43000D03*
Y48000D03*
Y53000D03*
Y58000D03*
Y63000D03*
Y68000D03*
Y73000D03*
Y78000D03*
Y83000D03*
Y88000D03*
Y93000D03*
Y98000D03*
Y103000D03*
Y108000D03*
Y113000D03*
Y118000D03*
Y123000D03*
Y128000D03*
Y133000D03*
Y138000D03*
Y143000D03*
Y148000D03*
Y153000D03*
Y158000D03*
Y163000D03*
Y168000D03*
Y173000D03*
Y178000D03*
Y183000D03*
Y188000D03*
Y193000D03*
Y198000D03*
Y203000D03*
Y208000D03*
Y213000D03*
Y218000D03*
Y223000D03*
X272500Y235500D03*
Y240500D03*
Y245500D03*
X271500Y228000D03*
X267500Y267500D03*
X272500Y250500D03*
Y255500D03*
X267500Y272500D03*
Y277500D03*
Y282500D03*
X272500Y272500D03*
Y277500D03*
Y282500D03*
X269000Y299500D03*
X272500Y297500D03*
Y302500D03*
Y307500D03*
Y312500D03*
X267500Y327500D03*
Y317500D03*
Y322500D03*
X272500Y317500D03*
Y322500D03*
Y327500D03*
Y332500D03*
Y337500D03*
Y342500D03*
Y347500D03*
Y352500D03*
Y357500D03*
Y362500D03*
Y367500D03*
Y372500D03*
Y377500D03*
Y382500D03*
X270000Y388000D03*
X265500Y390500D03*
X399450Y306000D03*
G54D11*
X8780Y39230D03*
Y66000D03*
Y331230D03*
Y358000D03*
X26500Y39230D03*
Y66000D03*
Y331230D03*
Y358000D03*
X53500Y10000D03*
X230500Y103500D03*
X255000Y152500D03*
X265000D03*
X255000Y162500D03*
Y172500D03*
X265000Y162500D03*
Y172500D03*
X255000Y182500D03*
Y192500D03*
Y202500D03*
X265000Y182500D03*
Y192500D03*
Y202500D03*
X255000Y212500D03*
Y222500D03*
X265000Y212500D03*
Y222500D03*
X255000Y232500D03*
X265000D03*
X250000Y262500D03*
Y289270D03*
X267720Y262500D03*
Y289270D03*
X399450Y256000D03*
G54D12*
X8870Y223500D03*
Y248500D03*
Y273500D03*
Y298500D03*
X76500Y375000D03*
X66500D03*
X76500Y365000D03*
X66500D03*
X106500Y375000D03*
X96500D03*
X86500D03*
X106500Y365000D03*
X96500D03*
X86500D03*
X126500Y375000D03*
X116500D03*
X126500Y365000D03*
X116500D03*
X146500Y375000D03*
X136500D03*
X146500Y365000D03*
X136500D03*
X166500Y375000D03*
X156500D03*
X166500Y365000D03*
X156500D03*
X196500Y375000D03*
X186500D03*
X176500D03*
X196500Y365000D03*
X186500D03*
X176500D03*
X216500Y375000D03*
X206500D03*
X216500Y365000D03*
X206500D03*
X226500Y375000D03*
Y365000D03*
X399450Y281000D03*
G54D13*
X18870Y223500D03*
Y248500D03*
Y273500D03*
Y298500D03*
X63500Y10000D03*
X240500Y103500D03*
X399450Y231000D03*
G54D14*
G01X11810Y393700D02*
X263780D01*
G02X275590Y381890I-1J-11811D01*
G01Y11810D01*
G02X263780Y0I-11811J1D01*
G01X11810D01*
G02X0Y11810I1J11811D01*
G01Y381890D01*
G02X11810Y393700I11811J-1D01*
G01Y0D02*
X263780D01*
G01X0Y381890D02*
Y11810D01*
G01D02*
G03X11810Y0I11811J1D01*
G01Y393700D02*
G03X0Y381890I1J-11811D01*
G01X263780Y393700D02*
X11810D01*
G01X25590Y19690D02*
G03I-5905J-5D01*
G01Y374020D02*
G03I-5905J-4D01*
G01X261810Y19690D02*
G03I-5904J-5D01*
G01Y374020D02*
G03I-5904J-4D01*
G01X275590Y11810D02*
Y381890D01*
G01X263780Y0D02*
G03X275590Y11810I-1J11811D01*
G01Y381890D02*
G03X263780Y393700I-11811J-1D01*
G01X354500Y218500D02*
Y393500D01*
X838100D01*
Y218500D01*
X354500D01*
G01Y243500D02*
X838100D01*
G01X354500Y268500D02*
X838100D01*
G01X354500Y293500D02*
X838100D01*
G01X365500Y324750D02*
Y337250D01*
X371400D01*
G01X369220Y331210D02*
X365500D01*
G01X378990Y337250D02*
X382710D01*
G01X380850D02*
Y324750D01*
G01X378990D02*
X382710D01*
G01X394180Y331000D02*
X397280D01*
Y327250D01*
X396350Y326000D01*
X395260Y325170D01*
X393720Y324750D01*
X392170Y325170D01*
X391080Y326000D01*
X390150Y327250D01*
X389530Y328710D01*
X389220Y330370D01*
Y331830D01*
X389530Y333080D01*
X390150Y334540D01*
X391080Y335790D01*
X392010Y336620D01*
X393250Y337250D01*
X394330D01*
X395570Y336830D01*
X396510Y336000D01*
G01X402240Y337250D02*
Y328290D01*
X402860Y326420D01*
X404100Y325170D01*
X405650Y324750D01*
X407200Y325170D01*
X408440Y326420D01*
X409060Y328290D01*
Y337250D01*
G01X414950Y324750D02*
Y337250D01*
X418820D01*
X420060Y336620D01*
X420840Y335790D01*
X421150Y334120D01*
X420840Y332460D01*
X419910Y331420D01*
X418820Y330790D01*
X414950D01*
G01X418820D02*
X421150Y324750D01*
G01X433550D02*
X427350D01*
Y337250D01*
X433550D01*
G01X431070Y331210D02*
X427350D01*
G01X354500Y318500D02*
X838100D01*
G01X354500Y343500D02*
X838100D01*
G01X354500Y368500D02*
X838100D01*
G01X437890Y374750D02*
Y387250D01*
X440990D01*
X442230Y386620D01*
X443160Y385790D01*
X443940Y384540D01*
X444560Y383080D01*
X444710Y381000D01*
X444560Y378920D01*
X443940Y377460D01*
X443160Y376210D01*
X442230Y375370D01*
X440990Y374750D01*
X437890D01*
G01X450600D02*
Y387250D01*
X454470D01*
X455710Y386620D01*
X456490Y385790D01*
X456800Y384120D01*
X456490Y382460D01*
X455560Y381420D01*
X454470Y380790D01*
X450600D01*
G01X454470D02*
X456800Y374750D01*
G01X464240Y387250D02*
X467960D01*
G01X466100D02*
Y374750D01*
G01X464240D02*
X467960D01*
G01X475400Y387250D02*
Y374750D01*
X481600D01*
G01X487800Y387250D02*
Y374750D01*
X494000D01*
G01X519110Y386210D02*
X518180Y386830D01*
X517100Y387250D01*
X515860D01*
X514460Y386620D01*
X513380Y385580D01*
X512600Y384330D01*
X511980Y382250D01*
X511820Y380370D01*
X512140Y378500D01*
X512600Y377250D01*
X513530Y376000D01*
X514620Y375170D01*
X515700Y374750D01*
X516780D01*
X517870Y375170D01*
X518800Y375790D01*
X519580Y376620D01*
G01X524840Y374750D02*
Y387250D01*
G01X531360D02*
Y374750D01*
G01Y381000D02*
X524840D01*
G01X536620Y374750D02*
X540500Y387250D01*
X544380Y374750D01*
G01X542980Y379120D02*
X538020D01*
G01X549800Y374750D02*
Y387250D01*
X553670D01*
X554910Y386620D01*
X555690Y385790D01*
X556000Y384120D01*
X555690Y382460D01*
X554760Y381420D01*
X553670Y380790D01*
X549800D01*
G01X553670D02*
X556000Y374750D01*
G01X565300Y387250D02*
Y374750D01*
G01X561740Y387250D02*
X568860D01*
G01X577700Y374330D02*
X577390Y374540D01*
Y374960D01*
X577700Y375170D01*
X578010Y374960D01*
Y374540D01*
X577700Y374330D01*
G01Y379960D02*
X577390Y380170D01*
Y380580D01*
X577700Y380790D01*
X578010Y380580D01*
Y380170D01*
X577700Y379960D01*
G01X602500Y387250D02*
Y374750D01*
G01X598940Y387250D02*
X606060D01*
G01X614900Y374750D02*
X613660Y374960D01*
X612580Y375790D01*
X611640Y377040D01*
X611020Y378500D01*
X610710Y380170D01*
Y381830D01*
X611020Y383500D01*
X611640Y384960D01*
X612580Y386210D01*
X613660Y387040D01*
X614900Y387250D01*
X616140Y387040D01*
X617220Y386210D01*
X618160Y384960D01*
X618780Y383500D01*
X619090Y381830D01*
Y380170D01*
X618780Y378500D01*
X618160Y377040D01*
X617220Y375790D01*
X616140Y374960D01*
X614900Y374750D01*
G01X624200D02*
Y387250D01*
X627920D01*
X629160Y386620D01*
X630090Y385170D01*
X630400Y383500D01*
X630090Y381830D01*
X629310Y380580D01*
X627920Y379960D01*
X624200D01*
G01X652100Y387250D02*
Y374750D01*
G01X649930Y383080D02*
X654270D01*
G01X664500Y374750D02*
X663570Y374960D01*
X662640Y375790D01*
X662020Y377250D01*
X661710Y378920D01*
X662020Y380580D01*
X662640Y382040D01*
X663570Y382870D01*
X664500Y383080D01*
X665430Y382870D01*
X666360Y382040D01*
X666980Y380580D01*
X667140Y378920D01*
X666980Y377250D01*
X666360Y375790D01*
X665430Y374960D01*
X664500Y374750D01*
G01X690540Y381420D02*
X691160Y382040D01*
X691620Y383080D01*
X691940Y384540D01*
X691620Y385790D01*
X691010Y386620D01*
X689920Y387250D01*
X685740D01*
Y374750D01*
X690850D01*
X691940Y375580D01*
X692560Y376830D01*
X692860Y378290D01*
X692560Y379750D01*
X691620Y381000D01*
X690540Y381420D01*
X685740D01*
G01X701700Y374750D02*
X700460Y374960D01*
X699380Y375790D01*
X698440Y377040D01*
X697820Y378500D01*
X697510Y380170D01*
Y381830D01*
X697820Y383500D01*
X698440Y384960D01*
X699380Y386210D01*
X700460Y387040D01*
X701700Y387250D01*
X702940Y387040D01*
X704020Y386210D01*
X704960Y384960D01*
X705580Y383500D01*
X705890Y381830D01*
Y380170D01*
X705580Y378500D01*
X704960Y377040D01*
X704020Y375790D01*
X702940Y374960D01*
X701700Y374750D01*
G01X714100Y387250D02*
Y374750D01*
G01X710540Y387250D02*
X717660D01*
G01X726500D02*
Y374750D01*
G01X722940Y387250D02*
X730060D01*
G01X738900Y374750D02*
X737660Y374960D01*
X736580Y375790D01*
X735640Y377040D01*
X735020Y378500D01*
X734710Y380170D01*
Y381830D01*
X735020Y383500D01*
X735640Y384960D01*
X736580Y386210D01*
X737660Y387040D01*
X738900Y387250D01*
X740140Y387040D01*
X741220Y386210D01*
X742160Y384960D01*
X742780Y383500D01*
X743090Y381830D01*
Y380170D01*
X742780Y378500D01*
X742160Y377040D01*
X741220Y375790D01*
X740140Y374960D01*
X738900Y374750D01*
G01X747270D02*
Y387250D01*
X751300Y376830D01*
X755330Y387250D01*
Y374750D01*
G01X444400Y343500D02*
Y218500D01*
G01X468420Y349750D02*
X472300Y362250D01*
X476180Y349750D01*
G01X474780Y354120D02*
X469820D01*
G01X481600Y362250D02*
Y349750D01*
X487800D01*
G01X494000Y362250D02*
Y349750D01*
X500200D01*
G01X518490Y362250D02*
Y353290D01*
X519110Y351420D01*
X520350Y350170D01*
X521900Y349750D01*
X523450Y350170D01*
X524690Y351420D01*
X525310Y353290D01*
Y362250D01*
G01X530740Y349750D02*
Y362250D01*
X537860Y349750D01*
Y362250D01*
G01X544840D02*
X548560D01*
G01X546700D02*
Y349750D01*
G01X544840D02*
X548560D01*
G01X559100Y362250D02*
Y349750D01*
G01X555540Y362250D02*
X562660D01*
G01X568240Y351420D02*
X569490Y350370D01*
X570880Y349750D01*
X572120D01*
X573360Y350370D01*
X574290Y351420D01*
X574760Y352880D01*
X574450Y354330D01*
X573670Y355580D01*
X572270Y356420D01*
X570420Y356830D01*
X569330Y357670D01*
X568860Y359120D01*
X569180Y360580D01*
X569950Y361620D01*
X571030Y362250D01*
X572120D01*
X573210Y361830D01*
X574140Y360790D01*
G01X592420Y349750D02*
X596300Y362250D01*
X600180Y349750D01*
G01X598780Y354120D02*
X593820D01*
G01X605600Y349750D02*
Y362250D01*
X609470D01*
X610710Y361620D01*
X611490Y360790D01*
X611800Y359120D01*
X611490Y357460D01*
X610560Y356420D01*
X609470Y355790D01*
X605600D01*
G01X609470D02*
X611800Y349750D01*
G01X624200D02*
X618000D01*
Y362250D01*
X624200D01*
G01X621720Y356210D02*
X618000D01*
G01X644040Y362250D02*
X647760D01*
G01X645900D02*
Y349750D01*
G01X644040D02*
X647760D01*
G01X654740D02*
Y362250D01*
X661860Y349750D01*
Y362250D01*
G01X679070Y349750D02*
Y362250D01*
X683100Y351830D01*
X687130Y362250D01*
Y349750D01*
G01X693640Y362250D02*
X697360D01*
G01X695500D02*
Y349750D01*
G01X693640D02*
X697360D01*
G01X704800Y362250D02*
Y349750D01*
X711000D01*
G01X717040Y351420D02*
X718290Y350370D01*
X719680Y349750D01*
X720920D01*
X722160Y350370D01*
X723090Y351420D01*
X723560Y352880D01*
X723250Y354330D01*
X722470Y355580D01*
X721070Y356420D01*
X719220Y356830D01*
X718130Y357670D01*
X717660Y359120D01*
X717980Y360580D01*
X718750Y361620D01*
X719830Y362250D01*
X720920D01*
X722010Y361830D01*
X722940Y360790D01*
G01X516940Y227250D02*
X517870Y225790D01*
X519110Y224960D01*
X520510Y224750D01*
X521750Y224960D01*
X522990Y226000D01*
X523760Y227250D01*
X523910Y228500D01*
X523610Y229960D01*
X522520Y231000D01*
X521430Y231420D01*
X520040D01*
G01X521430D02*
X522360Y232040D01*
X523140Y233080D01*
X523450Y234330D01*
X523140Y235580D01*
X522360Y236620D01*
X520970Y237250D01*
X519580Y237040D01*
X518180Y236210D01*
G01X530110Y226210D02*
X531200Y225170D01*
X532440Y224750D01*
X533680Y225170D01*
X534760Y226420D01*
X535540Y228290D01*
X535850Y230170D01*
Y232460D01*
X535540Y234330D01*
X534760Y236000D01*
X533830Y236830D01*
X532750Y237250D01*
X531510Y236830D01*
X530580Y236000D01*
X529960Y234750D01*
X529650Y233080D01*
X529960Y231630D01*
X530740Y230170D01*
X531670Y229330D01*
X532750Y229120D01*
X533990Y229540D01*
X534920Y230580D01*
X535850Y232460D01*
G01X545150Y224330D02*
X544840Y224540D01*
Y224960D01*
X545150Y225170D01*
X545460Y224960D01*
Y224540D01*
X545150Y224330D01*
G01X559410Y224750D02*
Y237250D01*
X553670Y228290D01*
X561430D01*
G01X516940Y252250D02*
X517870Y250790D01*
X519110Y249960D01*
X520510Y249750D01*
X521750Y249960D01*
X522990Y251000D01*
X523760Y252250D01*
X523910Y253500D01*
X523610Y254960D01*
X522520Y256000D01*
X521430Y256420D01*
X520040D01*
G01X521430D02*
X522360Y257040D01*
X523140Y258080D01*
X523450Y259330D01*
X523140Y260580D01*
X522360Y261620D01*
X520970Y262250D01*
X519580Y262040D01*
X518180Y261210D01*
G01X530110Y251210D02*
X531200Y250170D01*
X532440Y249750D01*
X533680Y250170D01*
X534760Y251420D01*
X535540Y253290D01*
X535850Y255170D01*
Y257460D01*
X535540Y259330D01*
X534760Y261000D01*
X533830Y261830D01*
X532750Y262250D01*
X531510Y261830D01*
X530580Y261000D01*
X529960Y259750D01*
X529650Y258080D01*
X529960Y256630D01*
X530740Y255170D01*
X531670Y254330D01*
X532750Y254120D01*
X533990Y254540D01*
X534920Y255580D01*
X535850Y257460D01*
G01X545150Y249330D02*
X544840Y249540D01*
Y249960D01*
X545150Y250170D01*
X545460Y249960D01*
Y249540D01*
X545150Y249330D01*
G01X559410Y249750D02*
Y262250D01*
X553670Y253290D01*
X561430D01*
G01X516940Y277250D02*
X517870Y275790D01*
X519110Y274960D01*
X520510Y274750D01*
X521750Y274960D01*
X522990Y276000D01*
X523760Y277250D01*
X523910Y278500D01*
X523610Y279960D01*
X522520Y281000D01*
X521430Y281420D01*
X520040D01*
G01X521430D02*
X522360Y282040D01*
X523140Y283080D01*
X523450Y284330D01*
X523140Y285580D01*
X522360Y286620D01*
X520970Y287250D01*
X519580Y287040D01*
X518180Y286210D01*
G01X529340Y276620D02*
X530270Y275580D01*
X531350Y274960D01*
X532750Y274750D01*
X534150Y275170D01*
X535230Y276000D01*
X536010Y277460D01*
X536160Y279120D01*
X535850Y280790D01*
X535070Y281830D01*
X533990Y282670D01*
X532910Y282870D01*
X531820Y282670D01*
X530430Y281830D01*
X530890Y287250D01*
X535070D01*
G01X545150Y274330D02*
X544840Y274540D01*
Y274960D01*
X545150Y275170D01*
X545460Y274960D01*
Y274540D01*
X545150Y274330D01*
G01X559410Y274750D02*
Y287250D01*
X553670Y278290D01*
X561430D01*
G01X520350Y299750D02*
Y312250D01*
X518490Y309750D01*
G01Y299750D02*
X522210D01*
G01X529800Y310170D02*
X530740Y311420D01*
X531820Y312040D01*
X533060Y312250D01*
X534610Y311830D01*
X535700Y310790D01*
X536010Y309540D01*
X535850Y308290D01*
X535230Y307250D01*
X532130Y305170D01*
X530740Y303710D01*
X529800Y301620D01*
X529490Y299750D01*
X536010D01*
G01X545150Y299330D02*
X544840Y299540D01*
Y299960D01*
X545150Y300170D01*
X545460Y299960D01*
Y299540D01*
X545150Y299330D01*
G01X557550Y312250D02*
X556310Y311830D01*
X555380Y310790D01*
X554760Y309540D01*
X554290Y307870D01*
X554140Y306000D01*
X554290Y304120D01*
X554760Y302460D01*
X555380Y301210D01*
X556310Y300170D01*
X557550Y299750D01*
X558790Y300170D01*
X559720Y301210D01*
X560340Y302460D01*
X560810Y304120D01*
X560960Y306000D01*
X560810Y307870D01*
X560340Y309540D01*
X559720Y310790D01*
X558790Y311830D01*
X557550Y312250D01*
G01X517090Y326420D02*
X518340Y325370D01*
X519730Y324750D01*
X520970D01*
X522210Y325370D01*
X523140Y326420D01*
X523610Y327880D01*
X523300Y329330D01*
X522520Y330580D01*
X521120Y331420D01*
X519270Y331830D01*
X518180Y332670D01*
X517710Y334120D01*
X518030Y335580D01*
X518800Y336620D01*
X519880Y337250D01*
X520970D01*
X522060Y336830D01*
X522990Y335790D01*
G01X530890Y337250D02*
X534610D01*
G01X532750D02*
Y324750D01*
G01X530890D02*
X534610D01*
G01X542200Y337250D02*
X548100D01*
X542200Y324750D01*
X548100D01*
G01X560650D02*
X554450D01*
Y337250D01*
X560650D01*
G01X558170Y331210D02*
X554450D01*
G01X633500Y343500D02*
Y218500D01*
G01X662950Y224750D02*
Y237250D01*
X666670D01*
X667910Y236620D01*
X668840Y235170D01*
X669150Y233500D01*
X668840Y231830D01*
X668060Y230580D01*
X666670Y229960D01*
X662950D01*
G01X675350Y237250D02*
Y224750D01*
X681550D01*
G01X686970D02*
X690850Y237250D01*
X694730Y224750D01*
G01X693330Y229120D02*
X688370D01*
G01X703250Y237250D02*
Y224750D01*
G01X699690Y237250D02*
X706810D01*
G01X718750Y224750D02*
X712550D01*
Y237250D01*
X718750D01*
G01X716270Y231210D02*
X712550D01*
G01X724640Y224750D02*
Y237250D01*
X727740D01*
X728980Y236620D01*
X729910Y235790D01*
X730690Y234540D01*
X731310Y233080D01*
X731460Y231000D01*
X731310Y228920D01*
X730690Y227460D01*
X729910Y226210D01*
X728980Y225370D01*
X727740Y224750D01*
X724640D01*
G01X662950Y249750D02*
Y262250D01*
X666670D01*
X667910Y261620D01*
X668840Y260170D01*
X669150Y258500D01*
X668840Y256830D01*
X668060Y255580D01*
X666670Y254960D01*
X662950D01*
G01X675350Y262250D02*
Y249750D01*
X681550D01*
G01X686970D02*
X690850Y262250D01*
X694730Y249750D01*
G01X693330Y254120D02*
X688370D01*
G01X703250Y262250D02*
Y249750D01*
G01X699690Y262250D02*
X706810D01*
G01X718750Y249750D02*
X712550D01*
Y262250D01*
X718750D01*
G01X716270Y256210D02*
X712550D01*
G01X724640Y249750D02*
Y262250D01*
X727740D01*
X728980Y261620D01*
X729910Y260790D01*
X730690Y259540D01*
X731310Y258080D01*
X731460Y256000D01*
X731310Y253920D01*
X730690Y252460D01*
X729910Y251210D01*
X728980Y250370D01*
X727740Y249750D01*
X724640D01*
G01X662950Y274750D02*
Y287250D01*
X666670D01*
X667910Y286620D01*
X668840Y285170D01*
X669150Y283500D01*
X668840Y281830D01*
X668060Y280580D01*
X666670Y279960D01*
X662950D01*
G01X675350Y287250D02*
Y274750D01*
X681550D01*
G01X686970D02*
X690850Y287250D01*
X694730Y274750D01*
G01X693330Y279120D02*
X688370D01*
G01X703250Y287250D02*
Y274750D01*
G01X699690Y287250D02*
X706810D01*
G01X718750Y274750D02*
X712550D01*
Y287250D01*
X718750D01*
G01X716270Y281210D02*
X712550D01*
G01X724640Y274750D02*
Y287250D01*
X727740D01*
X728980Y286620D01*
X729910Y285790D01*
X730690Y284540D01*
X731310Y283080D01*
X731460Y281000D01*
X731310Y278920D01*
X730690Y277460D01*
X729910Y276210D01*
X728980Y275370D01*
X727740Y274750D01*
X724640D01*
G01X662950Y299750D02*
Y312250D01*
X666670D01*
X667910Y311620D01*
X668840Y310170D01*
X669150Y308500D01*
X668840Y306830D01*
X668060Y305580D01*
X666670Y304960D01*
X662950D01*
G01X675350Y312250D02*
Y299750D01*
X681550D01*
G01X686970D02*
X690850Y312250D01*
X694730Y299750D01*
G01X693330Y304120D02*
X688370D01*
G01X703250Y312250D02*
Y299750D01*
G01X699690Y312250D02*
X706810D01*
G01X718750Y299750D02*
X712550D01*
Y312250D01*
X718750D01*
G01X716270Y306210D02*
X712550D01*
G01X724640Y299750D02*
Y312250D01*
X727740D01*
X728980Y311620D01*
X729910Y310790D01*
X730690Y309540D01*
X731310Y308080D01*
X731460Y306000D01*
X731310Y303920D01*
X730690Y302460D01*
X729910Y301210D01*
X728980Y300370D01*
X727740Y299750D01*
X724640D01*
G01X662950Y324750D02*
Y337250D01*
X666670D01*
X667910Y336620D01*
X668840Y335170D01*
X669150Y333500D01*
X668840Y331830D01*
X668060Y330580D01*
X666670Y329960D01*
X662950D01*
G01X675350Y337250D02*
Y324750D01*
X681550D01*
G01X686970D02*
X690850Y337250D01*
X694730Y324750D01*
G01X693330Y329120D02*
X688370D01*
G01X703250Y337250D02*
Y324750D01*
G01X699690Y337250D02*
X706810D01*
G01X718750Y324750D02*
X712550D01*
Y337250D01*
X718750D01*
G01X716270Y331210D02*
X712550D01*
G01X724640Y324750D02*
Y337250D01*
X727740D01*
X728980Y336620D01*
X729910Y335790D01*
X730690Y334540D01*
X731310Y333080D01*
X731460Y331000D01*
X731310Y328920D01*
X730690Y327460D01*
X729910Y326210D01*
X728980Y325370D01*
X727740Y324750D01*
X724640D01*
G01X760600Y343500D02*
Y218500D01*
G01X786950Y299750D02*
X788030Y299960D01*
X789270Y300580D01*
X790050Y301620D01*
X790360Y303080D01*
X790050Y304540D01*
X789120Y305790D01*
X787720Y306420D01*
X786180D01*
X785240Y306830D01*
X784470Y307870D01*
X784160Y309330D01*
X784630Y310790D01*
X785710Y311830D01*
X786950Y312250D01*
X788190Y311830D01*
X789270Y310790D01*
X789740Y309330D01*
X789430Y307870D01*
X788660Y306830D01*
X787720Y306420D01*
X786180D01*
X784780Y305790D01*
X783850Y304540D01*
X783540Y303080D01*
X783850Y301620D01*
X784630Y300580D01*
X785870Y299960D01*
X786950Y299750D01*
G01X799350D02*
X800430Y299960D01*
X801670Y300580D01*
X802450Y301620D01*
X802760Y303080D01*
X802450Y304540D01*
X801520Y305790D01*
X800120Y306420D01*
X798580D01*
X797640Y306830D01*
X796870Y307870D01*
X796560Y309330D01*
X797030Y310790D01*
X798110Y311830D01*
X799350Y312250D01*
X800590Y311830D01*
X801670Y310790D01*
X802140Y309330D01*
X801830Y307870D01*
X801060Y306830D01*
X800120Y306420D01*
X798580D01*
X797180Y305790D01*
X796250Y304540D01*
X795940Y303080D01*
X796250Y301620D01*
X797030Y300580D01*
X798270Y299960D01*
X799350Y299750D01*
G01X811750D02*
Y312250D01*
X809890Y309750D01*
G01Y299750D02*
X813610D01*
G01X786950Y324750D02*
X785710Y324960D01*
X784630Y325790D01*
X783690Y327040D01*
X783070Y328500D01*
X782760Y330170D01*
Y331830D01*
X783070Y333500D01*
X783690Y334960D01*
X784630Y336210D01*
X785710Y337040D01*
X786950Y337250D01*
X788190Y337040D01*
X789270Y336210D01*
X790210Y334960D01*
X790830Y333500D01*
X791140Y331830D01*
Y330170D01*
X790830Y328500D01*
X790210Y327040D01*
X789270Y325790D01*
X788190Y324960D01*
X786950Y324750D01*
G01X788190Y328080D02*
X790050Y324750D01*
G01X799350Y337250D02*
Y324750D01*
G01X795790Y337250D02*
X802910D01*
G01X811750Y324750D02*
Y330370D01*
X808650Y337250D01*
G01X814850D02*
X811750Y330370D01*
G01X796400Y229960D02*
X797490Y231420D01*
X798420Y232250D01*
X799660Y232670D01*
X800750Y232250D01*
X801520Y231420D01*
X802140Y230170D01*
X802300Y228710D01*
X802140Y227460D01*
X801520Y226210D01*
X800590Y225170D01*
X799510Y224750D01*
X798270Y225170D01*
X797180Y226420D01*
X796560Y228290D01*
X796400Y230370D01*
X796710Y233080D01*
X797180Y234540D01*
X797950Y236000D01*
X799040Y237040D01*
X800120Y237250D01*
X801210Y236830D01*
X801990Y235790D01*
G01X789740Y252250D02*
X790670Y250790D01*
X791910Y249960D01*
X793310Y249750D01*
X794550Y249960D01*
X795790Y251000D01*
X796560Y252250D01*
X796710Y253500D01*
X796410Y254960D01*
X795320Y256000D01*
X794230Y256420D01*
X792840D01*
G01X794230D02*
X795160Y257040D01*
X795940Y258080D01*
X796250Y259330D01*
X795940Y260580D01*
X795160Y261620D01*
X793770Y262250D01*
X792380Y262040D01*
X790980Y261210D01*
G01X802600Y260170D02*
X803540Y261420D01*
X804620Y262040D01*
X805860Y262250D01*
X807410Y261830D01*
X808500Y260790D01*
X808810Y259540D01*
X808650Y258290D01*
X808030Y257250D01*
X804930Y255170D01*
X803540Y253710D01*
X802600Y251620D01*
X802290Y249750D01*
X808810D01*
G01X789740Y277250D02*
X790670Y275790D01*
X791910Y274960D01*
X793310Y274750D01*
X794550Y274960D01*
X795790Y276000D01*
X796560Y277250D01*
X796710Y278500D01*
X796410Y279960D01*
X795320Y281000D01*
X794230Y281420D01*
X792840D01*
G01X794230D02*
X795160Y282040D01*
X795940Y283080D01*
X796250Y284330D01*
X795940Y285580D01*
X795160Y286620D01*
X793770Y287250D01*
X792380Y287040D01*
X790980Y286210D01*
G01X805550Y274750D02*
X806630Y274960D01*
X807870Y275580D01*
X808650Y276620D01*
X808960Y278080D01*
X808650Y279540D01*
X807720Y280790D01*
X806320Y281420D01*
X804780D01*
X803840Y281830D01*
X803070Y282870D01*
X802760Y284330D01*
X803230Y285790D01*
X804310Y286830D01*
X805550Y287250D01*
X806790Y286830D01*
X807870Y285790D01*
X808340Y284330D01*
X808030Y282870D01*
X807260Y281830D01*
X806320Y281420D01*
X804780D01*
X803380Y280790D01*
X802450Y279540D01*
X802140Y278080D01*
X802450Y276620D01*
X803230Y275580D01*
X804470Y274960D01*
X805550Y274750D01*
M02*
