G04 ================== begin FILE IDENTIFICATION RECORD ==================*
G04 Layout Name:  D:/STM32F407 LWIP/物体识别  8.12/PCB/LAYOUT/BaseBoard.brd*
G04 Film Name:    07_SOLD_BOTTOM*
G04 File Format:  Gerber RS274X*
G04 File Origin:  Cadence Allegro 16.6-2015-S108*
G04 Origin Date:  Sun Sep 08 08:31:49 2019*
G04 *
G04 Layer:  BOARD GEOMETRY/OUTLINE*
G04 Layer:  PIN/SOLDERMASK_BOTTOM*
G04 Layer:  PACKAGE GEOMETRY/SOLDERMASK_BOTTOM*
G04 Layer:  BOARD GEOMETRY/SOLDERMASK_BOTTOM*
G04 *
G04 Offset:    (0.0 0.0)*
G04 Mirror:    No*
G04 Mode:      Positive*
G04 Rotation:  0*
G04 FullContactRelief:  No*
G04 UndefLineWidth:     6.0*
G04 ================== end FILE IDENTIFICATION RECORD ====================*
%FSLAX25Y25*MOIN*%
%IR0*IPPOS*OFA0.00000B0.00000*MIA0B0*SFA1.00000B1.00000*%
%AMMACRO14*
21,1,.039,.036,0.0,0.0,135.*%
%ADD14MACRO14*%
%AMMACRO13*
21,1,.0591,.0787,0.0,0.0,135.*%
%ADD13MACRO13*%
%ADD16R,.04X.035*%
%ADD10C,.065*%
%ADD19R,.036X.039*%
%AMMACRO15*
21,1,.039,.036,0.0,0.0,45.*%
%ADD15MACRO15*%
%ADD18R,.039X.036*%
%ADD22R,.0453X.0433*%
%ADD11C,.0709*%
%ADD23R,.0906X.0453*%
%ADD17R,.0827X.0236*%
%ADD21R,.0374X.0374*%
%ADD12R,.0709X.0709*%
%ADD20R,.0591X.0787*%
%ADD24C,.006*%
G75*
%LPD*%
G75*
G54D10*
X8780Y39230D03*
Y66000D03*
Y331230D03*
Y358000D03*
X26500Y39230D03*
Y66000D03*
Y331230D03*
Y358000D03*
X255000Y152500D03*
X265000D03*
X255000Y162500D03*
Y172500D03*
X265000Y162500D03*
Y172500D03*
X255000Y182500D03*
Y192500D03*
Y202500D03*
X265000Y182500D03*
Y192500D03*
Y202500D03*
X255000Y212500D03*
Y222500D03*
X265000Y212500D03*
Y222500D03*
X255000Y232500D03*
X265000D03*
X250000Y262500D03*
Y289270D03*
X267720Y262500D03*
Y289270D03*
G54D20*
X240900Y335000D03*
X253100D03*
G54D11*
X8870Y223500D03*
Y248500D03*
Y273500D03*
Y298500D03*
X53500Y10000D03*
X76500Y375000D03*
X66500D03*
X76500Y365000D03*
X66500D03*
X106500Y375000D03*
X96500D03*
X86500D03*
X106500Y365000D03*
X96500D03*
X86500D03*
X126500Y375000D03*
X116500D03*
X126500Y365000D03*
X116500D03*
X146500Y375000D03*
X136500D03*
X146500Y365000D03*
X136500D03*
X166500Y375000D03*
X156500D03*
X166500Y365000D03*
X156500D03*
X196500Y375000D03*
X186500D03*
X176500D03*
X196500Y365000D03*
X186500D03*
X176500D03*
X216500Y375000D03*
X206500D03*
X216500Y365000D03*
X206500D03*
X230500Y103500D03*
X226500Y375000D03*
Y365000D03*
G54D12*
X18870Y223500D03*
Y248500D03*
Y273500D03*
Y298500D03*
X63500Y10000D03*
X240500Y103500D03*
G54D21*
X250030Y308500D03*
X243970D03*
G54D22*
X260500D03*
G54D13*
X117190Y199310D03*
X125810Y190690D03*
G54D23*
X266500Y302690D03*
Y314310D03*
G54D14*
X128880Y199620D03*
X133120Y195380D03*
X170880Y244120D03*
X175120Y239880D03*
G54D24*
G01X11810Y393700D02*
X263780D01*
G02X275590Y381890I-1J-11811D01*
G01Y11810D01*
G02X263780Y0I-11811J1D01*
G01X11810D01*
G02X0Y11810I1J11811D01*
G01Y381890D01*
G02X11810Y393700I11811J-1D01*
G01Y0D02*
X263780D01*
G01X0Y381890D02*
Y11810D01*
G01D02*
G03X11810Y0I11811J1D01*
G01Y393700D02*
G03X0Y381890I1J-11811D01*
G01X263780Y393700D02*
X11810D01*
G01X25590Y19690D02*
G03I-5905J-5D01*
G01Y374020D02*
G03I-5905J-4D01*
G01X261810Y19690D02*
G03I-5904J-5D01*
G01Y374020D02*
G03I-5904J-4D01*
G01X275590Y11810D02*
Y381890D01*
G01X263780Y0D02*
G03X275590Y11810I-1J11811D01*
G01Y381890D02*
G03X263780Y393700I-11811J-1D01*
G54D15*
X169120Y224620D03*
X164880Y220380D03*
X152380Y207380D03*
X156620Y211620D03*
G54D16*
X193350Y51500D03*
X199650D03*
G54D17*
X176690Y290880D03*
Y296790D03*
Y302690D03*
Y308600D03*
Y314500D03*
Y320410D03*
Y326310D03*
X229840Y290880D03*
Y314500D03*
Y308600D03*
Y302690D03*
Y296790D03*
Y326310D03*
Y320410D03*
G54D18*
X227000Y66000D03*
X233000D03*
X239000Y326500D03*
X245000D03*
G54D19*
X239000Y308500D03*
Y314500D03*
X255000Y308500D03*
Y314500D03*
M02*
