G04 ================== begin FILE IDENTIFICATION RECORD ==================*
G04 Layout Name:  D:/STM32F407 LWIP/物体识别  8.12/PCB/LAYOUT/BaseBoard.brd*
G04 Film Name:    08_PAST_TOP*
G04 File Format:  Gerber RS274X*
G04 File Origin:  Cadence Allegro 16.6-2015-S108*
G04 Origin Date:  Sun Sep 08 08:31:49 2019*
G04 *
G04 Layer:  BOARD GEOMETRY/OUTLINE*
G04 Layer:  PIN/PASTEMASK_TOP*
G04 Layer:  PACKAGE GEOMETRY/PASTEMASK_TOP*
G04 *
G04 Offset:    (0.0 0.0)*
G04 Mirror:    No*
G04 Mode:      Positive*
G04 Rotation:  0*
G04 FullContactRelief:  No*
G04 UndefLineWidth:     6.0*
G04 ================== end FILE IDENTIFICATION RECORD ====================*
%FSLAX25Y25*MOIN*%
%IR0*IPPOS*OFA0.00000B0.00000*MIA0B0*SFA1.00000B1.00000*%
%AMMACRO31*
21,1,.036,.031,0.0,0.0,135.*%
%ADD31MACRO31*%
%AMMACRO22*
21,1,.035,.032,0.0,0.0,135.*%
%ADD22MACRO22*%
%AMMACRO20*
21,1,.0118,.0512,0.0,0.0,135.*
1,1,.0118,.018102,.018102*
1,1,.0118,-.018102,-.018102*%
%ADD20MACRO20*%
%AMMACRO30*
21,1,.0512,.0709,0.0,0.0,135.*%
%ADD30MACRO30*%
%AMMACRO27*
21,1,.1811,.0472,0.0,0.0,45.*%
%ADD27MACRO27*%
%ADD23R,.0276X.1181*%
%ADD14R,.1181X.0276*%
%ADD11R,.1181X.0827*%
%ADD19R,.1378X.0846*%
%AMMACRO25*
21,1,.035,.032,0.0,0.0,45.*%
%ADD25MACRO25*%
%AMMACRO24*
21,1,.036,.031,0.0,0.0,45.*%
%ADD24MACRO24*%
%ADD17R,.032X.035*%
%ADD10R,.031X.036*%
%ADD28R,.035X.032*%
%ADD13R,.036X.031*%
%AMMACRO21*
21,1,.0118,.0512,0.0,0.0,45.*
1,1,.0118,.018102,-.018102*
1,1,.0118,-.018102,.018102*%
%ADD21MACRO21*%
%AMMACRO33*
21,1,.0315,.0315,0.0,0.0,45.*%
%ADD33MACRO33*%
%ADD29R,.0512X.0709*%
%ADD26R,.0315X.0315*%
%ADD16R,.0374X.0354*%
%ADD32O,.0256X.0787*%
%ADD12R,.0709X.0276*%
%ADD18R,.0472X.0866*%
%ADD15O,.0787X.0256*%
%ADD34C,.006*%
G75*
%LPD*%
G75*
G54D10*
X9000Y74350D03*
Y80650D03*
X8500Y315350D03*
Y321650D03*
X210500Y88650D03*
Y82350D03*
G54D11*
X13050Y97860D03*
Y134670D03*
Y150360D03*
Y187170D03*
G54D20*
X106560Y221760D03*
X105170Y223160D03*
X103780Y224550D03*
X102380Y225940D03*
X100990Y227330D03*
X99600Y228720D03*
X98210Y230110D03*
X128830Y199490D03*
X127440Y200880D03*
X126050Y202280D03*
X124660Y203670D03*
X123260Y205060D03*
X121870Y206450D03*
X120480Y207850D03*
X119090Y209230D03*
X117700Y210630D03*
X116310Y212020D03*
X114910Y213410D03*
X113520Y214810D03*
X112130Y216200D03*
X110730Y217590D03*
X109350Y218980D03*
X107950Y220370D03*
X131610Y196710D03*
X130220Y198100D03*
X142780Y271900D03*
X144170Y270510D03*
X145560Y269120D03*
X146950Y267720D03*
X148340Y266330D03*
X149740Y264940D03*
X151130Y263550D03*
X141390Y273290D03*
X166440Y248240D03*
X167830Y246840D03*
X169220Y245450D03*
X170620Y244060D03*
X172010Y242670D03*
X173400Y241280D03*
X152520Y262150D03*
X153910Y260770D03*
X155300Y259370D03*
X156690Y257980D03*
X158090Y256590D03*
X159480Y255190D03*
X160870Y253800D03*
X162270Y252410D03*
X163650Y251020D03*
X165050Y249630D03*
X174790Y239890D03*
G54D12*
X25250Y108880D03*
Y113800D03*
Y118730D03*
Y123640D03*
Y161380D03*
Y166300D03*
Y171230D03*
Y176140D03*
G54D21*
X98210Y239890D03*
X99600Y241280D03*
X100990Y242670D03*
X102380Y244060D03*
X103780Y245450D03*
X105170Y246840D03*
X106560Y248240D03*
X107950Y249630D03*
X109350Y251020D03*
X110730Y252410D03*
X112130Y253800D03*
X113520Y255190D03*
X114910Y256590D03*
X116310Y257980D03*
X117700Y259370D03*
X119090Y260770D03*
X120480Y262150D03*
X121870Y263550D03*
X123260Y264940D03*
X124660Y266330D03*
X126050Y267720D03*
X127440Y269120D03*
X128830Y270510D03*
X148340Y203670D03*
X146950Y202280D03*
X145560Y200880D03*
X144170Y199490D03*
X142780Y198100D03*
X141390Y196710D03*
X151130Y206450D03*
X149740Y205060D03*
X130220Y271900D03*
X131610Y273290D03*
X170620Y225940D03*
X169220Y224550D03*
X167830Y223160D03*
X166440Y221760D03*
X165050Y220370D03*
X163650Y218980D03*
X162270Y217590D03*
X160870Y216200D03*
X159480Y214810D03*
X158090Y213410D03*
X156690Y212020D03*
X155300Y210630D03*
X153910Y209230D03*
X152520Y207850D03*
X173400Y228720D03*
X172010Y227330D03*
X174790Y230110D03*
G54D30*
X186190Y225810D03*
X194810Y217190D03*
G54D13*
X35150Y223500D03*
X28850D03*
X35150Y248500D03*
X28850D03*
X35150Y273500D03*
X28850D03*
X35150Y298500D03*
X28850D03*
X186350Y291000D03*
X192650D03*
X186350Y297000D03*
X192650D03*
X186350Y302500D03*
X192650D03*
X186350Y320500D03*
X192650D03*
X186350Y326500D03*
X192650D03*
X239350Y222500D03*
Y212500D03*
X245650Y222500D03*
Y212500D03*
G54D22*
X95620Y248380D03*
X92120Y244880D03*
X91380Y252620D03*
X87880Y249120D03*
X189880Y235120D03*
X194120Y230880D03*
G54D31*
X182270Y217730D03*
X186730Y213270D03*
X178270Y213730D03*
X182730Y209270D03*
G54D32*
X205500Y50110D03*
X210500D03*
X215500D03*
X205500Y73000D03*
X210500D03*
X215500D03*
X220500Y50110D03*
X225500D03*
X230500D03*
X235500D03*
X240500D03*
X220500Y73000D03*
X225500D03*
X230500D03*
X235500D03*
X240500D03*
G54D14*
X43250Y53000D03*
X61750D03*
X170750D03*
X189250D03*
G54D23*
X118500Y43750D03*
Y62250D03*
G54D15*
X44950Y138700D03*
Y143700D03*
Y148700D03*
Y153700D03*
X77650D03*
Y148700D03*
Y143700D03*
Y138700D03*
G54D33*
X202640Y222360D03*
X198360Y226640D03*
G54D24*
X112270Y193770D03*
X116730Y198230D03*
G54D34*
G01X11810Y393700D02*
X263780D01*
G02X275590Y381890I-1J-11811D01*
G01Y11810D01*
G02X263780Y0I-11811J1D01*
G01X11810D01*
G02X0Y11810I1J11811D01*
G01Y381890D01*
G02X11810Y393700I11811J-1D01*
G01Y0D02*
X263780D01*
G01X0Y381890D02*
Y11810D01*
G01D02*
G03X11810Y0I11811J1D01*
G01Y393700D02*
G03X0Y381890I1J-11811D01*
G01X263780Y393700D02*
X11810D01*
G01X25590Y19690D02*
G03I-5905J-5D01*
G01Y374020D02*
G03I-5905J-4D01*
G01X261810Y19690D02*
G03I-5904J-5D01*
G01Y374020D02*
G03I-5904J-4D01*
G01X275590Y11810D02*
Y381890D01*
G01X263780Y0D02*
G03X275590Y11810I-1J11811D01*
G01Y381890D02*
G03X263780Y393700I-11811J-1D01*
G54D16*
X63500Y18800D03*
Y31200D03*
G54D25*
X148380Y277880D03*
X149120Y285620D03*
X144880Y281380D03*
X167620Y195120D03*
X163380Y190880D03*
X173380Y200880D03*
X152620Y282120D03*
X177620Y205120D03*
G54D26*
X161000Y49970D03*
Y56030D03*
X220500Y88030D03*
Y81970D03*
X240500D03*
Y88030D03*
X230500Y81970D03*
Y88030D03*
G54D17*
X72000Y57500D03*
Y63500D03*
X86500Y147500D03*
Y153500D03*
X136000Y50000D03*
Y56000D03*
X215500Y88000D03*
Y82000D03*
X205500Y88000D03*
Y82000D03*
X210500Y101000D03*
Y95000D03*
G54D18*
X79940Y58700D03*
X89000D03*
X98060D03*
G54D27*
X169180Y175180D03*
X193820Y199820D03*
G54D28*
X171500Y350000D03*
X183500D03*
X189500D03*
X177500D03*
X227500Y41500D03*
X233500D03*
X240500Y94500D03*
X224500D03*
X230500D03*
X246500D03*
X263000Y240000D03*
X257000D03*
X250000Y254500D03*
X256000D03*
G54D19*
X89000Y34300D03*
G54D29*
X174400Y341500D03*
X186600D03*
M02*
